<svg width="430" height="43" viewBox="0 0 430 43" fill="none" xmlns="http://www.w3.org/2000/svg">
<circle r="11.5" transform="matrix(1 0 0 -1 12 12)" stroke="#E41222"/>
<path d="M7.672 34C7.432 34 7.228 33.916 7.06 33.748C6.892 33.58 6.808 33.376 6.808 33.136V9.7C6.808 9.436 6.88 9.22 7.024 9.052C7.192 8.884 7.408 8.8 7.672 8.8H16.996C19.924 8.8 22.216 9.484 23.872 10.852C25.552 12.22 26.392 14.164 26.392 16.684C26.392 18.436 25.96 19.912 25.096 21.112C24.256 22.288 23.08 23.14 21.568 23.668L26.824 32.848C26.896 32.992 26.932 33.124 26.932 33.244C26.932 33.46 26.848 33.64 26.68 33.784C26.536 33.928 26.368 34 26.176 34H22.9C22.516 34 22.216 33.916 22 33.748C21.808 33.58 21.628 33.34 21.46 33.028L16.816 24.496H11.812V33.136C11.812 33.376 11.728 33.58 11.56 33.748C11.416 33.916 11.212 34 10.948 34H7.672ZM16.888 20.428C18.328 20.428 19.408 20.104 20.128 19.456C20.872 18.808 21.244 17.872 21.244 16.648C21.244 15.424 20.872 14.476 20.128 13.804C19.408 13.132 18.328 12.796 16.888 12.796H11.812V20.428H16.888ZM38.4517 34.36C35.7877 34.36 33.6637 33.592 32.0797 32.056C30.5197 30.496 29.6917 28.312 29.5957 25.504L29.5597 24.604L29.5957 23.704C29.7157 20.968 30.5557 18.82 32.1157 17.26C33.6997 15.7 35.8117 14.92 38.4517 14.92C41.2837 14.92 43.4677 15.784 45.0037 17.512C46.5637 19.24 47.3437 21.544 47.3437 24.424V25.18C47.3437 25.42 47.2597 25.624 47.0917 25.792C46.9237 25.96 46.7077 26.044 46.4437 26.044H34.4917V26.332C34.5397 27.652 34.8997 28.768 35.5717 29.68C36.2677 30.568 37.2157 31.012 38.4157 31.012C39.8317 31.012 40.9717 30.46 41.8357 29.356C42.0517 29.092 42.2197 28.924 42.3397 28.852C42.4837 28.78 42.6877 28.744 42.9517 28.744H46.0477C46.2637 28.744 46.4437 28.816 46.5877 28.96C46.7557 29.08 46.8397 29.236 46.8397 29.428C46.8397 30.004 46.4917 30.688 45.7957 31.48C45.1237 32.248 44.1517 32.92 42.8797 33.496C41.6077 34.072 40.1317 34.36 38.4517 34.36ZM42.4477 23.02V22.912C42.4477 21.496 42.0877 20.356 41.3677 19.492C40.6717 18.628 39.6997 18.196 38.4517 18.196C37.2037 18.196 36.2317 18.628 35.5357 19.492C34.8397 20.356 34.4917 21.496 34.4917 22.912V23.02H42.4477ZM56.6011 34.36C55.3771 34.36 54.2491 34.12 53.2171 33.64C52.2091 33.136 51.4051 32.464 50.8051 31.624C50.2291 30.784 49.9411 29.86 49.9411 28.852C49.9411 27.22 50.6011 25.9 51.9211 24.892C53.2411 23.884 55.0531 23.2 57.3571 22.84L62.2891 22.12V21.364C62.2891 20.308 62.0251 19.516 61.4971 18.988C60.9691 18.46 60.1171 18.196 58.9411 18.196C58.1491 18.196 57.5011 18.352 56.9971 18.664C56.5171 18.952 56.1331 19.24 55.8451 19.528C55.5571 19.84 55.3651 20.044 55.2691 20.14C55.1731 20.428 54.9931 20.572 54.7291 20.572H51.9571C51.7411 20.572 51.5491 20.5 51.3811 20.356C51.2371 20.212 51.1651 20.02 51.1651 19.78C51.1891 19.18 51.4771 18.496 52.0291 17.728C52.6051 16.96 53.4811 16.3 54.6571 15.748C55.8331 15.196 57.2731 14.92 58.9771 14.92C61.8091 14.92 63.8731 15.556 65.1691 16.828C66.4651 18.1 67.1131 19.768 67.1131 21.832V33.136C67.1131 33.376 67.0291 33.58 66.8611 33.748C66.7171 33.916 66.5131 34 66.2491 34H63.3331C63.0931 34 62.8891 33.916 62.7211 33.748C62.5531 33.58 62.4691 33.376 62.4691 33.136V31.732C61.9411 32.5 61.1851 33.136 60.2011 33.64C59.2411 34.12 58.0411 34.36 56.6011 34.36ZM57.8251 30.94C59.1451 30.94 60.2251 30.508 61.0651 29.644C61.9051 28.78 62.3251 27.52 62.3251 25.864V25.108L58.7251 25.684C57.3331 25.9 56.2771 26.248 55.5571 26.728C54.8611 27.208 54.5131 27.796 54.5131 28.492C54.5131 29.26 54.8371 29.86 55.4851 30.292C56.1331 30.724 56.9131 30.94 57.8251 30.94ZM72.6315 34C72.3915 34 72.1875 33.916 72.0195 33.748C71.8515 33.58 71.7675 33.376 71.7675 33.136V9.304C71.7675 9.04 71.8515 8.836 72.0195 8.692C72.1875 8.524 72.3915 8.44 72.6315 8.44H75.6195C75.8835 8.44 76.0875 8.524 76.2315 8.692C76.3995 8.836 76.4835 9.04 76.4835 9.304V33.136C76.4835 33.376 76.3995 33.58 76.2315 33.748C76.0875 33.916 75.8835 34 75.6195 34H72.6315ZM81.9788 12.184C81.7388 12.184 81.5348 12.1 81.3668 11.932C81.1988 11.764 81.1148 11.56 81.1148 11.32V8.728C81.1148 8.488 81.1988 8.284 81.3668 8.116C81.5348 7.948 81.7388 7.864 81.9788 7.864H85.2548C85.4948 7.864 85.6988 7.948 85.8668 8.116C86.0588 8.284 86.1548 8.488 86.1548 8.728V11.32C86.1548 11.56 86.0708 11.764 85.9028 11.932C85.7348 12.1 85.5188 12.184 85.2548 12.184H81.9788ZM82.1228 34C81.8828 34 81.6788 33.916 81.5108 33.748C81.3428 33.58 81.2588 33.376 81.2588 33.136V16.144C81.2588 15.904 81.3428 15.7 81.5108 15.532C81.6788 15.364 81.8828 15.28 82.1228 15.28H85.1108C85.3748 15.28 85.5788 15.364 85.7228 15.532C85.8908 15.676 85.9748 15.88 85.9748 16.144V33.136C85.9748 33.376 85.8908 33.58 85.7228 33.748C85.5788 33.916 85.3748 34 85.1108 34H82.1228ZM90.679 34C90.439 34 90.235 33.916 90.067 33.748C89.899 33.58 89.815 33.376 89.815 33.136V31.084C89.815 30.748 89.983 30.364 90.319 29.932L99.535 19.024H90.967C90.727 19.024 90.523 18.94 90.355 18.772C90.187 18.604 90.103 18.4 90.103 18.16V16.144C90.103 15.904 90.187 15.7 90.355 15.532C90.523 15.364 90.727 15.28 90.967 15.28H104.611C104.875 15.28 105.079 15.364 105.223 15.532C105.391 15.676 105.475 15.88 105.475 16.144V18.34C105.475 18.676 105.307 19.036 104.971 19.42L95.971 30.256H105.367C105.631 30.256 105.835 30.34 105.979 30.508C106.147 30.652 106.231 30.856 106.231 31.12V33.136C106.231 33.376 106.147 33.58 105.979 33.748C105.835 33.916 105.631 34 105.367 34H90.679ZM115.312 34.36C114.088 34.36 112.96 34.12 111.928 33.64C110.92 33.136 110.116 32.464 109.516 31.624C108.94 30.784 108.652 29.86 108.652 28.852C108.652 27.22 109.312 25.9 110.632 24.892C111.952 23.884 113.764 23.2 116.068 22.84L121 22.12V21.364C121 20.308 120.736 19.516 120.208 18.988C119.68 18.46 118.828 18.196 117.652 18.196C116.86 18.196 116.212 18.352 115.708 18.664C115.228 18.952 114.844 19.24 114.556 19.528C114.268 19.84 114.076 20.044 113.98 20.14C113.884 20.428 113.704 20.572 113.44 20.572H110.668C110.452 20.572 110.26 20.5 110.092 20.356C109.948 20.212 109.876 20.02 109.876 19.78C109.9 19.18 110.188 18.496 110.74 17.728C111.316 16.96 112.192 16.3 113.368 15.748C114.544 15.196 115.984 14.92 117.688 14.92C120.52 14.92 122.584 15.556 123.88 16.828C125.176 18.1 125.824 19.768 125.824 21.832V33.136C125.824 33.376 125.74 33.58 125.572 33.748C125.428 33.916 125.224 34 124.96 34H122.044C121.804 34 121.6 33.916 121.432 33.748C121.264 33.58 121.18 33.376 121.18 33.136V31.732C120.652 32.5 119.896 33.136 118.912 33.64C117.952 34.12 116.752 34.36 115.312 34.36ZM116.536 30.94C117.856 30.94 118.936 30.508 119.776 29.644C120.616 28.78 121.036 27.52 121.036 25.864V25.108L117.436 25.684C116.044 25.9 114.988 26.248 114.268 26.728C113.572 27.208 113.224 27.796 113.224 28.492C113.224 29.26 113.548 29.86 114.196 30.292C114.844 30.724 115.624 30.94 116.536 30.94ZM117.58 12.76C115.948 12.76 114.724 12.316 113.908 11.428C113.116 10.516 112.72 9.376 112.72 8.008C112.72 7.816 112.78 7.66 112.9 7.54C113.02 7.396 113.188 7.324 113.404 7.324H115.096C115.312 7.324 115.48 7.396 115.6 7.54C115.72 7.66 115.78 7.816 115.78 8.008C115.78 8.656 115.912 9.184 116.176 9.592C116.464 10 116.932 10.204 117.58 10.204C118.78 10.204 119.38 9.472 119.38 8.008C119.38 7.816 119.44 7.66 119.56 7.54C119.68 7.396 119.848 7.324 120.064 7.324H121.756C121.972 7.324 122.14 7.396 122.26 7.54C122.38 7.66 122.44 7.816 122.44 8.008C122.44 9.376 122.032 10.516 121.216 11.428C120.424 12.316 119.212 12.76 117.58 12.76ZM131.306 34C131.066 34 130.862 33.916 130.694 33.748C130.526 33.58 130.442 33.376 130.442 33.136V16.18C130.442 15.94 130.526 15.736 130.694 15.568C130.862 15.376 131.066 15.28 131.306 15.28H134.222C134.486 15.28 134.702 15.364 134.87 15.532C135.038 15.7 135.122 15.916 135.122 16.18V17.656C135.698 16.888 136.418 16.3 137.282 15.892C138.17 15.484 139.178 15.28 140.306 15.28H141.782C142.046 15.28 142.25 15.364 142.394 15.532C142.562 15.676 142.646 15.88 142.646 16.144V18.736C142.646 18.976 142.562 19.18 142.394 19.348C142.25 19.516 142.046 19.6 141.782 19.6H138.974C137.846 19.6 136.958 19.924 136.31 20.572C135.662 21.22 135.338 22.108 135.338 23.236V33.136C135.338 33.376 135.254 33.58 135.086 33.748C134.918 33.916 134.702 34 134.438 34H131.306ZM146.174 12.184C145.934 12.184 145.73 12.1 145.562 11.932C145.394 11.764 145.31 11.56 145.31 11.32V8.728C145.31 8.488 145.394 8.284 145.562 8.116C145.73 7.948 145.934 7.864 146.174 7.864H149.45C149.69 7.864 149.894 7.948 150.062 8.116C150.254 8.284 150.35 8.488 150.35 8.728V11.32C150.35 11.56 150.266 11.764 150.098 11.932C149.93 12.1 149.714 12.184 149.45 12.184H146.174ZM146.318 34C146.078 34 145.874 33.916 145.706 33.748C145.538 33.58 145.454 33.376 145.454 33.136V16.144C145.454 15.904 145.538 15.7 145.706 15.532C145.874 15.364 146.078 15.28 146.318 15.28H149.306C149.57 15.28 149.774 15.364 149.918 15.532C150.086 15.676 150.17 15.88 150.17 16.144V33.136C150.17 33.376 150.086 33.58 149.918 33.748C149.774 33.916 149.57 34 149.306 34H146.318ZM170.265 34.36C168.465 34.36 166.953 34.096 165.729 33.568C164.505 33.016 163.593 32.38 162.993 31.66C162.417 30.916 162.129 30.28 162.129 29.752C162.129 29.512 162.213 29.32 162.381 29.176C162.549 29.032 162.741 28.96 162.957 28.96H165.801C166.017 28.96 166.197 29.044 166.341 29.212C166.437 29.284 166.689 29.5 167.097 29.86C167.505 30.244 167.985 30.544 168.537 30.76C169.089 30.976 169.701 31.084 170.373 31.084C171.333 31.084 172.125 30.892 172.749 30.508C173.373 30.124 173.685 29.596 173.685 28.924C173.685 28.42 173.541 28.012 173.253 27.7C172.989 27.388 172.497 27.112 171.777 26.872C171.057 26.608 169.989 26.332 168.573 26.044C166.533 25.612 165.021 24.952 164.037 24.064C163.077 23.176 162.597 22 162.597 20.536C162.597 19.576 162.885 18.676 163.461 17.836C164.037 16.972 164.889 16.276 166.017 15.748C167.169 15.196 168.537 14.92 170.121 14.92C171.729 14.92 173.121 15.184 174.297 15.712C175.473 16.216 176.361 16.828 176.961 17.548C177.585 18.244 177.897 18.868 177.897 19.42C177.897 19.636 177.813 19.828 177.645 19.996C177.501 20.14 177.321 20.212 177.105 20.212H174.441C174.249 20.212 174.045 20.128 173.829 19.96C173.661 19.84 173.397 19.612 173.037 19.276C172.677 18.94 172.257 18.676 171.777 18.484C171.297 18.292 170.733 18.196 170.085 18.196C169.197 18.196 168.501 18.388 167.997 18.772C167.517 19.156 167.277 19.66 167.277 20.284C167.277 20.74 167.397 21.112 167.637 21.4C167.877 21.688 168.345 21.964 169.041 22.228C169.737 22.492 170.781 22.756 172.173 23.02C174.477 23.476 176.121 24.184 177.105 25.144C178.113 26.104 178.617 27.28 178.617 28.672C178.617 30.352 177.885 31.72 176.421 32.776C174.957 33.832 172.905 34.36 170.265 34.36ZM167.817 42.136C167.601 42.136 167.433 42.064 167.313 41.92C167.193 41.776 167.145 41.596 167.169 41.38L167.853 36.952C167.901 36.616 168.021 36.34 168.213 36.124C168.405 35.908 168.669 35.8 169.005 35.8H172.029C172.197 35.8 172.341 35.86 172.461 35.98C172.605 36.124 172.677 36.28 172.677 36.448C172.677 36.616 172.641 36.784 172.569 36.952L170.913 41.236C170.793 41.524 170.637 41.74 170.445 41.884C170.277 42.052 170.037 42.136 169.725 42.136H167.817ZM183.053 12.184C182.813 12.184 182.609 12.1 182.441 11.932C182.273 11.764 182.189 11.56 182.189 11.32V8.728C182.189 8.488 182.273 8.284 182.441 8.116C182.609 7.948 182.813 7.864 183.053 7.864H186.329C186.569 7.864 186.773 7.948 186.941 8.116C187.133 8.284 187.229 8.488 187.229 8.728V11.32C187.229 11.56 187.145 11.764 186.977 11.932C186.809 12.1 186.593 12.184 186.329 12.184H183.053ZM183.197 34C182.957 34 182.753 33.916 182.585 33.748C182.417 33.58 182.333 33.376 182.333 33.136V16.144C182.333 15.904 182.417 15.7 182.585 15.532C182.753 15.364 182.957 15.28 183.197 15.28H186.185C186.449 15.28 186.653 15.364 186.797 15.532C186.965 15.676 187.049 15.88 187.049 16.144V33.136C187.049 33.376 186.965 33.58 186.797 33.748C186.653 33.916 186.449 34 186.185 34H183.197ZM208.152 34.36C205.512 34.36 203.4 33.628 201.816 32.164C200.256 30.7 199.428 28.672 199.332 26.08L199.296 24.64L199.332 23.2C199.428 20.608 200.256 18.58 201.816 17.116C203.4 15.652 205.512 14.92 208.152 14.92C210.024 14.92 211.608 15.256 212.904 15.928C214.224 16.6 215.196 17.428 215.82 18.412C216.468 19.372 216.816 20.284 216.864 21.148C216.888 21.388 216.804 21.592 216.612 21.76C216.444 21.928 216.24 22.012 216 22.012H212.832C212.592 22.012 212.4 21.964 212.256 21.868C212.136 21.748 212.016 21.556 211.896 21.292C211.536 20.356 211.056 19.684 210.456 19.276C209.88 18.868 209.136 18.664 208.224 18.664C207 18.664 206.04 19.06 205.344 19.852C204.648 20.62 204.276 21.796 204.228 23.38L204.192 24.712L204.228 25.9C204.324 29.044 205.656 30.616 208.224 30.616C209.16 30.616 209.916 30.412 210.492 30.004C211.068 29.596 211.536 28.924 211.896 27.988C212.016 27.724 212.136 27.544 212.256 27.448C212.4 27.328 212.592 27.268 212.832 27.268H216C216.24 27.268 216.444 27.352 216.612 27.52C216.804 27.688 216.888 27.892 216.864 28.132C216.816 28.972 216.48 29.872 215.856 30.832C215.232 31.792 214.272 32.62 212.976 33.316C211.68 34.012 210.072 34.36 208.152 34.36ZM226.054 34.36C224.83 34.36 223.702 34.12 222.67 33.64C221.662 33.136 220.858 32.464 220.258 31.624C219.682 30.784 219.394 29.86 219.394 28.852C219.394 27.22 220.054 25.9 221.374 24.892C222.694 23.884 224.506 23.2 226.81 22.84L231.742 22.12V21.364C231.742 20.308 231.478 19.516 230.95 18.988C230.422 18.46 229.57 18.196 228.394 18.196C227.602 18.196 226.954 18.352 226.45 18.664C225.97 18.952 225.586 19.24 225.298 19.528C225.01 19.84 224.818 20.044 224.722 20.14C224.626 20.428 224.446 20.572 224.182 20.572H221.41C221.194 20.572 221.002 20.5 220.834 20.356C220.69 20.212 220.618 20.02 220.618 19.78C220.642 19.18 220.93 18.496 221.482 17.728C222.058 16.96 222.934 16.3 224.11 15.748C225.286 15.196 226.726 14.92 228.43 14.92C231.262 14.92 233.326 15.556 234.622 16.828C235.918 18.1 236.566 19.768 236.566 21.832V33.136C236.566 33.376 236.482 33.58 236.314 33.748C236.17 33.916 235.966 34 235.702 34H232.786C232.546 34 232.342 33.916 232.174 33.748C232.006 33.58 231.922 33.376 231.922 33.136V31.732C231.394 32.5 230.638 33.136 229.654 33.64C228.694 34.12 227.494 34.36 226.054 34.36ZM227.278 30.94C228.598 30.94 229.678 30.508 230.518 29.644C231.358 28.78 231.778 27.52 231.778 25.864V25.108L228.178 25.684C226.786 25.9 225.73 26.248 225.01 26.728C224.314 27.208 223.966 27.796 223.966 28.492C223.966 29.26 224.29 29.86 224.938 30.292C225.586 30.724 226.366 30.94 227.278 30.94ZM242.049 34C241.809 34 241.605 33.916 241.437 33.748C241.269 33.58 241.185 33.376 241.185 33.136V16.18C241.185 15.94 241.269 15.736 241.437 15.568C241.605 15.376 241.809 15.28 242.049 15.28H244.965C245.229 15.28 245.445 15.364 245.613 15.532C245.781 15.7 245.865 15.916 245.865 16.18V17.656C246.441 16.888 247.161 16.3 248.025 15.892C248.913 15.484 249.921 15.28 251.049 15.28H252.525C252.789 15.28 252.993 15.364 253.137 15.532C253.305 15.676 253.389 15.88 253.389 16.144V18.736C253.389 18.976 253.305 19.18 253.137 19.348C252.993 19.516 252.789 19.6 252.525 19.6H249.717C248.589 19.6 247.701 19.924 247.053 20.572C246.405 21.22 246.081 22.108 246.081 23.236V33.136C246.081 33.376 245.997 33.58 245.829 33.748C245.661 33.916 245.445 34 245.181 34H242.049ZM261.351 34.36C260.127 34.36 258.999 34.12 257.967 33.64C256.959 33.136 256.155 32.464 255.555 31.624C254.979 30.784 254.691 29.86 254.691 28.852C254.691 27.22 255.351 25.9 256.671 24.892C257.991 23.884 259.803 23.2 262.107 22.84L267.039 22.12V21.364C267.039 20.308 266.775 19.516 266.247 18.988C265.719 18.46 264.867 18.196 263.691 18.196C262.899 18.196 262.251 18.352 261.747 18.664C261.267 18.952 260.883 19.24 260.595 19.528C260.307 19.84 260.115 20.044 260.019 20.14C259.923 20.428 259.743 20.572 259.479 20.572H256.707C256.491 20.572 256.299 20.5 256.131 20.356C255.987 20.212 255.915 20.02 255.915 19.78C255.939 19.18 256.227 18.496 256.779 17.728C257.355 16.96 258.231 16.3 259.407 15.748C260.583 15.196 262.023 14.92 263.727 14.92C266.559 14.92 268.623 15.556 269.919 16.828C271.215 18.1 271.863 19.768 271.863 21.832V33.136C271.863 33.376 271.779 33.58 271.611 33.748C271.467 33.916 271.263 34 270.999 34H268.083C267.843 34 267.639 33.916 267.471 33.748C267.303 33.58 267.219 33.376 267.219 33.136V31.732C266.691 32.5 265.935 33.136 264.951 33.64C263.991 34.12 262.791 34.36 261.351 34.36ZM262.575 30.94C263.895 30.94 264.975 30.508 265.815 29.644C266.655 28.78 267.075 27.52 267.075 25.864V25.108L263.475 25.684C262.083 25.9 261.027 26.248 260.307 26.728C259.611 27.208 259.263 27.796 259.263 28.492C259.263 29.26 259.587 29.86 260.235 30.292C260.883 30.724 261.663 30.94 262.575 30.94ZM284.581 34.36C281.941 34.36 279.829 33.628 278.245 32.164C276.685 30.7 275.857 28.672 275.761 26.08L275.725 24.64L275.761 23.2C275.857 20.608 276.685 18.58 278.245 17.116C279.829 15.652 281.941 14.92 284.581 14.92C286.453 14.92 288.037 15.256 289.333 15.928C290.653 16.6 291.625 17.428 292.249 18.412C292.897 19.372 293.245 20.284 293.293 21.148C293.317 21.388 293.233 21.592 293.041 21.76C292.873 21.928 292.669 22.012 292.429 22.012H289.261C289.021 22.012 288.829 21.964 288.685 21.868C288.565 21.748 288.445 21.556 288.325 21.292C287.965 20.356 287.485 19.684 286.885 19.276C286.309 18.868 285.565 18.664 284.653 18.664C283.429 18.664 282.469 19.06 281.773 19.852C281.077 20.62 280.705 21.796 280.657 23.38L280.621 24.712L280.657 25.9C280.753 29.044 282.085 30.616 284.653 30.616C285.589 30.616 286.345 30.412 286.921 30.004C287.497 29.596 287.965 28.924 288.325 27.988C288.445 27.724 288.565 27.544 288.685 27.448C288.829 27.328 289.021 27.268 289.261 27.268H292.429C292.669 27.268 292.873 27.352 293.041 27.52C293.233 27.688 293.317 27.892 293.293 28.132C293.245 28.972 292.909 29.872 292.285 30.832C291.661 31.792 290.701 32.62 289.405 33.316C288.109 34.012 286.501 34.36 284.581 34.36ZM305.508 34C303.324 34 301.68 33.436 300.576 32.308C299.496 31.156 298.956 29.476 298.956 27.268V19.096H296.112C295.872 19.096 295.668 19.012 295.5 18.844C295.332 18.652 295.248 18.436 295.248 18.196V16.144C295.248 15.904 295.332 15.7 295.5 15.532C295.668 15.364 295.872 15.28 296.112 15.28H298.956V9.304C298.956 9.04 299.04 8.836 299.208 8.692C299.376 8.524 299.58 8.44 299.82 8.44H302.736C303 8.44 303.204 8.524 303.348 8.692C303.516 8.836 303.6 9.04 303.6 9.304V15.28H308.1C308.364 15.28 308.568 15.364 308.712 15.532C308.88 15.676 308.964 15.88 308.964 16.144V18.196C308.964 18.46 308.88 18.676 308.712 18.844C308.544 19.012 308.34 19.096 308.1 19.096H303.6V26.908C303.6 27.94 303.78 28.72 304.14 29.248C304.5 29.776 305.1 30.04 305.94 30.04H308.424C308.664 30.04 308.868 30.124 309.036 30.292C309.204 30.46 309.288 30.664 309.288 30.904V33.136C309.288 33.376 309.204 33.58 309.036 33.748C308.892 33.916 308.688 34 308.424 34H305.508ZM320.545 34.36C317.881 34.36 315.757 33.592 314.173 32.056C312.613 30.496 311.785 28.312 311.689 25.504L311.653 24.604L311.689 23.704C311.809 20.968 312.649 18.82 314.209 17.26C315.793 15.7 317.905 14.92 320.545 14.92C323.377 14.92 325.561 15.784 327.097 17.512C328.657 19.24 329.437 21.544 329.437 24.424V25.18C329.437 25.42 329.353 25.624 329.185 25.792C329.017 25.96 328.801 26.044 328.537 26.044H316.585V26.332C316.633 27.652 316.993 28.768 317.665 29.68C318.361 30.568 319.309 31.012 320.509 31.012C321.925 31.012 323.065 30.46 323.929 29.356C324.145 29.092 324.313 28.924 324.433 28.852C324.577 28.78 324.781 28.744 325.045 28.744H328.141C328.357 28.744 328.537 28.816 328.681 28.96C328.849 29.08 328.933 29.236 328.933 29.428C328.933 30.004 328.585 30.688 327.889 31.48C327.217 32.248 326.245 32.92 324.973 33.496C323.701 34.072 322.225 34.36 320.545 34.36ZM324.541 23.02V22.912C324.541 21.496 324.181 20.356 323.461 19.492C322.765 18.628 321.793 18.196 320.545 18.196C319.297 18.196 318.325 18.628 317.629 19.492C316.933 20.356 316.585 21.496 316.585 22.912V23.02H324.541ZM334.123 34C333.883 34 333.679 33.916 333.511 33.748C333.343 33.58 333.259 33.376 333.259 33.136V16.18C333.259 15.94 333.343 15.736 333.511 15.568C333.679 15.376 333.883 15.28 334.123 15.28H337.039C337.303 15.28 337.519 15.364 337.687 15.532C337.855 15.7 337.939 15.916 337.939 16.18V17.656C338.515 16.888 339.235 16.3 340.099 15.892C340.987 15.484 341.995 15.28 343.123 15.28H344.599C344.863 15.28 345.067 15.364 345.211 15.532C345.379 15.676 345.463 15.88 345.463 16.144V18.736C345.463 18.976 345.379 19.18 345.211 19.348C345.067 19.516 344.863 19.6 344.599 19.6H341.791C340.663 19.6 339.775 19.924 339.127 20.572C338.479 21.22 338.155 22.108 338.155 23.236V33.136C338.155 33.376 338.071 33.58 337.903 33.748C337.735 33.916 337.519 34 337.255 34H334.123ZM348.991 12.184C348.751 12.184 348.547 12.1 348.379 11.932C348.211 11.764 348.127 11.56 348.127 11.32V8.728C348.127 8.488 348.211 8.284 348.379 8.116C348.547 7.948 348.751 7.864 348.991 7.864H352.267C352.507 7.864 352.711 7.948 352.879 8.116C353.071 8.284 353.167 8.488 353.167 8.728V11.32C353.167 11.56 353.083 11.764 352.915 11.932C352.747 12.1 352.531 12.184 352.267 12.184H348.991ZM349.135 34C348.895 34 348.691 33.916 348.523 33.748C348.355 33.58 348.271 33.376 348.271 33.136V16.144C348.271 15.904 348.355 15.7 348.523 15.532C348.691 15.364 348.895 15.28 349.135 15.28H352.123C352.387 15.28 352.591 15.364 352.735 15.532C352.903 15.676 352.987 15.88 352.987 16.144V33.136C352.987 33.376 352.903 33.58 352.735 33.748C352.591 33.916 352.387 34 352.123 34H349.135ZM364.855 34.36C363.055 34.36 361.543 34.096 360.319 33.568C359.095 33.016 358.183 32.38 357.583 31.66C357.007 30.916 356.719 30.28 356.719 29.752C356.719 29.512 356.803 29.32 356.971 29.176C357.139 29.032 357.331 28.96 357.547 28.96H360.391C360.607 28.96 360.787 29.044 360.931 29.212C361.027 29.284 361.279 29.5 361.687 29.86C362.095 30.244 362.575 30.544 363.127 30.76C363.679 30.976 364.291 31.084 364.963 31.084C365.923 31.084 366.715 30.892 367.339 30.508C367.963 30.124 368.275 29.596 368.275 28.924C368.275 28.42 368.131 28.012 367.843 27.7C367.579 27.388 367.087 27.112 366.367 26.872C365.647 26.608 364.579 26.332 363.163 26.044C361.123 25.612 359.611 24.952 358.627 24.064C357.667 23.176 357.187 22 357.187 20.536C357.187 19.576 357.475 18.676 358.051 17.836C358.627 16.972 359.479 16.276 360.607 15.748C361.759 15.196 363.127 14.92 364.711 14.92C366.319 14.92 367.711 15.184 368.887 15.712C370.063 16.216 370.951 16.828 371.551 17.548C372.175 18.244 372.487 18.868 372.487 19.42C372.487 19.636 372.403 19.828 372.235 19.996C372.091 20.14 371.911 20.212 371.695 20.212H369.031C368.839 20.212 368.635 20.128 368.419 19.96C368.251 19.84 367.987 19.612 367.627 19.276C367.267 18.94 366.847 18.676 366.367 18.484C365.887 18.292 365.323 18.196 364.675 18.196C363.787 18.196 363.091 18.388 362.587 18.772C362.107 19.156 361.867 19.66 361.867 20.284C361.867 20.74 361.987 21.112 362.227 21.4C362.467 21.688 362.935 21.964 363.631 22.228C364.327 22.492 365.371 22.756 366.763 23.02C369.067 23.476 370.711 24.184 371.695 25.144C372.703 26.104 373.207 27.28 373.207 28.672C373.207 30.352 372.475 31.72 371.011 32.776C369.547 33.832 367.495 34.36 364.855 34.36ZM385.313 34C383.129 34 381.485 33.436 380.381 32.308C379.301 31.156 378.761 29.476 378.761 27.268V19.096H375.917C375.677 19.096 375.473 19.012 375.305 18.844C375.137 18.652 375.053 18.436 375.053 18.196V16.144C375.053 15.904 375.137 15.7 375.305 15.532C375.473 15.364 375.677 15.28 375.917 15.28H378.761V9.304C378.761 9.04 378.845 8.836 379.013 8.692C379.181 8.524 379.385 8.44 379.625 8.44H382.541C382.805 8.44 383.009 8.524 383.153 8.692C383.321 8.836 383.405 9.04 383.405 9.304V15.28H387.905C388.169 15.28 388.373 15.364 388.517 15.532C388.685 15.676 388.769 15.88 388.769 16.144V18.196C388.769 18.46 388.685 18.676 388.517 18.844C388.349 19.012 388.145 19.096 387.905 19.096H383.405V26.908C383.405 27.94 383.585 28.72 383.945 29.248C384.305 29.776 384.905 30.04 385.745 30.04H388.229C388.469 30.04 388.673 30.124 388.841 30.292C389.009 30.46 389.093 30.664 389.093 30.904V33.136C389.093 33.376 389.009 33.58 388.841 33.748C388.697 33.916 388.493 34 388.229 34H385.313ZM393.006 12.184C392.766 12.184 392.562 12.1 392.394 11.932C392.226 11.764 392.142 11.56 392.142 11.32V8.728C392.142 8.488 392.226 8.284 392.394 8.116C392.562 7.948 392.766 7.864 393.006 7.864H396.282C396.522 7.864 396.726 7.948 396.894 8.116C397.086 8.284 397.182 8.488 397.182 8.728V11.32C397.182 11.56 397.098 11.764 396.93 11.932C396.762 12.1 396.546 12.184 396.282 12.184H393.006ZM393.15 34C392.91 34 392.706 33.916 392.538 33.748C392.37 33.58 392.286 33.376 392.286 33.136V16.144C392.286 15.904 392.37 15.7 392.538 15.532C392.706 15.364 392.91 15.28 393.15 15.28H396.138C396.402 15.28 396.606 15.364 396.75 15.532C396.918 15.676 397.002 15.88 397.002 16.144V33.136C397.002 33.376 396.918 33.58 396.75 33.748C396.606 33.916 396.402 34 396.138 34H393.15ZM409.878 34.36C407.238 34.36 405.126 33.628 403.542 32.164C401.982 30.7 401.154 28.672 401.058 26.08L401.022 24.64L401.058 23.2C401.154 20.608 401.982 18.58 403.542 17.116C405.126 15.652 407.238 14.92 409.878 14.92C411.75 14.92 413.334 15.256 414.63 15.928C415.95 16.6 416.922 17.428 417.546 18.412C418.194 19.372 418.542 20.284 418.59 21.148C418.614 21.388 418.53 21.592 418.338 21.76C418.17 21.928 417.966 22.012 417.726 22.012H414.558C414.318 22.012 414.126 21.964 413.982 21.868C413.862 21.748 413.742 21.556 413.622 21.292C413.262 20.356 412.782 19.684 412.182 19.276C411.606 18.868 410.862 18.664 409.95 18.664C408.726 18.664 407.766 19.06 407.07 19.852C406.374 20.62 406.002 21.796 405.954 23.38L405.918 24.712L405.954 25.9C406.05 29.044 407.382 30.616 409.95 30.616C410.886 30.616 411.642 30.412 412.218 30.004C412.794 29.596 413.262 28.924 413.622 27.988C413.742 27.724 413.862 27.544 413.982 27.448C414.126 27.328 414.318 27.268 414.558 27.268H417.726C417.966 27.268 418.17 27.352 418.338 27.52C418.53 27.688 418.614 27.892 418.59 28.132C418.542 28.972 418.206 29.872 417.582 30.832C416.958 31.792 415.998 32.62 414.702 33.316C413.406 34.012 411.798 34.36 409.878 34.36ZM423.065 12.184C422.825 12.184 422.621 12.1 422.453 11.932C422.285 11.764 422.201 11.56 422.201 11.32V8.728C422.201 8.488 422.285 8.284 422.453 8.116C422.621 7.948 422.825 7.864 423.065 7.864H426.341C426.581 7.864 426.785 7.948 426.953 8.116C427.145 8.284 427.241 8.488 427.241 8.728V11.32C427.241 11.56 427.157 11.764 426.989 11.932C426.821 12.1 426.605 12.184 426.341 12.184H423.065ZM423.209 34C422.969 34 422.765 33.916 422.597 33.748C422.429 33.58 422.345 33.376 422.345 33.136V16.144C422.345 15.904 422.429 15.7 422.597 15.532C422.765 15.364 422.969 15.28 423.209 15.28H426.197C426.461 15.28 426.665 15.364 426.809 15.532C426.977 15.676 427.061 15.88 427.061 16.144V33.136C427.061 33.376 426.977 33.58 426.809 33.748C426.665 33.916 426.461 34 426.197 34H423.209Z" fill="#131313"/>
</svg>
