<svg width="504" height="43" viewBox="0 0 504 43" fill="none" xmlns="http://www.w3.org/2000/svg">
<circle r="11.5" transform="matrix(1 0 0 -1 12 12)" stroke="#E41222"/>
<path d="M5.8 39.004C5.536 39.004 5.32 38.92 5.152 38.752C5.008 38.608 4.936 38.404 4.936 38.14V30.364C4.936 30.1 5.02 29.896 5.188 29.752C5.356 29.584 5.56 29.5 5.8 29.5H6.52C7.648 29.5 8.476 28.468 9.004 26.404C9.532 24.316 9.796 21.244 9.796 17.188V9.664C9.796 9.4 9.88 9.196 10.048 9.052C10.216 8.884 10.42 8.8 10.66 8.8H26.104C26.368 8.8 26.584 8.884 26.752 9.052C26.92 9.22 27.004 9.436 27.004 9.7V29.5H28.732C28.996 29.5 29.212 29.584 29.38 29.752C29.548 29.92 29.632 30.124 29.632 30.364V38.14C29.632 38.38 29.548 38.584 29.38 38.752C29.212 38.92 28.996 39.004 28.732 39.004H25.492C25.252 39.004 25.048 38.92 24.88 38.752C24.712 38.608 24.628 38.404 24.628 38.14V34H9.94V38.14C9.94 38.404 9.856 38.608 9.688 38.752C9.52 38.92 9.304 39.004 9.04 39.004H5.8ZM22 29.5V13.3H14.62V17.836C14.62 20.788 14.452 23.212 14.116 25.108C13.804 27.004 13.312 28.468 12.64 29.5H22ZM41.4802 34.36C38.6722 34.36 36.5002 33.64 34.9642 32.2C33.4282 30.736 32.6002 28.744 32.4802 26.224L32.4442 24.64L32.4802 23.056C32.6002 20.56 33.4402 18.58 35.0002 17.116C36.5602 15.652 38.7202 14.92 41.4802 14.92C44.2402 14.92 46.4002 15.652 47.9602 17.116C49.5202 18.58 50.3602 20.56 50.4802 23.056C50.5042 23.344 50.5162 23.872 50.5162 24.64C50.5162 25.408 50.5042 25.936 50.4802 26.224C50.3602 28.744 49.5322 30.736 47.9962 32.2C46.4602 33.64 44.2882 34.36 41.4802 34.36ZM41.4802 30.796C42.7522 30.796 43.7362 30.4 44.4322 29.608C45.1282 28.792 45.5122 27.604 45.5842 26.044C45.6082 25.804 45.6202 25.336 45.6202 24.64C45.6202 23.944 45.6082 23.476 45.5842 23.236C45.5122 21.676 45.1282 20.5 44.4322 19.708C43.7362 18.892 42.7522 18.484 41.4802 18.484C40.2082 18.484 39.2242 18.892 38.5282 19.708C37.8322 20.5 37.4482 21.676 37.3762 23.236L37.3402 24.64L37.3762 26.044C37.4482 27.604 37.8322 28.792 38.5282 29.608C39.2242 30.4 40.2082 30.796 41.4802 30.796ZM62.6049 34.36C59.9649 34.36 57.8529 33.628 56.2689 32.164C54.7089 30.7 53.8809 28.672 53.7849 26.08L53.7489 24.64L53.7849 23.2C53.8809 20.608 54.7089 18.58 56.2689 17.116C57.8529 15.652 59.9649 14.92 62.6049 14.92C64.4769 14.92 66.0609 15.256 67.3569 15.928C68.6769 16.6 69.6489 17.428 70.2729 18.412C70.9209 19.372 71.2689 20.284 71.3169 21.148C71.3409 21.388 71.2569 21.592 71.0649 21.76C70.8969 21.928 70.6929 22.012 70.4529 22.012H67.2849C67.0449 22.012 66.8529 21.964 66.7089 21.868C66.5889 21.748 66.4689 21.556 66.3489 21.292C65.9889 20.356 65.5089 19.684 64.9089 19.276C64.3329 18.868 63.5889 18.664 62.6769 18.664C61.4529 18.664 60.4929 19.06 59.7969 19.852C59.1009 20.62 58.7289 21.796 58.6809 23.38L58.6449 24.712L58.6809 25.9C58.7769 29.044 60.1089 30.616 62.6769 30.616C63.6129 30.616 64.3689 30.412 64.9449 30.004C65.5209 29.596 65.9889 28.924 66.3489 27.988C66.4689 27.724 66.5889 27.544 66.7089 27.448C66.8529 27.328 67.0449 27.268 67.2849 27.268H70.4529C70.6929 27.268 70.8969 27.352 71.0649 27.52C71.2569 27.688 71.3409 27.892 71.3169 28.132C71.2689 28.972 70.9329 29.872 70.3089 30.832C69.6849 31.792 68.7249 32.62 67.4289 33.316C66.1329 34.012 64.5249 34.36 62.6049 34.36ZM80.7953 34C80.5553 34 80.3513 33.916 80.1833 33.748C80.0153 33.58 79.9313 33.376 79.9313 33.136V19.096H74.0633C73.8233 19.096 73.6193 19.012 73.4513 18.844C73.2833 18.676 73.1993 18.46 73.1993 18.196V16.144C73.1993 15.88 73.2833 15.676 73.4513 15.532C73.6193 15.364 73.8233 15.28 74.0633 15.28H90.4073C90.6713 15.28 90.8873 15.364 91.0553 15.532C91.2233 15.7 91.3073 15.904 91.3073 16.144V18.196C91.3073 18.436 91.2233 18.652 91.0553 18.844C90.8873 19.012 90.6713 19.096 90.4073 19.096H84.5753V33.136C84.5753 33.376 84.4913 33.58 84.3233 33.748C84.1793 33.916 83.9753 34 83.7113 34H80.7953ZM111.225 15.28C111.441 15.28 111.633 15.364 111.801 15.532C111.969 15.676 112.053 15.856 112.053 16.072V33.136C112.053 33.376 111.969 33.58 111.801 33.748C111.633 33.916 111.429 34 111.189 34H108.201C107.961 34 107.757 33.916 107.589 33.748C107.421 33.58 107.337 33.376 107.337 33.136V21.58L98.6972 33.424C98.4812 33.808 98.1572 34 97.7252 34H94.9892C94.7732 34 94.5812 33.928 94.4132 33.784C94.2452 33.616 94.1612 33.412 94.1612 33.172V16.144C94.1612 15.904 94.2452 15.7 94.4132 15.532C94.5812 15.364 94.7852 15.28 95.0252 15.28H98.0132C98.2772 15.28 98.4812 15.364 98.6252 15.532C98.7932 15.676 98.8772 15.88 98.8772 16.144V27.736L107.517 15.856C107.781 15.472 108.105 15.28 108.489 15.28H111.225ZM144.131 32.884C144.227 33.004 144.275 33.16 144.275 33.352C144.275 33.544 144.203 33.7 144.059 33.82C143.939 33.94 143.759 34 143.519 34H139.919C139.487 34 139.151 33.82 138.911 33.46L134.195 26.368H131.963V33.136C131.963 33.376 131.879 33.58 131.711 33.748C131.567 33.916 131.363 34 131.099 34H128.183C127.943 34 127.739 33.916 127.571 33.748C127.403 33.58 127.319 33.376 127.319 33.136V26.368H125.087L120.371 33.46C120.083 33.82 119.747 34 119.363 34H115.727C115.511 34 115.331 33.94 115.187 33.82C115.043 33.7 114.971 33.544 114.971 33.352C114.971 33.208 115.031 33.052 115.151 32.884L121.091 24.28L115.907 16.396C115.811 16.276 115.763 16.12 115.763 15.928C115.763 15.736 115.823 15.58 115.943 15.46C116.087 15.34 116.279 15.28 116.519 15.28H119.723C119.963 15.28 120.155 15.328 120.299 15.424C120.443 15.52 120.587 15.664 120.731 15.856L125.051 22.588H127.319V16.144C127.319 15.88 127.403 15.676 127.571 15.532C127.739 15.364 127.943 15.28 128.183 15.28H131.099C131.363 15.28 131.567 15.364 131.711 15.532C131.879 15.676 131.963 15.88 131.963 16.144V22.588H134.159L138.551 15.856C138.791 15.472 139.115 15.28 139.523 15.28H142.763C142.979 15.28 143.159 15.34 143.303 15.46C143.447 15.58 143.519 15.736 143.519 15.928C143.519 16.072 143.459 16.228 143.339 16.396L138.155 24.28L144.131 32.884ZM155.487 34.36C152.823 34.36 150.699 33.592 149.115 32.056C147.555 30.496 146.727 28.312 146.631 25.504L146.595 24.604L146.631 23.704C146.751 20.968 147.591 18.82 149.151 17.26C150.735 15.7 152.847 14.92 155.487 14.92C158.319 14.92 160.503 15.784 162.039 17.512C163.599 19.24 164.379 21.544 164.379 24.424V25.18C164.379 25.42 164.295 25.624 164.127 25.792C163.959 25.96 163.743 26.044 163.479 26.044H151.527V26.332C151.575 27.652 151.935 28.768 152.607 29.68C153.303 30.568 154.251 31.012 155.451 31.012C156.867 31.012 158.007 30.46 158.871 29.356C159.087 29.092 159.255 28.924 159.375 28.852C159.519 28.78 159.723 28.744 159.987 28.744H163.083C163.299 28.744 163.479 28.816 163.623 28.96C163.791 29.08 163.875 29.236 163.875 29.428C163.875 30.004 163.527 30.688 162.831 31.48C162.159 32.248 161.187 32.92 159.915 33.496C158.643 34.072 157.167 34.36 155.487 34.36ZM159.483 23.02V22.912C159.483 21.496 159.123 20.356 158.403 19.492C157.707 18.628 156.735 18.196 155.487 18.196C154.239 18.196 153.267 18.628 152.571 19.492C151.875 20.356 151.527 21.496 151.527 22.912V23.02H159.483ZM169.064 34C168.824 34 168.62 33.916 168.452 33.748C168.284 33.58 168.2 33.376 168.2 33.136V16.144C168.2 15.904 168.284 15.7 168.452 15.532C168.62 15.364 168.824 15.28 169.064 15.28H172.052C172.316 15.28 172.52 15.364 172.664 15.532C172.832 15.676 172.916 15.88 172.916 16.144V22.588H181.052V16.144C181.052 15.88 181.136 15.676 181.304 15.532C181.472 15.364 181.676 15.28 181.916 15.28H184.904C185.168 15.28 185.372 15.364 185.516 15.532C185.684 15.676 185.768 15.88 185.768 16.144V33.136C185.768 33.376 185.684 33.58 185.516 33.748C185.372 33.916 185.168 34 184.904 34H181.916C181.676 34 181.472 33.916 181.304 33.748C181.136 33.58 181.052 33.376 181.052 33.136V26.368H172.916V33.136C172.916 33.376 172.832 33.58 172.664 33.748C172.52 33.916 172.316 34 172.052 34H169.064ZM207.694 15.28C207.91 15.28 208.102 15.364 208.27 15.532C208.438 15.676 208.522 15.856 208.522 16.072V33.136C208.522 33.376 208.438 33.58 208.27 33.748C208.102 33.916 207.898 34 207.658 34H204.67C204.43 34 204.226 33.916 204.058 33.748C203.89 33.58 203.806 33.376 203.806 33.136V21.58L195.166 33.424C194.95 33.808 194.626 34 194.194 34H191.458C191.242 34 191.05 33.928 190.882 33.784C190.714 33.616 190.63 33.412 190.63 33.172V16.144C190.63 15.904 190.714 15.7 190.882 15.532C191.05 15.364 191.254 15.28 191.494 15.28H194.482C194.746 15.28 194.95 15.364 195.094 15.532C195.262 15.676 195.346 15.88 195.346 16.144V27.736L203.986 15.856C204.25 15.472 204.574 15.28 204.958 15.28H207.694ZM228 15.28C228.264 15.28 228.468 15.364 228.612 15.532C228.78 15.676 228.864 15.88 228.864 16.144V33.136C228.864 33.376 228.78 33.58 228.612 33.748C228.468 33.916 228.264 34 228 34H224.94C224.7 34 224.496 33.916 224.328 33.748C224.16 33.58 224.076 33.376 224.076 33.136V27.628H220.872L217.308 33.46C217.092 33.82 216.792 34 216.408 34H213.42C213.204 34 213.024 33.928 212.88 33.784C212.736 33.64 212.664 33.472 212.664 33.28C212.664 33.064 212.736 32.872 212.88 32.704L216.66 26.764C215.532 26.284 214.68 25.588 214.104 24.676C213.528 23.74 213.24 22.636 213.24 21.364C213.24 19.348 213.864 17.836 215.112 16.828C216.384 15.796 218.232 15.28 220.656 15.28H228ZM224.148 18.7H220.764C219.636 18.7 218.808 18.904 218.28 19.312C217.776 19.72 217.524 20.404 217.524 21.364C217.524 22.252 217.776 22.948 218.28 23.452C218.784 23.956 219.54 24.208 220.548 24.208H224.148V18.7ZM259.022 15.28C259.238 15.28 259.43 15.364 259.598 15.532C259.766 15.676 259.85 15.856 259.85 16.072V33.136C259.85 33.376 259.766 33.58 259.598 33.748C259.43 33.916 259.226 34 258.986 34H255.998C255.758 34 255.554 33.916 255.386 33.748C255.218 33.58 255.134 33.376 255.134 33.136V21.58L246.494 33.424C246.278 33.808 245.954 34 245.522 34H242.786C242.57 34 242.378 33.928 242.21 33.784C242.042 33.616 241.958 33.412 241.958 33.172V16.144C241.958 15.904 242.042 15.7 242.21 15.532C242.378 15.364 242.582 15.28 242.822 15.28H245.81C246.074 15.28 246.278 15.364 246.422 15.532C246.59 15.676 246.674 15.88 246.674 16.144V27.736L255.314 15.856C255.578 15.472 255.902 15.28 256.286 15.28H259.022ZM280.894 34.36C278.086 34.36 275.914 33.64 274.378 32.2C272.842 30.736 272.014 28.744 271.894 26.224L271.858 24.64L271.894 23.056C272.014 20.56 272.854 18.58 274.414 17.116C275.974 15.652 278.134 14.92 280.894 14.92C283.654 14.92 285.814 15.652 287.374 17.116C288.934 18.58 289.774 20.56 289.894 23.056C289.918 23.344 289.93 23.872 289.93 24.64C289.93 25.408 289.918 25.936 289.894 26.224C289.774 28.744 288.946 30.736 287.41 32.2C285.874 33.64 283.702 34.36 280.894 34.36ZM280.894 30.796C282.166 30.796 283.15 30.4 283.846 29.608C284.542 28.792 284.926 27.604 284.998 26.044C285.022 25.804 285.034 25.336 285.034 24.64C285.034 23.944 285.022 23.476 284.998 23.236C284.926 21.676 284.542 20.5 283.846 19.708C283.15 18.892 282.166 18.484 280.894 18.484C279.622 18.484 278.638 18.892 277.942 19.708C277.246 20.5 276.862 21.676 276.79 23.236L276.754 24.64L276.79 26.044C276.862 27.604 277.246 28.792 277.942 29.608C278.638 30.4 279.622 30.796 280.894 30.796ZM302.019 34.36C299.379 34.36 297.267 33.628 295.683 32.164C294.123 30.7 293.295 28.672 293.199 26.08L293.163 24.64L293.199 23.2C293.295 20.608 294.123 18.58 295.683 17.116C297.267 15.652 299.379 14.92 302.019 14.92C303.891 14.92 305.475 15.256 306.771 15.928C308.091 16.6 309.063 17.428 309.687 18.412C310.335 19.372 310.683 20.284 310.731 21.148C310.755 21.388 310.671 21.592 310.479 21.76C310.311 21.928 310.107 22.012 309.867 22.012H306.699C306.459 22.012 306.267 21.964 306.123 21.868C306.003 21.748 305.883 21.556 305.763 21.292C305.403 20.356 304.923 19.684 304.323 19.276C303.747 18.868 303.003 18.664 302.091 18.664C300.867 18.664 299.907 19.06 299.211 19.852C298.515 20.62 298.143 21.796 298.095 23.38L298.059 24.712L298.095 25.9C298.191 29.044 299.523 30.616 302.091 30.616C303.027 30.616 303.783 30.412 304.359 30.004C304.935 29.596 305.403 28.924 305.763 27.988C305.883 27.724 306.003 27.544 306.123 27.448C306.267 27.328 306.459 27.268 306.699 27.268H309.867C310.107 27.268 310.311 27.352 310.479 27.52C310.671 27.688 310.755 27.892 310.731 28.132C310.683 28.972 310.347 29.872 309.723 30.832C309.099 31.792 308.139 32.62 306.843 33.316C305.547 34.012 303.939 34.36 302.019 34.36ZM322.765 34.36C319.957 34.36 317.785 33.64 316.249 32.2C314.713 30.736 313.885 28.744 313.765 26.224L313.729 24.64L313.765 23.056C313.885 20.56 314.725 18.58 316.285 17.116C317.845 15.652 320.005 14.92 322.765 14.92C325.525 14.92 327.685 15.652 329.245 17.116C330.805 18.58 331.645 20.56 331.765 23.056C331.789 23.344 331.801 23.872 331.801 24.64C331.801 25.408 331.789 25.936 331.765 26.224C331.645 28.744 330.817 30.736 329.281 32.2C327.745 33.64 325.573 34.36 322.765 34.36ZM322.765 30.796C324.037 30.796 325.021 30.4 325.717 29.608C326.413 28.792 326.797 27.604 326.869 26.044C326.893 25.804 326.905 25.336 326.905 24.64C326.905 23.944 326.893 23.476 326.869 23.236C326.797 21.676 326.413 20.5 325.717 19.708C325.021 18.892 324.037 18.484 322.765 18.484C321.493 18.484 320.509 18.892 319.813 19.708C319.117 20.5 318.733 21.676 318.661 23.236L318.625 24.64L318.661 26.044C318.733 27.604 319.117 28.792 319.813 29.608C320.509 30.4 321.493 30.796 322.765 30.796ZM353.25 24.208C353.274 24.472 353.286 24.88 353.286 25.432C353.286 25.96 353.274 26.344 353.25 26.584C353.13 28.984 352.302 30.88 350.766 32.272C349.254 33.664 347.082 34.36 344.25 34.36C341.274 34.36 339.054 33.592 337.59 32.056C336.15 30.496 335.37 28.204 335.25 25.18L335.214 23.02L335.25 20.86C335.322 17.452 335.85 14.896 336.834 13.192C337.818 11.464 339.246 10.216 341.118 9.448C342.99 8.656 346.014 7.756 350.19 6.748L350.37 6.712C350.562 6.712 350.742 6.784 350.91 6.928C351.078 7.048 351.174 7.216 351.198 7.432L351.666 9.808L351.702 10.024C351.702 10.216 351.642 10.384 351.522 10.528C351.402 10.648 351.246 10.732 351.054 10.78L349.902 11.032C347.046 11.68 344.994 12.232 343.746 12.688C342.522 13.12 341.586 13.792 340.938 14.704C340.29 15.616 339.918 16.984 339.822 18.808C340.398 18.088 341.154 17.512 342.09 17.08C343.05 16.648 344.058 16.432 345.114 16.432C347.634 16.432 349.59 17.128 350.982 18.52C352.374 19.912 353.13 21.808 353.25 24.208ZM348.354 26.404C348.378 26.236 348.39 25.924 348.39 25.468C348.39 24.964 348.378 24.604 348.354 24.388C348.306 22.9 347.946 21.76 347.274 20.968C346.602 20.152 345.69 19.744 344.538 19.744C343.218 19.744 342.174 20.152 341.406 20.968C340.638 21.76 340.23 22.9 340.182 24.388L340.146 25.468L340.182 26.404C340.23 27.916 340.602 29.068 341.298 29.86C341.994 30.652 342.978 31.048 344.25 31.048C345.522 31.048 346.506 30.664 347.202 29.896C347.922 29.104 348.306 27.94 348.354 26.404ZM365.335 34.36C362.671 34.36 360.547 33.592 358.963 32.056C357.403 30.496 356.575 28.312 356.479 25.504L356.443 24.604L356.479 23.704C356.599 20.968 357.439 18.82 358.999 17.26C360.583 15.7 362.695 14.92 365.335 14.92C368.167 14.92 370.351 15.784 371.887 17.512C373.447 19.24 374.227 21.544 374.227 24.424V25.18C374.227 25.42 374.143 25.624 373.975 25.792C373.807 25.96 373.591 26.044 373.327 26.044H361.375V26.332C361.423 27.652 361.783 28.768 362.455 29.68C363.151 30.568 364.099 31.012 365.299 31.012C366.715 31.012 367.855 30.46 368.719 29.356C368.935 29.092 369.103 28.924 369.223 28.852C369.367 28.78 369.571 28.744 369.835 28.744H372.931C373.147 28.744 373.327 28.816 373.471 28.96C373.639 29.08 373.723 29.236 373.723 29.428C373.723 30.004 373.375 30.688 372.679 31.48C372.007 32.248 371.035 32.92 369.763 33.496C368.491 34.072 367.015 34.36 365.335 34.36ZM369.331 23.02V22.912C369.331 21.496 368.971 20.356 368.251 19.492C367.555 18.628 366.583 18.196 365.335 18.196C364.087 18.196 363.115 18.628 362.419 19.492C361.723 20.356 361.375 21.496 361.375 22.912V23.02H369.331ZM378.912 34C378.672 34 378.468 33.916 378.3 33.748C378.132 33.58 378.048 33.376 378.048 33.136V16.144C378.048 15.904 378.132 15.7 378.3 15.532C378.468 15.364 378.672 15.28 378.912 15.28H381.9C382.164 15.28 382.368 15.364 382.512 15.532C382.68 15.676 382.764 15.88 382.764 16.144V22.588H390.9V16.144C390.9 15.88 390.984 15.676 391.152 15.532C391.32 15.364 391.524 15.28 391.764 15.28H394.752C395.016 15.28 395.22 15.364 395.364 15.532C395.532 15.676 395.616 15.88 395.616 16.144V33.136C395.616 33.376 395.532 33.58 395.364 33.748C395.22 33.916 395.016 34 394.752 34H391.764C391.524 34 391.32 33.916 391.152 33.748C390.984 33.58 390.9 33.376 390.9 33.136V26.368H382.764V33.136C382.764 33.376 382.68 33.58 382.512 33.748C382.368 33.916 382.164 34 381.9 34H378.912ZM401.342 34C401.102 34 400.898 33.916 400.73 33.748C400.562 33.58 400.478 33.376 400.478 33.136V16.144C400.478 15.904 400.562 15.7 400.73 15.532C400.898 15.364 401.102 15.28 401.342 15.28H404.33C404.594 15.28 404.798 15.364 404.942 15.532C405.11 15.676 405.194 15.88 405.194 16.144V22.588H413.33V16.144C413.33 15.88 413.414 15.676 413.582 15.532C413.75 15.364 413.954 15.28 414.194 15.28H417.182C417.446 15.28 417.65 15.364 417.794 15.532C417.962 15.676 418.046 15.88 418.046 16.144V33.136C418.046 33.376 417.962 33.58 417.794 33.748C417.65 33.916 417.446 34 417.182 34H414.194C413.954 34 413.75 33.916 413.582 33.748C413.414 33.58 413.33 33.376 413.33 33.136V26.368H405.194V33.136C405.194 33.376 405.11 33.58 404.942 33.748C404.798 33.916 404.594 34 404.33 34H401.342ZM431.187 34.36C428.379 34.36 426.207 33.64 424.671 32.2C423.135 30.736 422.307 28.744 422.187 26.224L422.151 24.64L422.187 23.056C422.307 20.56 423.147 18.58 424.707 17.116C426.267 15.652 428.427 14.92 431.187 14.92C433.947 14.92 436.107 15.652 437.667 17.116C439.227 18.58 440.067 20.56 440.187 23.056C440.211 23.344 440.223 23.872 440.223 24.64C440.223 25.408 440.211 25.936 440.187 26.224C440.067 28.744 439.239 30.736 437.703 32.2C436.167 33.64 433.995 34.36 431.187 34.36ZM431.187 30.796C432.459 30.796 433.443 30.4 434.139 29.608C434.835 28.792 435.219 27.604 435.291 26.044C435.315 25.804 435.327 25.336 435.327 24.64C435.327 23.944 435.315 23.476 435.291 23.236C435.219 21.676 434.835 20.5 434.139 19.708C433.443 18.892 432.459 18.484 431.187 18.484C429.915 18.484 428.931 18.892 428.235 19.708C427.539 20.5 427.155 21.676 427.083 23.236L427.047 24.64L427.083 26.044C427.155 27.604 427.539 28.792 428.235 29.608C428.931 30.4 429.915 30.796 431.187 30.796ZM452.312 34.36C449.672 34.36 447.56 33.628 445.976 32.164C444.416 30.7 443.588 28.672 443.492 26.08L443.456 24.64L443.492 23.2C443.588 20.608 444.416 18.58 445.976 17.116C447.56 15.652 449.672 14.92 452.312 14.92C454.184 14.92 455.768 15.256 457.064 15.928C458.384 16.6 459.356 17.428 459.98 18.412C460.628 19.372 460.976 20.284 461.024 21.148C461.048 21.388 460.964 21.592 460.772 21.76C460.604 21.928 460.4 22.012 460.16 22.012H456.992C456.752 22.012 456.56 21.964 456.416 21.868C456.296 21.748 456.176 21.556 456.056 21.292C455.696 20.356 455.216 19.684 454.616 19.276C454.04 18.868 453.296 18.664 452.384 18.664C451.16 18.664 450.2 19.06 449.504 19.852C448.808 20.62 448.436 21.796 448.388 23.38L448.352 24.712L448.388 25.9C448.484 29.044 449.816 30.616 452.384 30.616C453.32 30.616 454.076 30.412 454.652 30.004C455.228 29.596 455.696 28.924 456.056 27.988C456.176 27.724 456.296 27.544 456.416 27.448C456.56 27.328 456.752 27.268 456.992 27.268H460.16C460.4 27.268 460.604 27.352 460.772 27.52C460.964 27.688 461.048 27.892 461.024 28.132C460.976 28.972 460.64 29.872 460.016 30.832C459.392 31.792 458.432 32.62 457.136 33.316C455.84 34.012 454.232 34.36 452.312 34.36ZM470.502 34C470.262 34 470.058 33.916 469.89 33.748C469.722 33.58 469.638 33.376 469.638 33.136V19.096H463.77C463.53 19.096 463.326 19.012 463.158 18.844C462.99 18.676 462.906 18.46 462.906 18.196V16.144C462.906 15.88 462.99 15.676 463.158 15.532C463.326 15.364 463.53 15.28 463.77 15.28H480.114C480.378 15.28 480.594 15.364 480.762 15.532C480.93 15.7 481.014 15.904 481.014 16.144V18.196C481.014 18.436 480.93 18.652 480.762 18.844C480.594 19.012 480.378 19.096 480.114 19.096H474.282V33.136C474.282 33.376 474.198 33.58 474.03 33.748C473.886 33.916 473.682 34 473.418 34H470.502ZM500.932 15.28C501.148 15.28 501.34 15.364 501.508 15.532C501.676 15.676 501.76 15.856 501.76 16.072V33.136C501.76 33.376 501.676 33.58 501.508 33.748C501.34 33.916 501.136 34 500.896 34H497.908C497.668 34 497.464 33.916 497.296 33.748C497.128 33.58 497.044 33.376 497.044 33.136V21.58L488.404 33.424C488.188 33.808 487.864 34 487.432 34H484.696C484.48 34 484.288 33.928 484.12 33.784C483.952 33.616 483.868 33.412 483.868 33.172V16.144C483.868 15.904 483.952 15.7 484.12 15.532C484.288 15.364 484.492 15.28 484.732 15.28H487.72C487.984 15.28 488.188 15.364 488.332 15.532C488.5 15.676 488.584 15.88 488.584 16.144V27.736L497.224 15.856C497.488 15.472 497.812 15.28 498.196 15.28H500.932Z" fill="#131313"/>
</svg>
