<svg width="482" height="43" viewBox="0 0 482 43" fill="none" xmlns="http://www.w3.org/2000/svg">
<circle r="11.5" transform="matrix(1 0 0 -1 12 12)" stroke="#E41222"/>
<path d="M5.26 34C5.068 34 4.888 33.928 4.72 33.784C4.576 33.64 4.504 33.46 4.504 33.244L4.576 32.92L13.252 9.7C13.42 9.1 13.84 8.8 14.512 8.8H18.436C19.06 8.8 19.48 9.1 19.696 9.7L28.372 32.92C28.396 32.992 28.408 33.1 28.408 33.244C28.408 33.46 28.336 33.64 28.192 33.784C28.048 33.928 27.88 34 27.688 34H24.556C24.244 34 24.004 33.928 23.836 33.784C23.668 33.64 23.56 33.484 23.512 33.316L21.82 28.924H11.128L9.436 33.316C9.244 33.772 8.896 34 8.392 34H5.26ZM20.56 24.784L16.456 13.66L12.388 24.784H20.56ZM39.226 34.36C36.586 34.36 34.474 33.628 32.89 32.164C31.33 30.7 30.502 28.672 30.406 26.08L30.37 24.64L30.406 23.2C30.502 20.608 31.33 18.58 32.89 17.116C34.474 15.652 36.586 14.92 39.226 14.92C41.098 14.92 42.682 15.256 43.978 15.928C45.298 16.6 46.27 17.428 46.894 18.412C47.542 19.372 47.89 20.284 47.938 21.148C47.962 21.388 47.878 21.592 47.686 21.76C47.518 21.928 47.314 22.012 47.074 22.012H43.906C43.666 22.012 43.474 21.964 43.33 21.868C43.21 21.748 43.09 21.556 42.97 21.292C42.61 20.356 42.13 19.684 41.53 19.276C40.954 18.868 40.21 18.664 39.298 18.664C38.074 18.664 37.114 19.06 36.418 19.852C35.722 20.62 35.35 21.796 35.302 23.38L35.266 24.712L35.302 25.9C35.398 29.044 36.73 30.616 39.298 30.616C40.234 30.616 40.99 30.412 41.566 30.004C42.142 29.596 42.61 28.924 42.97 27.988C43.09 27.724 43.21 27.544 43.33 27.448C43.474 27.328 43.666 27.268 43.906 27.268H47.074C47.314 27.268 47.518 27.352 47.686 27.52C47.878 27.688 47.962 27.892 47.938 28.132C47.89 28.972 47.554 29.872 46.93 30.832C46.306 31.792 45.346 32.62 44.05 33.316C42.754 34.012 41.146 34.36 39.226 34.36ZM52.5924 34C52.3524 34 52.1484 33.916 51.9804 33.748C51.8124 33.58 51.7284 33.376 51.7284 33.136V9.304C51.7284 9.04 51.8124 8.836 51.9804 8.692C52.1484 8.524 52.3524 8.44 52.5924 8.44H55.7964C56.0604 8.44 56.2644 8.524 56.4084 8.692C56.5764 8.836 56.6604 9.04 56.6604 9.304V17.512C58.1004 15.784 60.0444 14.92 62.4924 14.92C64.7004 14.92 66.4644 15.652 67.7844 17.116C69.1044 18.556 69.7644 20.524 69.7644 23.02V33.136C69.7644 33.376 69.6804 33.58 69.5124 33.748C69.3684 33.916 69.1644 34 68.9004 34H65.6604C65.4204 34 65.2164 33.916 65.0484 33.748C64.8804 33.58 64.7964 33.376 64.7964 33.136V23.236C64.7964 21.82 64.4484 20.728 63.7524 19.96C63.0804 19.168 62.0964 18.772 60.8004 18.772C59.5284 18.772 58.5204 19.168 57.7764 19.96C57.0324 20.752 56.6604 21.844 56.6604 23.236V33.136C56.6604 33.376 56.5764 33.58 56.4084 33.748C56.2644 33.916 56.0604 34 55.7964 34H52.5924ZM75.053 12.184C74.813 12.184 74.609 12.1 74.441 11.932C74.273 11.764 74.189 11.56 74.189 11.32V8.728C74.189 8.488 74.273 8.284 74.441 8.116C74.609 7.948 74.813 7.864 75.053 7.864H78.329C78.569 7.864 78.773 7.948 78.941 8.116C79.133 8.284 79.229 8.488 79.229 8.728V11.32C79.229 11.56 79.145 11.764 78.977 11.932C78.809 12.1 78.593 12.184 78.329 12.184H75.053ZM75.197 34C74.957 34 74.753 33.916 74.585 33.748C74.417 33.58 74.333 33.376 74.333 33.136V16.144C74.333 15.904 74.417 15.7 74.585 15.532C74.753 15.364 74.957 15.28 75.197 15.28H78.185C78.449 15.28 78.653 15.364 78.797 15.532C78.965 15.676 79.049 15.88 79.049 16.144V33.136C79.049 33.376 78.965 33.58 78.797 33.748C78.653 33.916 78.449 34 78.185 34H75.197ZM91.8892 34.36C89.2252 34.36 87.1012 33.592 85.5172 32.056C83.9572 30.496 83.1292 28.312 83.0332 25.504L82.9972 24.604L83.0332 23.704C83.1532 20.968 83.9932 18.82 85.5532 17.26C87.1372 15.7 89.2492 14.92 91.8892 14.92C94.7212 14.92 96.9052 15.784 98.4412 17.512C100.001 19.24 100.781 21.544 100.781 24.424V25.18C100.781 25.42 100.697 25.624 100.529 25.792C100.361 25.96 100.145 26.044 99.8812 26.044H87.9292V26.332C87.9772 27.652 88.3372 28.768 89.0092 29.68C89.7052 30.568 90.6532 31.012 91.8532 31.012C93.2692 31.012 94.4092 30.46 95.2732 29.356C95.4892 29.092 95.6572 28.924 95.7772 28.852C95.9212 28.78 96.1252 28.744 96.3892 28.744H99.4852C99.7012 28.744 99.8812 28.816 100.025 28.96C100.193 29.08 100.277 29.236 100.277 29.428C100.277 30.004 99.9292 30.688 99.2332 31.48C98.5612 32.248 97.5892 32.92 96.3172 33.496C95.0452 34.072 93.5692 34.36 91.8892 34.36ZM95.8852 23.02V22.912C95.8852 21.496 95.5252 20.356 94.8052 19.492C94.1092 18.628 93.1372 18.196 91.8892 18.196C90.6412 18.196 89.6692 18.628 88.9732 19.492C88.2772 20.356 87.9292 21.496 87.9292 22.912V23.02H95.8852ZM110.559 34C110.199 34 109.923 33.928 109.731 33.784C109.539 33.616 109.383 33.388 109.263 33.1L102.531 16.396L102.459 16.072C102.459 15.856 102.531 15.676 102.675 15.532C102.843 15.364 103.035 15.28 103.251 15.28H106.167C106.623 15.28 106.935 15.508 107.103 15.964L111.891 28.6L116.679 15.964C116.751 15.796 116.859 15.64 117.003 15.496C117.171 15.352 117.375 15.28 117.615 15.28H120.567C120.759 15.28 120.927 15.364 121.071 15.532C121.239 15.676 121.323 15.856 121.323 16.072C121.323 16.216 121.311 16.324 121.287 16.396L114.519 33.1C114.399 33.388 114.243 33.616 114.051 33.784C113.859 33.928 113.583 34 113.223 34H110.559ZM132.003 34.36C129.339 34.36 127.215 33.592 125.631 32.056C124.071 30.496 123.243 28.312 123.147 25.504L123.111 24.604L123.147 23.704C123.267 20.968 124.107 18.82 125.667 17.26C127.251 15.7 129.363 14.92 132.003 14.92C134.835 14.92 137.019 15.784 138.555 17.512C140.115 19.24 140.895 21.544 140.895 24.424V25.18C140.895 25.42 140.811 25.624 140.643 25.792C140.475 25.96 140.259 26.044 139.995 26.044H128.043V26.332C128.091 27.652 128.451 28.768 129.123 29.68C129.819 30.568 130.767 31.012 131.967 31.012C133.383 31.012 134.523 30.46 135.387 29.356C135.603 29.092 135.771 28.924 135.891 28.852C136.035 28.78 136.239 28.744 136.503 28.744H139.599C139.815 28.744 139.995 28.816 140.139 28.96C140.307 29.08 140.391 29.236 140.391 29.428C140.391 30.004 140.043 30.688 139.347 31.48C138.675 32.248 137.703 32.92 136.431 33.496C135.159 34.072 133.683 34.36 132.003 34.36ZM135.999 23.02V22.912C135.999 21.496 135.639 20.356 134.919 19.492C134.223 18.628 133.251 18.196 132.003 18.196C130.755 18.196 129.783 18.628 129.087 19.492C128.391 20.356 128.043 21.496 128.043 22.912V23.02H135.999ZM145.58 34C145.34 34 145.136 33.916 144.968 33.748C144.8 33.58 144.716 33.376 144.716 33.136V16.144C144.716 15.904 144.8 15.7 144.968 15.532C145.136 15.364 145.34 15.28 145.58 15.28H148.388C148.628 15.28 148.832 15.364 149 15.532C149.168 15.7 149.252 15.904 149.252 16.144V17.368C150.5 15.736 152.24 14.92 154.472 14.92C157.136 14.92 158.996 15.988 160.052 18.124C160.628 17.164 161.444 16.396 162.5 15.82C163.556 15.22 164.696 14.92 165.92 14.92C167.888 14.92 169.496 15.592 170.744 16.936C171.992 18.28 172.616 20.236 172.616 22.804V33.136C172.616 33.376 172.532 33.58 172.364 33.748C172.22 33.916 172.016 34 171.752 34H168.8C168.56 34 168.356 33.916 168.188 33.748C168.02 33.58 167.936 33.376 167.936 33.136V23.092C167.936 21.58 167.612 20.488 166.964 19.816C166.34 19.12 165.5 18.772 164.444 18.772C163.508 18.772 162.704 19.12 162.032 19.816C161.384 20.512 161.06 21.604 161.06 23.092V33.136C161.06 33.376 160.976 33.58 160.808 33.748C160.64 33.916 160.436 34 160.196 34H157.244C157.004 34 156.8 33.916 156.632 33.748C156.464 33.58 156.38 33.376 156.38 33.136V23.092C156.38 21.58 156.044 20.488 155.372 19.816C154.724 19.12 153.896 18.772 152.888 18.772C151.928 18.772 151.112 19.12 150.44 19.816C149.792 20.512 149.468 21.604 149.468 23.092V33.136C149.468 33.376 149.384 33.58 149.216 33.748C149.048 33.916 148.844 34 148.604 34H145.58ZM185.264 34.36C182.6 34.36 180.476 33.592 178.892 32.056C177.332 30.496 176.504 28.312 176.408 25.504L176.372 24.604L176.408 23.704C176.528 20.968 177.368 18.82 178.928 17.26C180.512 15.7 182.624 14.92 185.264 14.92C188.096 14.92 190.28 15.784 191.816 17.512C193.376 19.24 194.156 21.544 194.156 24.424V25.18C194.156 25.42 194.072 25.624 193.904 25.792C193.736 25.96 193.52 26.044 193.256 26.044H181.304V26.332C181.352 27.652 181.712 28.768 182.384 29.68C183.08 30.568 184.028 31.012 185.228 31.012C186.644 31.012 187.784 30.46 188.648 29.356C188.864 29.092 189.032 28.924 189.152 28.852C189.296 28.78 189.5 28.744 189.764 28.744H192.86C193.076 28.744 193.256 28.816 193.4 28.96C193.568 29.08 193.652 29.236 193.652 29.428C193.652 30.004 193.304 30.688 192.608 31.48C191.936 32.248 190.964 32.92 189.692 33.496C188.42 34.072 186.944 34.36 185.264 34.36ZM189.26 23.02V22.912C189.26 21.496 188.9 20.356 188.18 19.492C187.484 18.628 186.512 18.196 185.264 18.196C184.016 18.196 183.044 18.628 182.348 19.492C181.652 20.356 181.304 21.496 181.304 22.912V23.02H189.26ZM198.842 34C198.602 34 198.398 33.916 198.23 33.748C198.062 33.58 197.978 33.376 197.978 33.136V16.144C197.978 15.904 198.062 15.7 198.23 15.532C198.398 15.364 198.602 15.28 198.842 15.28H201.794C202.034 15.28 202.238 15.364 202.406 15.532C202.574 15.7 202.658 15.904 202.658 16.144V17.62C204.074 15.82 206.078 14.92 208.67 14.92C210.878 14.92 212.63 15.652 213.926 17.116C215.222 18.556 215.87 20.524 215.87 23.02V33.136C215.87 33.376 215.786 33.58 215.618 33.748C215.474 33.916 215.27 34 215.006 34H211.838C211.598 34 211.394 33.916 211.226 33.748C211.058 33.58 210.974 33.376 210.974 33.136V23.236C210.974 21.82 210.626 20.728 209.93 19.96C209.258 19.168 208.274 18.772 206.978 18.772C205.706 18.772 204.698 19.168 203.954 19.96C203.234 20.752 202.874 21.844 202.874 23.236V33.136C202.874 33.376 202.79 33.58 202.622 33.748C202.478 33.916 202.274 34 202.01 34H198.842ZM228.691 34C226.507 34 224.863 33.436 223.759 32.308C222.679 31.156 222.139 29.476 222.139 27.268V19.096H219.295C219.055 19.096 218.851 19.012 218.683 18.844C218.515 18.652 218.431 18.436 218.431 18.196V16.144C218.431 15.904 218.515 15.7 218.683 15.532C218.851 15.364 219.055 15.28 219.295 15.28H222.139V9.304C222.139 9.04 222.223 8.836 222.391 8.692C222.559 8.524 222.763 8.44 223.003 8.44H225.919C226.183 8.44 226.387 8.524 226.531 8.692C226.699 8.836 226.783 9.04 226.783 9.304V15.28H231.283C231.547 15.28 231.751 15.364 231.895 15.532C232.063 15.676 232.147 15.88 232.147 16.144V18.196C232.147 18.46 232.063 18.676 231.895 18.844C231.727 19.012 231.523 19.096 231.283 19.096H226.783V26.908C226.783 27.94 226.963 28.72 227.323 29.248C227.683 29.776 228.283 30.04 229.123 30.04H231.607C231.847 30.04 232.051 30.124 232.219 30.292C232.387 30.46 232.471 30.664 232.471 30.904V33.136C232.471 33.376 232.387 33.58 232.219 33.748C232.075 33.916 231.871 34 231.607 34H228.691ZM242.757 34.36C240.957 34.36 239.445 34.096 238.221 33.568C236.997 33.016 236.085 32.38 235.485 31.66C234.909 30.916 234.621 30.28 234.621 29.752C234.621 29.512 234.705 29.32 234.873 29.176C235.041 29.032 235.233 28.96 235.449 28.96H238.293C238.509 28.96 238.689 29.044 238.833 29.212C238.929 29.284 239.181 29.5 239.589 29.86C239.997 30.244 240.477 30.544 241.029 30.76C241.581 30.976 242.193 31.084 242.865 31.084C243.825 31.084 244.617 30.892 245.241 30.508C245.865 30.124 246.177 29.596 246.177 28.924C246.177 28.42 246.033 28.012 245.745 27.7C245.481 27.388 244.989 27.112 244.269 26.872C243.549 26.608 242.481 26.332 241.065 26.044C239.025 25.612 237.513 24.952 236.529 24.064C235.569 23.176 235.089 22 235.089 20.536C235.089 19.576 235.377 18.676 235.953 17.836C236.529 16.972 237.381 16.276 238.509 15.748C239.661 15.196 241.029 14.92 242.613 14.92C244.221 14.92 245.613 15.184 246.789 15.712C247.965 16.216 248.853 16.828 249.453 17.548C250.077 18.244 250.389 18.868 250.389 19.42C250.389 19.636 250.305 19.828 250.137 19.996C249.993 20.14 249.813 20.212 249.597 20.212H246.933C246.741 20.212 246.537 20.128 246.321 19.96C246.153 19.84 245.889 19.612 245.529 19.276C245.169 18.94 244.749 18.676 244.269 18.484C243.789 18.292 243.225 18.196 242.577 18.196C241.689 18.196 240.993 18.388 240.489 18.772C240.009 19.156 239.769 19.66 239.769 20.284C239.769 20.74 239.889 21.112 240.129 21.4C240.369 21.688 240.837 21.964 241.533 22.228C242.229 22.492 243.273 22.756 244.665 23.02C246.969 23.476 248.613 24.184 249.597 25.144C250.605 26.104 251.109 27.28 251.109 28.672C251.109 30.352 250.377 31.72 248.913 32.776C247.449 33.832 245.397 34.36 242.757 34.36ZM268.488 34.36C267.264 34.36 266.136 34.12 265.104 33.64C264.096 33.136 263.292 32.464 262.692 31.624C262.116 30.784 261.828 29.86 261.828 28.852C261.828 27.22 262.488 25.9 263.808 24.892C265.128 23.884 266.94 23.2 269.244 22.84L274.176 22.12V21.364C274.176 20.308 273.912 19.516 273.384 18.988C272.856 18.46 272.004 18.196 270.828 18.196C270.036 18.196 269.388 18.352 268.884 18.664C268.404 18.952 268.02 19.24 267.732 19.528C267.444 19.84 267.252 20.044 267.156 20.14C267.06 20.428 266.88 20.572 266.616 20.572H263.844C263.628 20.572 263.436 20.5 263.268 20.356C263.124 20.212 263.052 20.02 263.052 19.78C263.076 19.18 263.364 18.496 263.916 17.728C264.492 16.96 265.368 16.3 266.544 15.748C267.72 15.196 269.16 14.92 270.864 14.92C273.696 14.92 275.76 15.556 277.056 16.828C278.352 18.1 279 19.768 279 21.832V33.136C279 33.376 278.916 33.58 278.748 33.748C278.604 33.916 278.4 34 278.136 34H275.22C274.98 34 274.776 33.916 274.608 33.748C274.44 33.58 274.356 33.376 274.356 33.136V31.732C273.828 32.5 273.072 33.136 272.088 33.64C271.128 34.12 269.928 34.36 268.488 34.36ZM269.712 30.94C271.032 30.94 272.112 30.508 272.952 29.644C273.792 28.78 274.212 27.52 274.212 25.864V25.108L270.612 25.684C269.22 25.9 268.164 26.248 267.444 26.728C266.748 27.208 266.4 27.796 266.4 28.492C266.4 29.26 266.724 29.86 267.372 30.292C268.02 30.724 268.8 30.94 269.712 30.94ZM284.482 34C284.242 34 284.038 33.916 283.87 33.748C283.702 33.58 283.618 33.376 283.618 33.136V16.144C283.618 15.904 283.702 15.7 283.87 15.532C284.038 15.364 284.242 15.28 284.482 15.28H287.434C287.674 15.28 287.878 15.364 288.046 15.532C288.214 15.7 288.298 15.904 288.298 16.144V17.62C289.714 15.82 291.718 14.92 294.31 14.92C296.518 14.92 298.27 15.652 299.566 17.116C300.862 18.556 301.51 20.524 301.51 23.02V33.136C301.51 33.376 301.426 33.58 301.258 33.748C301.114 33.916 300.91 34 300.646 34H297.478C297.238 34 297.034 33.916 296.866 33.748C296.698 33.58 296.614 33.376 296.614 33.136V23.236C296.614 21.82 296.266 20.728 295.57 19.96C294.898 19.168 293.914 18.772 292.618 18.772C291.346 18.772 290.338 19.168 289.594 19.96C288.874 20.752 288.514 21.844 288.514 23.236V33.136C288.514 33.376 288.43 33.58 288.262 33.748C288.118 33.916 287.914 34 287.65 34H284.482ZM313.031 34.36C310.607 34.36 308.747 33.58 307.451 32.02C306.155 30.46 305.459 28.384 305.363 25.792L305.327 24.604L305.363 23.452C305.435 20.932 306.119 18.88 307.415 17.296C308.735 15.712 310.607 14.92 313.031 14.92C315.359 14.92 317.207 15.712 318.575 17.296V9.304C318.575 9.04 318.659 8.836 318.827 8.692C318.995 8.524 319.199 8.44 319.439 8.44H322.499C322.763 8.44 322.967 8.524 323.111 8.692C323.279 8.836 323.363 9.04 323.363 9.304V33.136C323.363 33.376 323.279 33.58 323.111 33.748C322.967 33.916 322.763 34 322.499 34H319.655C319.415 34 319.211 33.916 319.043 33.748C318.875 33.58 318.791 33.376 318.791 33.136V31.804C317.423 33.508 315.503 34.36 313.031 34.36ZM314.363 30.508C315.755 30.508 316.787 30.064 317.459 29.176C318.131 28.288 318.503 27.196 318.575 25.9C318.599 25.612 318.611 25.144 318.611 24.496C318.611 23.872 318.599 23.416 318.575 23.128C318.527 21.928 318.143 20.908 317.423 20.068C316.727 19.204 315.707 18.772 314.363 18.772C311.771 18.772 310.391 20.368 310.223 23.56L310.187 24.64L310.223 25.72C310.391 28.912 311.771 30.508 314.363 30.508ZM338.635 34C338.395 34 338.191 33.916 338.023 33.748C337.855 33.58 337.771 33.376 337.771 33.136V19.096H334.855C334.615 19.096 334.411 19.012 334.243 18.844C334.075 18.652 333.991 18.436 333.991 18.196V16.144C333.991 15.904 334.075 15.7 334.243 15.532C334.411 15.364 334.615 15.28 334.855 15.28H337.771V13.804C337.771 9.508 340.123 7.36 344.827 7.36H347.275C347.539 7.36 347.743 7.444 347.887 7.612C348.055 7.756 348.139 7.96 348.139 8.224V10.276C348.139 10.54 348.055 10.756 347.887 10.924C347.719 11.092 347.515 11.176 347.275 11.176H344.971C344.035 11.176 343.375 11.404 342.991 11.86C342.631 12.316 342.451 13.024 342.451 13.984V15.28H346.915C347.179 15.28 347.383 15.364 347.527 15.532C347.695 15.676 347.779 15.88 347.779 16.144V18.196C347.779 18.46 347.695 18.676 347.527 18.844C347.359 19.012 347.155 19.096 346.915 19.096H342.451V33.136C342.451 33.376 342.367 33.58 342.199 33.748C342.031 33.916 341.827 34 341.587 34H338.635ZM358.444 34.36C355.78 34.36 353.656 33.592 352.072 32.056C350.512 30.496 349.684 28.312 349.588 25.504L349.552 24.604L349.588 23.704C349.708 20.968 350.548 18.82 352.108 17.26C353.692 15.7 355.804 14.92 358.444 14.92C361.276 14.92 363.46 15.784 364.996 17.512C366.556 19.24 367.336 21.544 367.336 24.424V25.18C367.336 25.42 367.252 25.624 367.084 25.792C366.916 25.96 366.7 26.044 366.436 26.044H354.484V26.332C354.532 27.652 354.892 28.768 355.564 29.68C356.26 30.568 357.208 31.012 358.408 31.012C359.824 31.012 360.964 30.46 361.828 29.356C362.044 29.092 362.212 28.924 362.332 28.852C362.476 28.78 362.68 28.744 362.944 28.744H366.04C366.256 28.744 366.436 28.816 366.58 28.96C366.748 29.08 366.832 29.236 366.832 29.428C366.832 30.004 366.484 30.688 365.788 31.48C365.116 32.248 364.144 32.92 362.872 33.496C361.6 34.072 360.124 34.36 358.444 34.36ZM362.44 23.02V22.912C362.44 21.496 362.08 20.356 361.36 19.492C360.664 18.628 359.692 18.196 358.444 18.196C357.196 18.196 356.224 18.628 355.528 19.492C354.832 20.356 354.484 21.496 354.484 22.912V23.02H362.44ZM376.593 34.36C375.369 34.36 374.241 34.12 373.209 33.64C372.201 33.136 371.397 32.464 370.797 31.624C370.221 30.784 369.933 29.86 369.933 28.852C369.933 27.22 370.593 25.9 371.913 24.892C373.233 23.884 375.045 23.2 377.349 22.84L382.281 22.12V21.364C382.281 20.308 382.017 19.516 381.489 18.988C380.961 18.46 380.109 18.196 378.933 18.196C378.141 18.196 377.493 18.352 376.989 18.664C376.509 18.952 376.125 19.24 375.837 19.528C375.549 19.84 375.357 20.044 375.261 20.14C375.165 20.428 374.985 20.572 374.721 20.572H371.949C371.733 20.572 371.541 20.5 371.373 20.356C371.229 20.212 371.157 20.02 371.157 19.78C371.181 19.18 371.469 18.496 372.021 17.728C372.597 16.96 373.473 16.3 374.649 15.748C375.825 15.196 377.265 14.92 378.969 14.92C381.801 14.92 383.865 15.556 385.161 16.828C386.457 18.1 387.105 19.768 387.105 21.832V33.136C387.105 33.376 387.021 33.58 386.853 33.748C386.709 33.916 386.505 34 386.241 34H383.325C383.085 34 382.881 33.916 382.713 33.748C382.545 33.58 382.461 33.376 382.461 33.136V31.732C381.933 32.5 381.177 33.136 380.193 33.64C379.233 34.12 378.033 34.36 376.593 34.36ZM377.817 30.94C379.137 30.94 380.217 30.508 381.057 29.644C381.897 28.78 382.317 27.52 382.317 25.864V25.108L378.717 25.684C377.325 25.9 376.269 26.248 375.549 26.728C374.853 27.208 374.505 27.796 374.505 28.492C374.505 29.26 374.829 29.86 375.477 30.292C376.125 30.724 376.905 30.94 377.817 30.94ZM400.008 34C397.824 34 396.18 33.436 395.076 32.308C393.996 31.156 393.456 29.476 393.456 27.268V19.096H390.612C390.372 19.096 390.168 19.012 390 18.844C389.832 18.652 389.748 18.436 389.748 18.196V16.144C389.748 15.904 389.832 15.7 390 15.532C390.168 15.364 390.372 15.28 390.612 15.28H393.456V9.304C393.456 9.04 393.54 8.836 393.708 8.692C393.876 8.524 394.08 8.44 394.32 8.44H397.236C397.5 8.44 397.704 8.524 397.848 8.692C398.016 8.836 398.1 9.04 398.1 9.304V15.28H402.6C402.864 15.28 403.068 15.364 403.212 15.532C403.38 15.676 403.464 15.88 403.464 16.144V18.196C403.464 18.46 403.38 18.676 403.212 18.844C403.044 19.012 402.84 19.096 402.6 19.096H398.1V26.908C398.1 27.94 398.28 28.72 398.64 29.248C399 29.776 399.6 30.04 400.44 30.04H402.924C403.164 30.04 403.368 30.124 403.536 30.292C403.704 30.46 403.788 30.664 403.788 30.904V33.136C403.788 33.376 403.704 33.58 403.536 33.748C403.392 33.916 403.188 34 402.924 34H400.008ZM413.929 34.36C411.721 34.36 409.981 33.64 408.709 32.2C407.437 30.736 406.801 28.756 406.801 26.26V16.144C406.801 15.904 406.885 15.7 407.053 15.532C407.221 15.364 407.425 15.28 407.665 15.28H410.833C411.097 15.28 411.301 15.364 411.445 15.532C411.613 15.676 411.697 15.88 411.697 16.144V26.044C411.697 29.02 413.005 30.508 415.621 30.508C416.869 30.508 417.853 30.112 418.573 29.32C419.317 28.528 419.689 27.436 419.689 26.044V16.144C419.689 15.904 419.773 15.7 419.941 15.532C420.109 15.364 420.313 15.28 420.553 15.28H423.721C423.985 15.28 424.189 15.364 424.333 15.532C424.501 15.676 424.585 15.88 424.585 16.144V33.136C424.585 33.376 424.501 33.58 424.333 33.748C424.189 33.916 423.985 34 423.721 34H420.805C420.565 34 420.361 33.916 420.193 33.748C420.025 33.58 419.941 33.376 419.941 33.136V31.66C418.597 33.46 416.593 34.36 413.929 34.36ZM430.205 34C429.965 34 429.761 33.916 429.593 33.748C429.425 33.58 429.341 33.376 429.341 33.136V16.18C429.341 15.94 429.425 15.736 429.593 15.568C429.761 15.376 429.965 15.28 430.205 15.28H433.121C433.385 15.28 433.601 15.364 433.769 15.532C433.937 15.7 434.021 15.916 434.021 16.18V17.656C434.597 16.888 435.317 16.3 436.181 15.892C437.069 15.484 438.077 15.28 439.205 15.28H440.681C440.945 15.28 441.149 15.364 441.293 15.532C441.461 15.676 441.545 15.88 441.545 16.144V18.736C441.545 18.976 441.461 19.18 441.293 19.348C441.149 19.516 440.945 19.6 440.681 19.6H437.873C436.745 19.6 435.857 19.924 435.209 20.572C434.561 21.22 434.237 22.108 434.237 23.236V33.136C434.237 33.376 434.153 33.58 433.985 33.748C433.817 33.916 433.601 34 433.337 34H430.205ZM452.17 34.36C449.506 34.36 447.382 33.592 445.798 32.056C444.238 30.496 443.41 28.312 443.314 25.504L443.278 24.604L443.314 23.704C443.434 20.968 444.274 18.82 445.834 17.26C447.418 15.7 449.53 14.92 452.17 14.92C455.002 14.92 457.186 15.784 458.722 17.512C460.282 19.24 461.062 21.544 461.062 24.424V25.18C461.062 25.42 460.978 25.624 460.81 25.792C460.642 25.96 460.426 26.044 460.162 26.044H448.21V26.332C448.258 27.652 448.618 28.768 449.29 29.68C449.986 30.568 450.934 31.012 452.134 31.012C453.55 31.012 454.69 30.46 455.554 29.356C455.77 29.092 455.938 28.924 456.058 28.852C456.202 28.78 456.406 28.744 456.67 28.744H459.766C459.982 28.744 460.162 28.816 460.306 28.96C460.474 29.08 460.558 29.236 460.558 29.428C460.558 30.004 460.21 30.688 459.514 31.48C458.842 32.248 457.87 32.92 456.598 33.496C455.326 34.072 453.85 34.36 452.17 34.36ZM456.166 23.02V22.912C456.166 21.496 455.806 20.356 455.086 19.492C454.39 18.628 453.418 18.196 452.17 18.196C450.922 18.196 449.95 18.628 449.254 19.492C448.558 20.356 448.21 21.496 448.21 22.912V23.02H456.166ZM471.976 34.36C470.176 34.36 468.664 34.096 467.44 33.568C466.216 33.016 465.304 32.38 464.704 31.66C464.128 30.916 463.84 30.28 463.84 29.752C463.84 29.512 463.924 29.32 464.092 29.176C464.26 29.032 464.452 28.96 464.668 28.96H467.512C467.728 28.96 467.908 29.044 468.052 29.212C468.148 29.284 468.4 29.5 468.808 29.86C469.216 30.244 469.696 30.544 470.248 30.76C470.8 30.976 471.412 31.084 472.084 31.084C473.044 31.084 473.836 30.892 474.46 30.508C475.084 30.124 475.396 29.596 475.396 28.924C475.396 28.42 475.252 28.012 474.964 27.7C474.7 27.388 474.208 27.112 473.488 26.872C472.768 26.608 471.7 26.332 470.284 26.044C468.244 25.612 466.732 24.952 465.748 24.064C464.788 23.176 464.308 22 464.308 20.536C464.308 19.576 464.596 18.676 465.172 17.836C465.748 16.972 466.6 16.276 467.728 15.748C468.88 15.196 470.248 14.92 471.832 14.92C473.44 14.92 474.832 15.184 476.008 15.712C477.184 16.216 478.072 16.828 478.672 17.548C479.296 18.244 479.608 18.868 479.608 19.42C479.608 19.636 479.524 19.828 479.356 19.996C479.212 20.14 479.032 20.212 478.816 20.212H476.152C475.96 20.212 475.756 20.128 475.54 19.96C475.372 19.84 475.108 19.612 474.748 19.276C474.388 18.94 473.968 18.676 473.488 18.484C473.008 18.292 472.444 18.196 471.796 18.196C470.908 18.196 470.212 18.388 469.708 18.772C469.228 19.156 468.988 19.66 468.988 20.284C468.988 20.74 469.108 21.112 469.348 21.4C469.588 21.688 470.056 21.964 470.752 22.228C471.448 22.492 472.492 22.756 473.884 23.02C476.188 23.476 477.832 24.184 478.816 25.144C479.824 26.104 480.328 27.28 480.328 28.672C480.328 30.352 479.596 31.72 478.132 32.776C476.668 33.832 474.616 34.36 471.976 34.36Z" fill="#131313"/>
</svg>
