<svg width="139" height="43" viewBox="0 0 139 43" fill="none" xmlns="http://www.w3.org/2000/svg">
<circle r="11.5" transform="matrix(1 0 0 -1 12 12)" stroke="#E41222"/>
<path d="M16.528 34.36C13.216 34.36 10.648 33.508 8.824 31.804C7.024 30.1 6.064 27.7 5.944 24.604C5.92 23.956 5.908 22.9 5.908 21.436C5.908 19.948 5.92 18.868 5.944 18.196C6.064 15.124 7.036 12.736 8.86 11.032C10.708 9.304 13.264 8.44 16.528 8.44C18.664 8.44 20.524 8.812 22.108 9.556C23.692 10.276 24.916 11.272 25.78 12.544C26.644 13.792 27.1 15.208 27.148 16.792V16.864C27.148 17.056 27.064 17.224 26.896 17.368C26.752 17.488 26.584 17.548 26.392 17.548H22.972C22.684 17.548 22.468 17.488 22.324 17.368C22.18 17.248 22.06 17.02 21.964 16.684C21.58 15.172 20.944 14.116 20.056 13.516C19.168 12.892 17.98 12.58 16.492 12.58C13.036 12.58 11.236 14.512 11.092 18.376C11.068 19.024 11.056 20.02 11.056 21.364C11.056 22.708 11.068 23.728 11.092 24.424C11.236 28.288 13.036 30.22 16.492 30.22C17.98 30.22 19.168 29.908 20.056 29.284C20.968 28.66 21.604 27.604 21.964 26.116C22.036 25.78 22.144 25.552 22.288 25.432C22.456 25.312 22.684 25.252 22.972 25.252H26.392C26.608 25.252 26.788 25.324 26.932 25.468C27.1 25.612 27.172 25.792 27.148 26.008C27.1 27.592 26.644 29.02 25.78 30.292C24.916 31.54 23.692 32.536 22.108 33.28C20.524 34 18.664 34.36 16.528 34.36ZM36.4214 34.36C35.1974 34.36 34.0694 34.12 33.0374 33.64C32.0294 33.136 31.2254 32.464 30.6254 31.624C30.0494 30.784 29.7614 29.86 29.7614 28.852C29.7614 27.22 30.4214 25.9 31.7414 24.892C33.0614 23.884 34.8734 23.2 37.1774 22.84L42.1094 22.12V21.364C42.1094 20.308 41.8454 19.516 41.3174 18.988C40.7894 18.46 39.9374 18.196 38.7614 18.196C37.9694 18.196 37.3214 18.352 36.8174 18.664C36.3374 18.952 35.9534 19.24 35.6654 19.528C35.3774 19.84 35.1854 20.044 35.0894 20.14C34.9934 20.428 34.8134 20.572 34.5494 20.572H31.7774C31.5614 20.572 31.3694 20.5 31.2014 20.356C31.0574 20.212 30.9854 20.02 30.9854 19.78C31.0094 19.18 31.2974 18.496 31.8494 17.728C32.4254 16.96 33.3014 16.3 34.4774 15.748C35.6534 15.196 37.0934 14.92 38.7974 14.92C41.6294 14.92 43.6934 15.556 44.9894 16.828C46.2854 18.1 46.9334 19.768 46.9334 21.832V33.136C46.9334 33.376 46.8494 33.58 46.6814 33.748C46.5374 33.916 46.3334 34 46.0694 34H43.1534C42.9134 34 42.7094 33.916 42.5414 33.748C42.3734 33.58 42.2894 33.376 42.2894 33.136V31.732C41.7614 32.5 41.0054 33.136 40.0214 33.64C39.0614 34.12 37.8614 34.36 36.4214 34.36ZM37.6454 30.94C38.9654 30.94 40.0454 30.508 40.8854 29.644C41.7254 28.78 42.1454 27.52 42.1454 25.864V25.108L38.5454 25.684C37.1534 25.9 36.0974 26.248 35.3774 26.728C34.6814 27.208 34.3334 27.796 34.3334 28.492C34.3334 29.26 34.6574 29.86 35.3054 30.292C35.9534 30.724 36.7334 30.94 37.6454 30.94ZM59.836 34C57.652 34 56.008 33.436 54.904 32.308C53.824 31.156 53.284 29.476 53.284 27.268V19.096H50.44C50.2 19.096 49.996 19.012 49.828 18.844C49.66 18.652 49.576 18.436 49.576 18.196V16.144C49.576 15.904 49.66 15.7 49.828 15.532C49.996 15.364 50.2 15.28 50.44 15.28H53.284V9.304C53.284 9.04 53.368 8.836 53.536 8.692C53.704 8.524 53.908 8.44 54.148 8.44H57.064C57.328 8.44 57.532 8.524 57.676 8.692C57.844 8.836 57.928 9.04 57.928 9.304V15.28H62.428C62.692 15.28 62.896 15.364 63.04 15.532C63.208 15.676 63.292 15.88 63.292 16.144V18.196C63.292 18.46 63.208 18.676 63.04 18.844C62.872 19.012 62.668 19.096 62.428 19.096H57.928V26.908C57.928 27.94 58.108 28.72 58.468 29.248C58.828 29.776 59.428 30.04 60.268 30.04H62.752C62.992 30.04 63.196 30.124 63.364 30.292C63.532 30.46 63.616 30.664 63.616 30.904V33.136C63.616 33.376 63.532 33.58 63.364 33.748C63.22 33.916 63.016 34 62.752 34H59.836ZM72.2456 34.36C71.0216 34.36 69.8936 34.12 68.8616 33.64C67.8536 33.136 67.0496 32.464 66.4496 31.624C65.8736 30.784 65.5856 29.86 65.5856 28.852C65.5856 27.22 66.2456 25.9 67.5656 24.892C68.8856 23.884 70.6976 23.2 73.0016 22.84L77.9336 22.12V21.364C77.9336 20.308 77.6696 19.516 77.1416 18.988C76.6136 18.46 75.7616 18.196 74.5856 18.196C73.7936 18.196 73.1456 18.352 72.6416 18.664C72.1616 18.952 71.7776 19.24 71.4896 19.528C71.2016 19.84 71.0096 20.044 70.9136 20.14C70.8176 20.428 70.6376 20.572 70.3736 20.572H67.6016C67.3856 20.572 67.1936 20.5 67.0256 20.356C66.8816 20.212 66.8096 20.02 66.8096 19.78C66.8336 19.18 67.1216 18.496 67.6736 17.728C68.2496 16.96 69.1256 16.3 70.3016 15.748C71.4776 15.196 72.9176 14.92 74.6216 14.92C77.4536 14.92 79.5176 15.556 80.8136 16.828C82.1096 18.1 82.7576 19.768 82.7576 21.832V33.136C82.7576 33.376 82.6736 33.58 82.5056 33.748C82.3616 33.916 82.1576 34 81.8936 34H78.9776C78.7376 34 78.5336 33.916 78.3656 33.748C78.1976 33.58 78.1136 33.376 78.1136 33.136V31.732C77.5856 32.5 76.8296 33.136 75.8456 33.64C74.8856 34.12 73.6856 34.36 72.2456 34.36ZM73.4696 30.94C74.7896 30.94 75.8696 30.508 76.7096 29.644C77.5496 28.78 77.9696 27.52 77.9696 25.864V25.108L74.3696 25.684C72.9776 25.9 71.9216 26.248 71.2016 26.728C70.5056 27.208 70.1576 27.796 70.1576 28.492C70.1576 29.26 70.4816 29.86 71.1296 30.292C71.7776 30.724 72.5576 30.94 73.4696 30.94ZM88.276 34C88.036 34 87.832 33.916 87.664 33.748C87.496 33.58 87.412 33.376 87.412 33.136V9.304C87.412 9.04 87.496 8.836 87.664 8.692C87.832 8.524 88.036 8.44 88.276 8.44H91.264C91.528 8.44 91.732 8.524 91.876 8.692C92.044 8.836 92.128 9.04 92.128 9.304V33.136C92.128 33.376 92.044 33.58 91.876 33.748C91.732 33.916 91.528 34 91.264 34H88.276ZM105.183 34.36C102.375 34.36 100.203 33.64 98.6673 32.2C97.1313 30.736 96.3033 28.744 96.1833 26.224L96.1473 24.64L96.1833 23.056C96.3033 20.56 97.1433 18.58 98.7033 17.116C100.263 15.652 102.423 14.92 105.183 14.92C107.943 14.92 110.103 15.652 111.663 17.116C113.223 18.58 114.063 20.56 114.183 23.056C114.207 23.344 114.219 23.872 114.219 24.64C114.219 25.408 114.207 25.936 114.183 26.224C114.063 28.744 113.235 30.736 111.699 32.2C110.163 33.64 107.991 34.36 105.183 34.36ZM105.183 30.796C106.455 30.796 107.439 30.4 108.135 29.608C108.831 28.792 109.215 27.604 109.287 26.044C109.311 25.804 109.323 25.336 109.323 24.64C109.323 23.944 109.311 23.476 109.287 23.236C109.215 21.676 108.831 20.5 108.135 19.708C107.439 18.892 106.455 18.484 105.183 18.484C103.911 18.484 102.927 18.892 102.231 19.708C101.535 20.5 101.151 21.676 101.079 23.236L101.043 24.64L101.079 26.044C101.151 27.604 101.535 28.792 102.231 29.608C102.927 30.4 103.911 30.796 105.183 30.796ZM126.668 41.92C124.532 41.92 122.804 41.56 121.484 40.84C120.164 40.144 119.228 39.34 118.676 38.428C118.124 37.516 117.848 36.736 117.848 36.088C117.848 35.872 117.932 35.68 118.1 35.512C118.292 35.344 118.496 35.26 118.712 35.26H121.844C122.06 35.26 122.24 35.308 122.384 35.404C122.552 35.524 122.684 35.728 122.78 36.016C123.02 36.664 123.404 37.204 123.932 37.636C124.484 38.092 125.336 38.32 126.488 38.32C127.928 38.32 128.984 37.996 129.656 37.348C130.352 36.7 130.7 35.584 130.7 34V31.552C129.38 33.112 127.532 33.892 125.156 33.892C122.66 33.892 120.776 33.124 119.504 31.588C118.256 30.052 117.584 27.988 117.488 25.396L117.452 24.424L117.488 23.452C117.584 20.908 118.268 18.856 119.54 17.296C120.812 15.712 122.684 14.92 125.156 14.92C126.428 14.92 127.544 15.16 128.504 15.64C129.464 16.12 130.268 16.78 130.916 17.62V16.18C130.916 15.916 131 15.7 131.168 15.532C131.336 15.364 131.54 15.28 131.78 15.28H134.696C134.936 15.28 135.14 15.376 135.308 15.568C135.476 15.736 135.56 15.94 135.56 16.18L135.596 33.532C135.596 36.196 134.852 38.26 133.364 39.724C131.876 41.188 129.644 41.92 126.668 41.92ZM126.488 30.076C127.856 30.076 128.876 29.644 129.548 28.78C130.244 27.916 130.628 26.86 130.7 25.612C130.724 25.42 130.736 25.024 130.736 24.424C130.736 23.848 130.724 23.464 130.7 23.272C130.628 22 130.244 20.932 129.548 20.068C128.876 19.204 127.856 18.772 126.488 18.772C123.896 18.772 122.528 20.368 122.384 23.56L122.348 24.424C122.348 26.128 122.648 27.496 123.248 28.528C123.872 29.56 124.952 30.076 126.488 30.076Z" fill="#131313"/>
</svg>
