<svg width="149" height="43" viewBox="0 0 149 43" fill="none" xmlns="http://www.w3.org/2000/svg">
<circle r="11.5" transform="matrix(1 0 0 -1 12 12)" stroke="#E41222"/>
<path d="M25.924 32.488C26.044 32.608 26.116 32.716 26.14 32.812C26.164 32.908 26.176 32.98 26.176 33.028C26.176 33.292 26.08 33.52 25.888 33.712C25.696 33.904 25.468 34 25.204 34H21.784C21.304 34 20.92 33.88 20.632 33.64C20.344 33.376 20.176 33.22 20.128 33.172L11.668 23.632V33.028C11.668 33.292 11.572 33.52 11.38 33.712C11.188 33.904 10.96 34 10.696 34H7.78C7.516 34 7.288 33.904 7.096 33.712C6.904 33.52 6.808 33.292 6.808 33.028V9.772C6.808 9.508 6.904 9.28 7.096 9.088C7.288 8.896 7.516 8.8 7.78 8.8H10.696C10.96 8.8 11.188 8.896 11.38 9.088C11.572 9.28 11.668 9.508 11.668 9.772V18.232L19.516 9.592C19.732 9.352 19.96 9.16 20.2 9.016C20.44 8.872 20.752 8.8 21.136 8.8H24.448C24.712 8.8 24.94 8.896 25.132 9.088C25.324 9.28 25.42 9.508 25.42 9.772C25.42 9.964 25.348 10.144 25.204 10.312L15.52 20.86L25.924 32.488ZM28.8074 19.888C28.9034 19.384 29.1194 18.844 29.4554 18.268C29.8154 17.692 30.3074 17.152 30.9314 16.648C31.5794 16.144 32.3594 15.736 33.2714 15.424C34.2074 15.088 35.2874 14.92 36.5114 14.92C37.7354 14.92 38.8394 15.088 39.8234 15.424C40.8074 15.736 41.6474 16.204 42.3434 16.828C43.0634 17.452 43.6154 18.244 43.9994 19.204C44.3834 20.14 44.5754 21.22 44.5754 22.444V33.028C44.5754 33.292 44.4794 33.52 44.2874 33.712C44.0954 33.904 43.8674 34 43.6034 34H40.8674C40.6034 34 40.3754 33.904 40.1834 33.712C39.9914 33.52 39.8954 33.292 39.8954 33.028V31.84C39.3914 32.536 38.6594 33.136 37.6994 33.64C36.7634 34.12 35.5634 34.36 34.0994 34.36C33.0674 34.36 32.1434 34.228 31.3274 33.964C30.5114 33.676 29.8274 33.28 29.2754 32.776C28.7234 32.272 28.2914 31.684 27.9794 31.012C27.6914 30.316 27.5474 29.56 27.5474 28.744C27.5474 27.088 28.1354 25.792 29.3114 24.856C30.4874 23.92 32.0594 23.284 34.0274 22.948L39.8954 21.94C39.8954 20.956 39.5714 20.26 38.9234 19.852C38.2754 19.444 37.4714 19.24 36.5114 19.24C35.9114 19.24 35.4434 19.324 35.1074 19.492C34.7714 19.66 34.4474 19.888 34.1354 20.176C33.9194 20.368 33.7154 20.5 33.5234 20.572C33.3554 20.644 33.1634 20.68 32.9474 20.68H29.5994C29.3594 20.68 29.1554 20.608 28.9874 20.464C28.8194 20.32 28.7594 20.128 28.8074 19.888ZM34.8194 30.04C35.6354 30.04 36.3554 29.932 36.9794 29.716C37.6274 29.476 38.1674 29.164 38.5994 28.78C39.0314 28.396 39.3554 27.964 39.5714 27.484C39.7874 27.004 39.8954 26.512 39.8954 26.008V25.648L34.9994 26.512C34.0154 26.68 33.3074 26.932 32.8754 27.268C32.4434 27.58 32.2274 28.012 32.2274 28.564C32.2274 29.068 32.4794 29.44 32.9834 29.68C33.5114 29.92 34.1234 30.04 34.8194 30.04ZM64.7157 15.28C64.9797 15.28 65.2077 15.376 65.3997 15.568C65.5917 15.76 65.6877 15.988 65.6877 16.252V18.628C65.6877 18.892 65.5917 19.12 65.3997 19.312C65.2077 19.504 64.9797 19.6 64.7157 19.6H58.8117V33.028C58.8117 33.292 58.7157 33.52 58.5237 33.712C58.3317 33.904 58.1037 34 57.8397 34H55.1037C54.8397 34 54.6117 33.904 54.4197 33.712C54.2277 33.52 54.1317 33.292 54.1317 33.028V19.6H48.2277C47.9637 19.6 47.7357 19.504 47.5437 19.312C47.3517 19.12 47.2557 18.892 47.2557 18.628V16.252C47.2557 15.988 47.3517 15.76 47.5437 15.568C47.7357 15.376 47.9637 15.28 48.2277 15.28H64.7157ZM68.4285 19.888C68.5245 19.384 68.7405 18.844 69.0765 18.268C69.4365 17.692 69.9285 17.152 70.5525 16.648C71.2005 16.144 71.9805 15.736 72.8925 15.424C73.8285 15.088 74.9085 14.92 76.1325 14.92C77.3565 14.92 78.4605 15.088 79.4445 15.424C80.4285 15.736 81.2685 16.204 81.9645 16.828C82.6845 17.452 83.2365 18.244 83.6205 19.204C84.0045 20.14 84.1965 21.22 84.1965 22.444V33.028C84.1965 33.292 84.1005 33.52 83.9085 33.712C83.7165 33.904 83.4885 34 83.2245 34H80.4885C80.2245 34 79.9965 33.904 79.8045 33.712C79.6125 33.52 79.5165 33.292 79.5165 33.028V31.84C79.0125 32.536 78.2805 33.136 77.3205 33.64C76.3845 34.12 75.1845 34.36 73.7205 34.36C72.6885 34.36 71.7645 34.228 70.9485 33.964C70.1325 33.676 69.4485 33.28 68.8965 32.776C68.3445 32.272 67.9125 31.684 67.6005 31.012C67.3125 30.316 67.1685 29.56 67.1685 28.744C67.1685 27.088 67.7565 25.792 68.9325 24.856C70.1085 23.92 71.6805 23.284 73.6485 22.948L79.5165 21.94C79.5165 20.956 79.1925 20.26 78.5445 19.852C77.8965 19.444 77.0925 19.24 76.1325 19.24C75.5325 19.24 75.0645 19.324 74.7285 19.492C74.3925 19.66 74.0685 19.888 73.7565 20.176C73.5405 20.368 73.3365 20.5 73.1445 20.572C72.9765 20.644 72.7845 20.68 72.5685 20.68H69.2205C68.9805 20.68 68.7765 20.608 68.6085 20.464C68.4405 20.32 68.3805 20.128 68.4285 19.888ZM74.4405 30.04C75.2565 30.04 75.9765 29.932 76.6005 29.716C77.2485 29.476 77.7885 29.164 78.2205 28.78C78.6525 28.396 78.9765 27.964 79.1925 27.484C79.4085 27.004 79.5165 26.512 79.5165 26.008V25.648L74.6205 26.512C73.6365 26.68 72.9285 26.932 72.4965 27.268C72.0645 27.58 71.8485 28.012 71.8485 28.564C71.8485 29.068 72.1005 29.44 72.6045 29.68C73.1325 29.92 73.7445 30.04 74.4405 30.04ZM95.7277 19.6V27.376C95.7277 29.56 95.1757 31.276 94.0717 32.524C92.9917 33.748 91.2877 34.36 88.9597 34.36H88.1317C87.8677 34.36 87.6397 34.264 87.4477 34.072C87.2557 33.88 87.1597 33.652 87.1597 33.388V31.012C87.1597 30.748 87.2557 30.52 87.4477 30.328C87.6397 30.136 87.8677 30.04 88.1317 30.04H88.7797C89.7397 30.04 90.3517 29.8 90.6157 29.32C90.9037 28.816 91.0477 28.108 91.0477 27.196V16.252C91.0477 15.988 91.1437 15.76 91.3357 15.568C91.5277 15.376 91.7557 15.28 92.0197 15.28H105.232C105.496 15.28 105.724 15.376 105.916 15.568C106.108 15.76 106.204 15.988 106.204 16.252V33.028C106.204 33.292 106.108 33.52 105.916 33.712C105.724 33.904 105.496 34 105.232 34H102.496C102.232 34 102.004 33.904 101.812 33.712C101.62 33.52 101.524 33.292 101.524 33.028V19.6H95.7277ZM119.423 14.92C120.743 14.92 121.931 15.124 122.987 15.532C124.067 15.94 124.991 16.504 125.759 17.224C126.551 17.944 127.175 18.784 127.631 19.744C128.111 20.704 128.387 21.736 128.459 22.84C128.483 23.056 128.495 23.332 128.495 23.668C128.495 24.004 128.495 24.34 128.495 24.676C128.495 25.012 128.495 25.348 128.495 25.684C128.495 25.996 128.483 26.26 128.459 26.476C128.363 27.58 128.087 28.612 127.631 29.572C127.175 30.532 126.551 31.372 125.759 32.092C124.991 32.788 124.067 33.34 122.987 33.748C121.931 34.156 120.743 34.36 119.423 34.36C118.103 34.36 116.903 34.156 115.823 33.748C114.767 33.34 113.843 32.788 113.051 32.092C112.283 31.372 111.671 30.532 111.215 29.572C110.759 28.612 110.483 27.58 110.387 26.476C110.363 26.26 110.339 25.996 110.315 25.684C110.315 25.348 110.315 25.012 110.315 24.676C110.315 24.34 110.315 24.004 110.315 23.668C110.339 23.332 110.363 23.056 110.387 22.84C110.459 21.736 110.723 20.704 111.179 19.744C111.659 18.784 112.283 17.944 113.051 17.224C113.843 16.504 114.767 15.94 115.823 15.532C116.903 15.124 118.103 14.92 119.423 14.92ZM123.779 23.02C123.707 22.276 123.527 21.664 123.239 21.184C122.975 20.68 122.639 20.284 122.231 19.996C121.823 19.708 121.379 19.516 120.899 19.42C120.419 19.3 119.927 19.24 119.423 19.24C118.919 19.24 118.427 19.3 117.947 19.42C117.467 19.516 117.023 19.708 116.615 19.996C116.207 20.284 115.859 20.68 115.571 21.184C115.307 21.664 115.139 22.276 115.067 23.02C115.043 23.212 115.019 23.452 114.995 23.74C114.995 24.028 114.995 24.328 114.995 24.64C114.995 24.952 114.995 25.264 114.995 25.576C115.019 25.864 115.043 26.092 115.067 26.26C115.139 27.004 115.307 27.628 115.571 28.132C115.859 28.612 116.207 28.996 116.615 29.284C117.023 29.572 117.467 29.776 117.947 29.896C118.427 29.992 118.919 30.04 119.423 30.04C119.927 30.04 120.419 29.992 120.899 29.896C121.379 29.776 121.823 29.572 122.231 29.284C122.639 28.996 122.975 28.612 123.239 28.132C123.527 27.628 123.707 27.004 123.779 26.26C123.803 26.092 123.815 25.864 123.815 25.576C123.815 25.264 123.815 24.952 123.815 24.64C123.815 24.328 123.815 24.028 123.815 23.74C123.815 23.452 123.803 23.212 123.779 23.02ZM146.773 15.28C147.037 15.28 147.265 15.376 147.457 15.568C147.649 15.76 147.745 15.988 147.745 16.252V18.628C147.745 18.892 147.649 19.12 147.457 19.312C147.265 19.504 147.037 19.6 146.773 19.6H137.269V33.028C137.269 33.292 137.173 33.52 136.981 33.712C136.789 33.904 136.561 34 136.297 34H133.561C133.297 34 133.069 33.904 132.877 33.712C132.685 33.52 132.589 33.292 132.589 33.028V16.252C132.589 15.988 132.685 15.76 132.877 15.568C133.069 15.376 133.297 15.28 133.561 15.28H146.773Z" fill="#131313"/>
</svg>
