<svg width="195" height="45" viewBox="0 0 195 45" fill="none" xmlns="http://www.w3.org/2000/svg">
<path d="M74.14 22C74.06 22 73.988 21.972 73.924 21.916C73.868 21.852 73.84 21.78 73.84 21.7V13.9C73.84 13.812 73.868 13.74 73.924 13.684C73.988 13.628 74.06 13.6 74.14 13.6H79.66C79.748 13.6 79.82 13.628 79.876 13.684C79.932 13.74 79.96 13.812 79.96 13.9V15.112C79.96 15.192 79.932 15.264 79.876 15.328C79.82 15.384 79.748 15.412 79.66 15.412H75.952V17.176H79.42C79.508 17.176 79.58 17.208 79.636 17.272C79.692 17.328 79.72 17.4 79.72 17.488V18.688C79.72 18.768 79.692 18.84 79.636 18.904C79.58 18.96 79.508 18.988 79.42 18.988H75.952V21.7C75.952 21.788 75.924 21.86 75.868 21.916C75.812 21.972 75.74 22 75.652 22H74.14ZM82.7402 22.12C82.3162 22.12 81.9282 22.04 81.5762 21.88C81.2322 21.712 80.9602 21.488 80.7602 21.208C80.5682 20.92 80.4722 20.604 80.4722 20.26C80.4722 19.708 80.6962 19.264 81.1442 18.928C81.6002 18.592 82.2242 18.36 83.0162 18.232L84.5162 18.004V17.836C84.5162 17.532 84.4522 17.308 84.3242 17.164C84.1962 17.02 83.9802 16.948 83.6762 16.948C83.4922 16.948 83.3402 16.98 83.2202 17.044C83.1002 17.108 82.9762 17.196 82.8482 17.308C82.7362 17.404 82.6522 17.468 82.5962 17.5C82.5722 17.564 82.5282 17.596 82.4642 17.596H81.1562C81.0762 17.596 81.0082 17.572 80.9522 17.524C80.9042 17.468 80.8842 17.404 80.8922 17.332C80.9002 17.116 81.0042 16.876 81.2042 16.612C81.4122 16.348 81.7242 16.12 82.1402 15.928C82.5642 15.736 83.0842 15.64 83.7002 15.64C84.6842 15.64 85.4122 15.86 85.8842 16.3C86.3562 16.732 86.5922 17.316 86.5922 18.052V21.7C86.5922 21.78 86.5642 21.852 86.5082 21.916C86.4522 21.972 86.3802 22 86.2922 22H84.9002C84.8202 22 84.7482 21.972 84.6842 21.916C84.6282 21.852 84.6002 21.78 84.6002 21.7V21.28C84.4242 21.528 84.1762 21.732 83.8562 21.892C83.5442 22.044 83.1722 22.12 82.7402 22.12ZM83.3042 20.752C83.6722 20.752 83.9682 20.632 84.1922 20.392C84.4242 20.152 84.5402 19.8 84.5402 19.336V19.168L83.5202 19.348C82.8002 19.476 82.4402 19.728 82.4402 20.104C82.4402 20.304 82.5242 20.464 82.6922 20.584C82.8602 20.696 83.0642 20.752 83.3042 20.752ZM91.7623 22.12C90.9623 22.12 90.3423 21.852 89.9023 21.316V21.7C89.9023 21.78 89.8743 21.852 89.8183 21.916C89.7623 21.972 89.6903 22 89.6023 22H88.2463C88.1663 22 88.0943 21.972 88.0303 21.916C87.9743 21.852 87.9463 21.78 87.9463 21.7V13.78C87.9463 13.692 87.9743 13.62 88.0303 13.564C88.0943 13.508 88.1663 13.48 88.2463 13.48H89.7103C89.7983 13.48 89.8703 13.508 89.9263 13.564C89.9823 13.62 90.0103 13.692 90.0103 13.78V16.348C90.4583 15.876 91.0423 15.64 91.7623 15.64C92.5383 15.64 93.1503 15.892 93.5983 16.396C94.0463 16.9 94.2863 17.584 94.3183 18.448C94.3263 18.552 94.3303 18.696 94.3303 18.88C94.3303 19.056 94.3263 19.196 94.3183 19.3C94.2783 20.196 94.0383 20.892 93.5983 21.388C93.1583 21.876 92.5463 22.12 91.7623 22.12ZM91.1143 20.512C91.4903 20.512 91.7583 20.4 91.9183 20.176C92.0863 19.952 92.1823 19.644 92.2063 19.252C92.2223 19.092 92.2303 18.968 92.2303 18.88C92.2303 18.792 92.2223 18.668 92.2063 18.508C92.1823 18.116 92.0863 17.808 91.9183 17.584C91.7583 17.36 91.4903 17.248 91.1143 17.248C90.7623 17.248 90.4943 17.356 90.3103 17.572C90.1263 17.788 90.0263 18.06 90.0103 18.388L89.9983 18.832L90.0103 19.288C90.0343 19.648 90.1303 19.944 90.2983 20.176C90.4743 20.4 90.7463 20.512 91.1143 20.512ZM95.8166 22C95.7286 22 95.6566 21.972 95.6006 21.916C95.5446 21.86 95.5166 21.788 95.5166 21.7V16.06C95.5166 15.972 95.5446 15.9 95.6006 15.844C95.6566 15.788 95.7286 15.76 95.8166 15.76H97.1966C97.2846 15.76 97.3566 15.792 97.4126 15.856C97.4766 15.912 97.5086 15.98 97.5086 16.06V16.54C97.9486 16.02 98.5406 15.76 99.2846 15.76H99.8126C99.9006 15.76 99.9726 15.788 100.029 15.844C100.085 15.9 100.113 15.972 100.113 16.06V17.296C100.113 17.376 100.085 17.448 100.029 17.512C99.9726 17.568 99.9006 17.596 99.8126 17.596H98.6486C98.3206 17.596 98.0646 17.688 97.8806 17.872C97.7046 18.048 97.6166 18.3 97.6166 18.628V21.7C97.6166 21.788 97.5846 21.86 97.5206 21.916C97.4646 21.972 97.3926 22 97.3046 22H95.8166ZM101.254 14.86C101.166 14.86 101.094 14.832 101.038 14.776C100.982 14.72 100.954 14.648 100.954 14.56V13.48C100.954 13.392 100.982 13.32 101.038 13.264C101.094 13.208 101.166 13.18 101.254 13.18H102.694C102.782 13.18 102.854 13.208 102.91 13.264C102.966 13.32 102.994 13.392 102.994 13.48V14.56C102.994 14.648 102.966 14.72 102.91 14.776C102.854 14.832 102.782 14.86 102.694 14.86H101.254ZM101.266 22C101.178 22 101.106 21.972 101.05 21.916C100.994 21.86 100.966 21.788 100.966 21.7V16.06C100.966 15.972 100.994 15.9 101.05 15.844C101.106 15.788 101.178 15.76 101.266 15.76H102.682C102.77 15.76 102.842 15.788 102.898 15.844C102.954 15.9 102.982 15.972 102.982 16.06V21.7C102.982 21.78 102.954 21.852 102.898 21.916C102.842 21.972 102.77 22 102.682 22H101.266ZM107.267 22.12C106.363 22.12 105.631 21.88 105.071 21.4C104.511 20.912 104.211 20.236 104.171 19.372L104.159 18.892L104.171 18.4C104.203 17.536 104.499 16.86 105.059 16.372C105.627 15.884 106.363 15.64 107.267 15.64C107.947 15.64 108.519 15.764 108.983 16.012C109.455 16.252 109.803 16.544 110.027 16.888C110.259 17.224 110.383 17.532 110.399 17.812C110.407 17.892 110.379 17.964 110.315 18.028C110.259 18.084 110.187 18.112 110.099 18.112H108.575C108.487 18.112 108.419 18.092 108.371 18.052C108.323 18.012 108.279 17.952 108.239 17.872C108.143 17.624 108.019 17.448 107.867 17.344C107.723 17.24 107.535 17.188 107.303 17.188C106.647 17.188 106.307 17.612 106.283 18.46L106.271 18.916L106.283 19.312C106.299 19.744 106.391 20.064 106.559 20.272C106.735 20.472 106.983 20.572 107.303 20.572C107.551 20.572 107.747 20.52 107.891 20.416C108.035 20.312 108.151 20.136 108.239 19.888C108.279 19.808 108.323 19.748 108.371 19.708C108.419 19.668 108.487 19.648 108.575 19.648H110.099C110.179 19.648 110.247 19.676 110.303 19.732C110.367 19.78 110.399 19.844 110.399 19.924C110.399 20.18 110.287 20.48 110.063 20.824C109.847 21.168 109.503 21.472 109.031 21.736C108.559 21.992 107.971 22.12 107.267 22.12ZM113.35 22.12C112.926 22.12 112.538 22.04 112.186 21.88C111.842 21.712 111.57 21.488 111.37 21.208C111.178 20.92 111.082 20.604 111.082 20.26C111.082 19.708 111.306 19.264 111.754 18.928C112.21 18.592 112.834 18.36 113.626 18.232L115.126 18.004V17.836C115.126 17.532 115.062 17.308 114.934 17.164C114.806 17.02 114.59 16.948 114.286 16.948C114.102 16.948 113.95 16.98 113.83 17.044C113.71 17.108 113.586 17.196 113.458 17.308C113.346 17.404 113.262 17.468 113.206 17.5C113.182 17.564 113.138 17.596 113.074 17.596H111.766C111.686 17.596 111.618 17.572 111.562 17.524C111.514 17.468 111.494 17.404 111.502 17.332C111.51 17.116 111.614 16.876 111.814 16.612C112.022 16.348 112.334 16.12 112.75 15.928C113.174 15.736 113.694 15.64 114.31 15.64C115.294 15.64 116.022 15.86 116.494 16.3C116.966 16.732 117.202 17.316 117.202 18.052V21.7C117.202 21.78 117.174 21.852 117.118 21.916C117.062 21.972 116.99 22 116.902 22H115.51C115.43 22 115.358 21.972 115.294 21.916C115.238 21.852 115.21 21.78 115.21 21.7V21.28C115.034 21.528 114.786 21.732 114.466 21.892C114.154 22.044 113.782 22.12 113.35 22.12ZM113.914 20.752C114.282 20.752 114.578 20.632 114.802 20.392C115.034 20.152 115.15 19.8 115.15 19.336V19.168L114.13 19.348C113.41 19.476 113.05 19.728 113.05 20.104C113.05 20.304 113.134 20.464 113.302 20.584C113.47 20.696 113.674 20.752 113.914 20.752ZM123.438 22.12C122.654 22.12 122.042 21.876 121.602 21.388C121.17 20.892 120.934 20.196 120.894 19.3L120.882 18.88L120.894 18.448C120.926 17.584 121.162 16.9 121.602 16.396C122.05 15.892 122.662 15.64 123.438 15.64C124.166 15.64 124.754 15.876 125.202 16.348V13.78C125.202 13.692 125.23 13.62 125.286 13.564C125.342 13.508 125.414 13.48 125.502 13.48H126.966C127.054 13.48 127.126 13.508 127.182 13.564C127.238 13.62 127.266 13.692 127.266 13.78V21.7C127.266 21.78 127.238 21.852 127.182 21.916C127.126 21.972 127.054 22 126.966 22H125.61C125.53 22 125.458 21.972 125.394 21.916C125.338 21.852 125.31 21.78 125.31 21.7V21.316C124.87 21.852 124.246 22.12 123.438 22.12ZM124.098 20.512C124.458 20.512 124.726 20.4 124.902 20.176C125.078 19.944 125.178 19.648 125.202 19.288C125.21 19.184 125.214 19.032 125.214 18.832C125.214 18.64 125.21 18.492 125.202 18.388C125.186 18.06 125.086 17.788 124.902 17.572C124.718 17.356 124.45 17.248 124.098 17.248C123.722 17.248 123.45 17.36 123.282 17.584C123.122 17.808 123.03 18.116 123.006 18.508C122.998 18.588 122.994 18.712 122.994 18.88C122.994 19.048 122.998 19.172 123.006 19.252C123.03 19.644 123.122 19.952 123.282 20.176C123.45 20.4 123.722 20.512 124.098 20.512ZM131.561 22.12C130.601 22.12 129.845 21.86 129.293 21.34C128.741 20.82 128.453 20.064 128.429 19.072V18.652C128.461 17.708 128.753 16.972 129.305 16.444C129.865 15.908 130.613 15.64 131.549 15.64C132.229 15.64 132.801 15.78 133.265 16.06C133.737 16.332 134.089 16.708 134.321 17.188C134.561 17.668 134.681 18.22 134.681 18.844V19.132C134.681 19.212 134.653 19.284 134.597 19.348C134.541 19.404 134.469 19.432 134.381 19.432H130.541V19.516C130.557 19.892 130.649 20.196 130.817 20.428C130.985 20.66 131.229 20.776 131.549 20.776C131.749 20.776 131.913 20.736 132.041 20.656C132.169 20.568 132.285 20.464 132.389 20.344C132.461 20.256 132.517 20.204 132.557 20.188C132.605 20.164 132.677 20.152 132.773 20.152H134.261C134.333 20.152 134.393 20.176 134.441 20.224C134.497 20.264 134.525 20.32 134.525 20.392C134.525 20.6 134.405 20.84 134.165 21.112C133.933 21.384 133.593 21.62 133.145 21.82C132.697 22.02 132.169 22.12 131.561 22.12ZM132.569 18.244V18.22C132.569 17.828 132.477 17.52 132.293 17.296C132.117 17.064 131.869 16.948 131.549 16.948C131.237 16.948 130.989 17.064 130.805 17.296C130.629 17.52 130.541 17.828 130.541 18.22V18.244H132.569ZM138.66 22C138.572 22 138.5 21.972 138.444 21.916C138.388 21.86 138.36 21.788 138.36 21.7V16.06C138.36 15.972 138.388 15.9 138.444 15.844C138.5 15.788 138.572 15.76 138.66 15.76H139.968C140.056 15.76 140.128 15.788 140.184 15.844C140.24 15.9 140.268 15.972 140.268 16.06V16.468C140.452 16.228 140.696 16.032 141 15.88C141.312 15.72 141.66 15.64 142.044 15.64C142.924 15.64 143.532 15.984 143.868 16.672C144.06 16.368 144.328 16.12 144.672 15.928C145.016 15.736 145.384 15.64 145.776 15.64C146.432 15.64 146.964 15.864 147.372 16.312C147.788 16.752 147.996 17.412 147.996 18.292V21.7C147.996 21.78 147.968 21.852 147.912 21.916C147.856 21.972 147.784 22 147.696 22H146.304C146.216 22 146.14 21.972 146.076 21.916C146.02 21.86 145.992 21.788 145.992 21.7V18.376C145.992 17.976 145.908 17.688 145.74 17.512C145.58 17.336 145.36 17.248 145.08 17.248C144.824 17.248 144.612 17.34 144.444 17.524C144.276 17.7 144.192 17.984 144.192 18.376V21.7C144.192 21.78 144.164 21.852 144.108 21.916C144.052 21.972 143.98 22 143.892 22H142.5C142.412 22 142.34 21.972 142.284 21.916C142.228 21.86 142.2 21.788 142.2 21.7V18.376C142.2 17.984 142.112 17.7 141.936 17.524C141.768 17.34 141.552 17.248 141.288 17.248C141.032 17.248 140.816 17.34 140.64 17.524C140.472 17.7 140.388 17.98 140.388 18.364V21.7C140.388 21.78 140.36 21.852 140.304 21.916C140.248 21.972 140.176 22 140.088 22H138.66ZM151.225 22.12C150.801 22.12 150.413 22.04 150.061 21.88C149.717 21.712 149.445 21.488 149.245 21.208C149.053 20.92 148.957 20.604 148.957 20.26C148.957 19.708 149.181 19.264 149.629 18.928C150.085 18.592 150.709 18.36 151.501 18.232L153.001 18.004V17.836C153.001 17.532 152.937 17.308 152.809 17.164C152.681 17.02 152.465 16.948 152.161 16.948C151.977 16.948 151.825 16.98 151.705 17.044C151.585 17.108 151.461 17.196 151.333 17.308C151.221 17.404 151.137 17.468 151.081 17.5C151.057 17.564 151.013 17.596 150.949 17.596H149.641C149.561 17.596 149.493 17.572 149.437 17.524C149.389 17.468 149.369 17.404 149.377 17.332C149.385 17.116 149.489 16.876 149.689 16.612C149.897 16.348 150.209 16.12 150.625 15.928C151.049 15.736 151.569 15.64 152.185 15.64C153.169 15.64 153.897 15.86 154.369 16.3C154.841 16.732 155.077 17.316 155.077 18.052V21.7C155.077 21.78 155.049 21.852 154.993 21.916C154.937 21.972 154.865 22 154.777 22H153.385C153.305 22 153.233 21.972 153.169 21.916C153.113 21.852 153.085 21.78 153.085 21.7V21.28C152.909 21.528 152.661 21.732 152.341 21.892C152.029 22.044 151.657 22.12 151.225 22.12ZM151.789 20.752C152.157 20.752 152.453 20.632 152.677 20.392C152.909 20.152 153.025 19.8 153.025 19.336V19.168L152.005 19.348C151.285 19.476 150.925 19.728 150.925 20.104C150.925 20.304 151.009 20.464 151.177 20.584C151.345 20.696 151.549 20.752 151.789 20.752ZM159.576 22C157.92 22 157.092 21.212 157.092 19.636V17.332H156.156C156.068 17.332 155.992 17.304 155.928 17.248C155.872 17.192 155.844 17.12 155.844 17.032V16.06C155.844 15.972 155.872 15.9 155.928 15.844C155.992 15.788 156.068 15.76 156.156 15.76H157.092V13.78C157.092 13.692 157.12 13.62 157.176 13.564C157.24 13.508 157.312 13.48 157.392 13.48H158.784C158.872 13.48 158.944 13.508 159 13.564C159.056 13.62 159.084 13.692 159.084 13.78V15.76H160.584C160.672 15.76 160.744 15.788 160.8 15.844C160.864 15.9 160.896 15.972 160.896 16.06V17.032C160.896 17.12 160.864 17.192 160.8 17.248C160.744 17.304 160.672 17.332 160.584 17.332H159.084V19.468C159.084 20.06 159.312 20.356 159.768 20.356H160.692C160.78 20.356 160.852 20.384 160.908 20.44C160.964 20.496 160.992 20.568 160.992 20.656V21.7C160.992 21.78 160.964 21.852 160.908 21.916C160.852 21.972 160.78 22 160.692 22H159.576ZM164.865 22.12C163.905 22.12 163.149 21.86 162.597 21.34C162.045 20.82 161.757 20.064 161.733 19.072V18.652C161.765 17.708 162.057 16.972 162.609 16.444C163.169 15.908 163.917 15.64 164.853 15.64C165.533 15.64 166.105 15.78 166.569 16.06C167.041 16.332 167.393 16.708 167.625 17.188C167.865 17.668 167.985 18.22 167.985 18.844V19.132C167.985 19.212 167.957 19.284 167.901 19.348C167.845 19.404 167.773 19.432 167.685 19.432H163.845V19.516C163.861 19.892 163.953 20.196 164.121 20.428C164.289 20.66 164.533 20.776 164.853 20.776C165.053 20.776 165.217 20.736 165.345 20.656C165.473 20.568 165.589 20.464 165.693 20.344C165.765 20.256 165.821 20.204 165.861 20.188C165.909 20.164 165.981 20.152 166.077 20.152H167.565C167.637 20.152 167.697 20.176 167.745 20.224C167.801 20.264 167.829 20.32 167.829 20.392C167.829 20.6 167.709 20.84 167.469 21.112C167.237 21.384 166.897 21.62 166.449 21.82C166.001 22.02 165.473 22.12 164.865 22.12ZM165.873 18.244V18.22C165.873 17.828 165.781 17.52 165.597 17.296C165.421 17.064 165.173 16.948 164.853 16.948C164.541 16.948 164.293 17.064 164.109 17.296C163.933 17.52 163.845 17.828 163.845 18.22V18.244H165.873ZM169.41 22C169.322 22 169.25 21.972 169.194 21.916C169.138 21.86 169.11 21.788 169.11 21.7V16.06C169.11 15.972 169.138 15.9 169.194 15.844C169.25 15.788 169.322 15.76 169.41 15.76H170.79C170.878 15.76 170.95 15.792 171.006 15.856C171.07 15.912 171.102 15.98 171.102 16.06V16.54C171.542 16.02 172.134 15.76 172.878 15.76H173.406C173.494 15.76 173.566 15.788 173.622 15.844C173.678 15.9 173.706 15.972 173.706 16.06V17.296C173.706 17.376 173.678 17.448 173.622 17.512C173.566 17.568 173.494 17.596 173.406 17.596H172.242C171.914 17.596 171.658 17.688 171.474 17.872C171.298 18.048 171.21 18.3 171.21 18.628V21.7C171.21 21.788 171.178 21.86 171.114 21.916C171.058 21.972 170.986 22 170.898 22H169.41ZM174.848 14.86C174.76 14.86 174.688 14.832 174.632 14.776C174.576 14.72 174.548 14.648 174.548 14.56V13.48C174.548 13.392 174.576 13.32 174.632 13.264C174.688 13.208 174.76 13.18 174.848 13.18H176.288C176.376 13.18 176.448 13.208 176.504 13.264C176.56 13.32 176.588 13.392 176.588 13.48V14.56C176.588 14.648 176.56 14.72 176.504 14.776C176.448 14.832 176.376 14.86 176.288 14.86H174.848ZM174.86 22C174.772 22 174.7 21.972 174.644 21.916C174.588 21.86 174.56 21.788 174.56 21.7V16.06C174.56 15.972 174.588 15.9 174.644 15.844C174.7 15.788 174.772 15.76 174.86 15.76H176.276C176.364 15.76 176.436 15.788 176.492 15.844C176.548 15.9 176.576 15.972 176.576 16.06V21.7C176.576 21.78 176.548 21.852 176.492 21.916C176.436 21.972 176.364 22 176.276 22H174.86ZM179.865 22.12C179.441 22.12 179.053 22.04 178.701 21.88C178.357 21.712 178.085 21.488 177.885 21.208C177.693 20.92 177.597 20.604 177.597 20.26C177.597 19.708 177.821 19.264 178.269 18.928C178.725 18.592 179.349 18.36 180.141 18.232L181.641 18.004V17.836C181.641 17.532 181.577 17.308 181.449 17.164C181.321 17.02 181.105 16.948 180.801 16.948C180.617 16.948 180.465 16.98 180.345 17.044C180.225 17.108 180.101 17.196 179.973 17.308C179.861 17.404 179.777 17.468 179.721 17.5C179.697 17.564 179.653 17.596 179.589 17.596H178.281C178.201 17.596 178.133 17.572 178.077 17.524C178.029 17.468 178.009 17.404 178.017 17.332C178.025 17.116 178.129 16.876 178.329 16.612C178.537 16.348 178.849 16.12 179.265 15.928C179.689 15.736 180.209 15.64 180.825 15.64C181.809 15.64 182.537 15.86 183.009 16.3C183.481 16.732 183.717 17.316 183.717 18.052V21.7C183.717 21.78 183.689 21.852 183.633 21.916C183.577 21.972 183.505 22 183.417 22H182.025C181.945 22 181.873 21.972 181.809 21.916C181.753 21.852 181.725 21.78 181.725 21.7V21.28C181.549 21.528 181.301 21.732 180.981 21.892C180.669 22.044 180.297 22.12 179.865 22.12ZM180.429 20.752C180.797 20.752 181.093 20.632 181.317 20.392C181.549 20.152 181.665 19.8 181.665 19.336V19.168L180.645 19.348C179.925 19.476 179.565 19.728 179.565 20.104C179.565 20.304 179.649 20.464 179.817 20.584C179.985 20.696 180.189 20.752 180.429 20.752ZM185.371 22C185.291 22 185.219 21.972 185.155 21.916C185.099 21.852 185.071 21.78 185.071 21.7V13.78C185.071 13.692 185.099 13.62 185.155 13.564C185.219 13.508 185.291 13.48 185.371 13.48H186.787C186.875 13.48 186.947 13.508 187.003 13.564C187.059 13.62 187.087 13.692 187.087 13.78V21.7C187.087 21.788 187.059 21.86 187.003 21.916C186.947 21.972 186.875 22 186.787 22H185.371ZM191.385 22.12C190.425 22.12 189.669 21.86 189.117 21.34C188.565 20.82 188.277 20.064 188.253 19.072V18.652C188.285 17.708 188.577 16.972 189.129 16.444C189.689 15.908 190.437 15.64 191.373 15.64C192.053 15.64 192.625 15.78 193.089 16.06C193.561 16.332 193.913 16.708 194.145 17.188C194.385 17.668 194.505 18.22 194.505 18.844V19.132C194.505 19.212 194.477 19.284 194.421 19.348C194.365 19.404 194.293 19.432 194.205 19.432H190.365V19.516C190.381 19.892 190.473 20.196 190.641 20.428C190.809 20.66 191.053 20.776 191.373 20.776C191.573 20.776 191.737 20.736 191.865 20.656C191.993 20.568 192.109 20.464 192.213 20.344C192.285 20.256 192.341 20.204 192.381 20.188C192.429 20.164 192.501 20.152 192.597 20.152H194.085C194.157 20.152 194.217 20.176 194.265 20.224C194.321 20.264 194.349 20.32 194.349 20.392C194.349 20.6 194.229 20.84 193.989 21.112C193.757 21.384 193.417 21.62 192.969 21.82C192.521 22.02 191.993 22.12 191.385 22.12ZM192.393 18.244V18.22C192.393 17.828 192.301 17.52 192.117 17.296C191.941 17.064 191.693 16.948 191.373 16.948C191.061 16.948 190.813 17.064 190.629 17.296C190.453 17.52 190.365 17.828 190.365 18.22V18.244H192.393ZM75.58 36.12C75.156 36.12 74.768 36.04 74.416 35.88C74.072 35.712 73.8 35.488 73.6 35.208C73.408 34.92 73.312 34.604 73.312 34.26C73.312 33.708 73.536 33.264 73.984 32.928C74.44 32.592 75.064 32.36 75.856 32.232L77.356 32.004V31.836C77.356 31.532 77.292 31.308 77.164 31.164C77.036 31.02 76.82 30.948 76.516 30.948C76.332 30.948 76.18 30.98 76.06 31.044C75.94 31.108 75.816 31.196 75.688 31.308C75.576 31.404 75.492 31.468 75.436 31.5C75.412 31.564 75.368 31.596 75.304 31.596H73.996C73.916 31.596 73.848 31.572 73.792 31.524C73.744 31.468 73.724 31.404 73.732 31.332C73.74 31.116 73.844 30.876 74.044 30.612C74.252 30.348 74.564 30.12 74.98 29.928C75.404 29.736 75.924 29.64 76.54 29.64C77.524 29.64 78.252 29.86 78.724 30.3C79.196 30.732 79.432 31.316 79.432 32.052V35.7C79.432 35.78 79.404 35.852 79.348 35.916C79.292 35.972 79.22 36 79.132 36H77.74C77.66 36 77.588 35.972 77.524 35.916C77.468 35.852 77.44 35.78 77.44 35.7V35.28C77.264 35.528 77.016 35.732 76.696 35.892C76.384 36.044 76.012 36.12 75.58 36.12ZM76.144 34.752C76.512 34.752 76.808 34.632 77.032 34.392C77.264 34.152 77.38 33.8 77.38 33.336V33.168L76.36 33.348C75.64 33.476 75.28 33.728 75.28 34.104C75.28 34.304 75.364 34.464 75.532 34.584C75.7 34.696 75.904 34.752 76.144 34.752ZM83.0781 36.12C82.3741 36.12 81.8061 35.884 81.3741 35.412C80.9421 34.932 80.7261 34.264 80.7261 33.408V30.06C80.7261 29.972 80.7541 29.9 80.8101 29.844C80.8661 29.788 80.9381 29.76 81.0261 29.76H82.5261C82.6141 29.76 82.6861 29.788 82.7421 29.844C82.8061 29.9 82.8381 29.972 82.8381 30.06V33.336C82.8381 34.12 83.1861 34.512 83.8821 34.512C84.2181 34.512 84.4821 34.408 84.6741 34.2C84.8661 33.992 84.9621 33.704 84.9621 33.336V30.06C84.9621 29.972 84.9901 29.9 85.0461 29.844C85.1101 29.788 85.1821 29.76 85.2621 29.76H86.7621C86.8501 29.76 86.9221 29.788 86.9781 29.844C87.0341 29.9 87.0621 29.972 87.0621 30.06V35.7C87.0621 35.78 87.0341 35.852 86.9781 35.916C86.9221 35.972 86.8501 36 86.7621 36H85.3701C85.2901 36 85.2181 35.972 85.1541 35.916C85.0981 35.852 85.0701 35.78 85.0701 35.7V35.244C84.6541 35.828 83.9901 36.12 83.0781 36.12ZM91.6656 36C90.0096 36 89.1816 35.212 89.1816 33.636V31.332H88.2456C88.1576 31.332 88.0816 31.304 88.0176 31.248C87.9616 31.192 87.9336 31.12 87.9336 31.032V30.06C87.9336 29.972 87.9616 29.9 88.0176 29.844C88.0816 29.788 88.1576 29.76 88.2456 29.76H89.1816V27.78C89.1816 27.692 89.2096 27.62 89.2656 27.564C89.3296 27.508 89.4016 27.48 89.4816 27.48H90.8736C90.9616 27.48 91.0336 27.508 91.0896 27.564C91.1456 27.62 91.1736 27.692 91.1736 27.78V29.76H92.6736C92.7616 29.76 92.8336 29.788 92.8896 29.844C92.9536 29.9 92.9856 29.972 92.9856 30.06V31.032C92.9856 31.12 92.9536 31.192 92.8896 31.248C92.8336 31.304 92.7616 31.332 92.6736 31.332H91.1736V33.468C91.1736 34.06 91.4016 34.356 91.8576 34.356H92.7816C92.8696 34.356 92.9416 34.384 92.9976 34.44C93.0536 34.496 93.0816 34.568 93.0816 34.656V35.7C93.0816 35.78 93.0536 35.852 92.9976 35.916C92.9416 35.972 92.8696 36 92.7816 36H91.6656ZM97.0272 36.12C96.0352 36.12 95.2712 35.884 94.7352 35.412C94.1992 34.94 93.9072 34.276 93.8592 33.42C93.8512 33.316 93.8472 33.136 93.8472 32.88C93.8472 32.624 93.8512 32.444 93.8592 32.34C93.9072 31.492 94.2072 30.832 94.7592 30.36C95.3112 29.88 96.0672 29.64 97.0272 29.64C97.9952 29.64 98.7552 29.88 99.3072 30.36C99.8592 30.832 100.159 31.492 100.207 32.34C100.215 32.444 100.219 32.624 100.219 32.88C100.219 33.136 100.215 33.316 100.207 33.42C100.159 34.276 99.8672 34.94 99.3312 35.412C98.7952 35.884 98.0272 36.12 97.0272 36.12ZM97.0272 34.656C97.3792 34.656 97.6392 34.552 97.8072 34.344C97.9752 34.128 98.0712 33.8 98.0952 33.36C98.1032 33.28 98.1072 33.12 98.1072 32.88C98.1072 32.64 98.1032 32.48 98.0952 32.4C98.0712 31.968 97.9712 31.644 97.7952 31.428C97.6272 31.212 97.3712 31.104 97.0272 31.104C96.3632 31.104 96.0112 31.536 95.9712 32.4L95.9592 32.88L95.9712 33.36C95.9872 33.8 96.0792 34.128 96.2472 34.344C96.4232 34.552 96.6832 34.656 97.0272 34.656ZM103.283 36.12C102.859 36.12 102.471 36.04 102.119 35.88C101.775 35.712 101.503 35.488 101.303 35.208C101.111 34.92 101.015 34.604 101.015 34.26C101.015 33.708 101.239 33.264 101.687 32.928C102.143 32.592 102.767 32.36 103.559 32.232L105.059 32.004V31.836C105.059 31.532 104.995 31.308 104.867 31.164C104.739 31.02 104.523 30.948 104.219 30.948C104.035 30.948 103.883 30.98 103.763 31.044C103.643 31.108 103.519 31.196 103.391 31.308C103.279 31.404 103.195 31.468 103.139 31.5C103.115 31.564 103.071 31.596 103.007 31.596H101.699C101.619 31.596 101.551 31.572 101.495 31.524C101.447 31.468 101.427 31.404 101.435 31.332C101.443 31.116 101.547 30.876 101.747 30.612C101.955 30.348 102.267 30.12 102.683 29.928C103.107 29.736 103.627 29.64 104.243 29.64C105.227 29.64 105.955 29.86 106.427 30.3C106.899 30.732 107.135 31.316 107.135 32.052V35.7C107.135 35.78 107.107 35.852 107.051 35.916C106.995 35.972 106.923 36 106.835 36H105.443C105.363 36 105.291 35.972 105.227 35.916C105.171 35.852 105.143 35.78 105.143 35.7V35.28C104.967 35.528 104.719 35.732 104.399 35.892C104.087 36.044 103.715 36.12 103.283 36.12ZM103.847 34.752C104.215 34.752 104.511 34.632 104.735 34.392C104.967 34.152 105.083 33.8 105.083 33.336V33.168L104.063 33.348C103.343 33.476 102.983 33.728 102.983 34.104C102.983 34.304 103.067 34.464 103.235 34.584C103.403 34.696 103.607 34.752 103.847 34.752ZM110.817 36.12C110.033 36.12 109.421 35.876 108.981 35.388C108.549 34.892 108.313 34.196 108.273 33.3L108.261 32.88L108.273 32.448C108.305 31.584 108.541 30.9 108.981 30.396C109.429 29.892 110.041 29.64 110.817 29.64C111.545 29.64 112.133 29.876 112.581 30.348V27.78C112.581 27.692 112.609 27.62 112.665 27.564C112.721 27.508 112.793 27.48 112.881 27.48H114.345C114.433 27.48 114.505 27.508 114.561 27.564C114.617 27.62 114.645 27.692 114.645 27.78V35.7C114.645 35.78 114.617 35.852 114.561 35.916C114.505 35.972 114.433 36 114.345 36H112.989C112.909 36 112.837 35.972 112.773 35.916C112.717 35.852 112.689 35.78 112.689 35.7V35.316C112.249 35.852 111.625 36.12 110.817 36.12ZM111.477 34.512C111.837 34.512 112.105 34.4 112.281 34.176C112.457 33.944 112.557 33.648 112.581 33.288C112.589 33.184 112.593 33.032 112.593 32.832C112.593 32.64 112.589 32.492 112.581 32.388C112.565 32.06 112.465 31.788 112.281 31.572C112.097 31.356 111.829 31.248 111.477 31.248C111.101 31.248 110.829 31.36 110.661 31.584C110.501 31.808 110.409 32.116 110.385 32.508C110.377 32.588 110.373 32.712 110.373 32.88C110.373 33.048 110.377 33.172 110.385 33.252C110.409 33.644 110.501 33.952 110.661 34.176C110.829 34.4 111.101 34.512 111.477 34.512ZM118.94 36.12C117.98 36.12 117.224 35.86 116.672 35.34C116.12 34.82 115.832 34.064 115.808 33.072V32.652C115.84 31.708 116.132 30.972 116.684 30.444C117.244 29.908 117.992 29.64 118.928 29.64C119.608 29.64 120.18 29.78 120.644 30.06C121.116 30.332 121.468 30.708 121.7 31.188C121.94 31.668 122.06 32.22 122.06 32.844V33.132C122.06 33.212 122.032 33.284 121.976 33.348C121.92 33.404 121.848 33.432 121.76 33.432H117.92V33.516C117.936 33.892 118.028 34.196 118.196 34.428C118.364 34.66 118.608 34.776 118.928 34.776C119.128 34.776 119.292 34.736 119.42 34.656C119.548 34.568 119.664 34.464 119.768 34.344C119.84 34.256 119.896 34.204 119.936 34.188C119.984 34.164 120.056 34.152 120.152 34.152H121.64C121.712 34.152 121.772 34.176 121.82 34.224C121.876 34.264 121.904 34.32 121.904 34.392C121.904 34.6 121.784 34.84 121.544 35.112C121.312 35.384 120.972 35.62 120.524 35.82C120.076 36.02 119.548 36.12 118.94 36.12ZM119.948 32.244V32.22C119.948 31.828 119.856 31.52 119.672 31.296C119.496 31.064 119.248 30.948 118.928 30.948C118.616 30.948 118.368 31.064 118.184 31.296C118.008 31.52 117.92 31.828 117.92 32.22V32.244H119.948ZM123.197 36C123.117 36 123.045 35.972 122.981 35.916C122.925 35.852 122.897 35.78 122.897 35.7V34.764C122.897 34.62 122.961 34.484 123.089 34.356L125.897 31.308H123.305C123.217 31.308 123.141 31.28 123.077 31.224C123.021 31.168 122.993 31.096 122.993 31.008V30.06C122.993 29.972 123.021 29.9 123.077 29.844C123.141 29.788 123.217 29.76 123.305 29.76H128.129C128.217 29.76 128.289 29.788 128.345 29.844C128.401 29.9 128.429 29.972 128.429 30.06V31.08C128.429 31.192 128.373 31.312 128.261 31.44L125.525 34.452H128.369C128.457 34.452 128.529 34.48 128.585 34.536C128.649 34.592 128.681 34.664 128.681 34.752V35.7C128.681 35.788 128.649 35.86 128.585 35.916C128.529 35.972 128.457 36 128.369 36H123.197ZM130.07 28.86C129.982 28.86 129.91 28.832 129.854 28.776C129.798 28.72 129.77 28.648 129.77 28.56V27.48C129.77 27.392 129.798 27.32 129.854 27.264C129.91 27.208 129.982 27.18 130.07 27.18H131.51C131.598 27.18 131.67 27.208 131.726 27.264C131.782 27.32 131.81 27.392 131.81 27.48V28.56C131.81 28.648 131.782 28.72 131.726 28.776C131.67 28.832 131.598 28.86 131.51 28.86H130.07ZM130.082 36C129.994 36 129.922 35.972 129.866 35.916C129.81 35.86 129.782 35.788 129.782 35.7V30.06C129.782 29.972 129.81 29.9 129.866 29.844C129.922 29.788 129.994 29.76 130.082 29.76H131.498C131.586 29.76 131.658 29.788 131.714 29.844C131.77 29.9 131.798 29.972 131.798 30.06V35.7C131.798 35.78 131.77 35.852 131.714 35.916C131.658 35.972 131.586 36 131.498 36H130.082ZM135.436 36C135.324 36 135.236 35.976 135.172 35.928C135.116 35.872 135.068 35.796 135.028 35.7L132.76 30.132L132.736 30.024C132.736 29.952 132.76 29.892 132.808 29.844C132.864 29.788 132.932 29.76 133.012 29.76H134.368C134.544 29.76 134.66 29.844 134.716 30.012L136.072 33.696L137.44 30.012C137.496 29.844 137.612 29.76 137.788 29.76H139.144C139.216 29.76 139.28 29.788 139.336 29.844C139.392 29.892 139.42 29.952 139.42 30.024L139.396 30.132L137.128 35.7C137.088 35.796 137.036 35.872 136.972 35.928C136.908 35.976 136.82 36 136.708 36H135.436ZM142.998 36.12C142.038 36.12 141.282 35.86 140.73 35.34C140.178 34.82 139.89 34.064 139.866 33.072V32.652C139.898 31.708 140.19 30.972 140.742 30.444C141.302 29.908 142.05 29.64 142.986 29.64C143.666 29.64 144.238 29.78 144.702 30.06C145.174 30.332 145.526 30.708 145.758 31.188C145.998 31.668 146.118 32.22 146.118 32.844V33.132C146.118 33.212 146.09 33.284 146.034 33.348C145.978 33.404 145.906 33.432 145.818 33.432H141.978V33.516C141.994 33.892 142.086 34.196 142.254 34.428C142.422 34.66 142.666 34.776 142.986 34.776C143.186 34.776 143.35 34.736 143.478 34.656C143.606 34.568 143.722 34.464 143.826 34.344C143.898 34.256 143.954 34.204 143.994 34.188C144.042 34.164 144.114 34.152 144.21 34.152H145.698C145.77 34.152 145.83 34.176 145.878 34.224C145.934 34.264 145.962 34.32 145.962 34.392C145.962 34.6 145.842 34.84 145.602 35.112C145.37 35.384 145.03 35.62 144.582 35.82C144.134 36.02 143.606 36.12 142.998 36.12ZM144.006 32.244V32.22C144.006 31.828 143.914 31.52 143.73 31.296C143.554 31.064 143.306 30.948 142.986 30.948C142.674 30.948 142.426 31.064 142.242 31.296C142.066 31.52 141.978 31.828 141.978 32.22V32.244H144.006Z" fill="#131313"/>
<path d="M48 20L65 29L36 44L19 35L1 26L31 11L48 20Z" fill="white" stroke="#020202" stroke-width="2" stroke-miterlimit="10" stroke-linejoin="round"/>
<path d="M31 1V11L48 20V10L31 1Z" fill="white" stroke="#020202" stroke-width="2" stroke-miterlimit="10" stroke-linejoin="round"/>
<path d="M48 10L19 35L1 26L31 1L48 10Z" fill="#E41222" stroke="#020202" stroke-width="2" stroke-miterlimit="10" stroke-linejoin="round"/>
<path d="M19 25V35L36 44V34L19 25Z" fill="white" stroke="#020202" stroke-width="2" stroke-miterlimit="10" stroke-linejoin="round"/>
<path d="M48 20L19 25L36 34L65 29L48 20Z" fill="#E41222" stroke="#020202" stroke-width="2" stroke-miterlimit="10" stroke-linejoin="round"/>
</svg>
