<svg width="263" height="86" viewBox="0 0 263 86" fill="none" xmlns="http://www.w3.org/2000/svg">
<circle r="11.5" transform="matrix(1 0 0 -1 12 12)" stroke="#E41222"/>
<path d="M10.948 34C10.588 34 10.3 33.904 10.084 33.712C9.868 33.52 9.736 33.256 9.688 32.92L5.404 9.844L5.368 9.556C5.368 9.34 5.44 9.16 5.584 9.016C5.752 8.872 5.932 8.8 6.124 8.8H9.292C9.892 8.8 10.228 9.04 10.3 9.52L13.288 25.828L16.528 15.28C16.768 14.68 17.164 14.38 17.716 14.38H19.66C20.26 14.38 20.644 14.68 20.812 15.28L24.088 25.792L27.076 9.52C27.124 9.256 27.22 9.076 27.364 8.98C27.532 8.86 27.772 8.8 28.084 8.8H31.252C31.444 8.8 31.612 8.872 31.756 9.016C31.9 9.16 31.972 9.34 31.972 9.556C31.972 9.676 31.96 9.772 31.936 9.844L27.652 32.92C27.532 33.64 27.112 34 26.392 34H23.98C23.644 34 23.368 33.916 23.152 33.748C22.936 33.58 22.792 33.364 22.72 33.1L18.688 21.076L14.656 33.1C14.416 33.7 13.984 34 13.36 34H10.948ZM43.1275 34.36C40.4635 34.36 38.3395 33.592 36.7555 32.056C35.1955 30.496 34.3675 28.312 34.2715 25.504L34.2355 24.604L34.2715 23.704C34.3915 20.968 35.2315 18.82 36.7915 17.26C38.3755 15.7 40.4875 14.92 43.1275 14.92C45.9595 14.92 48.1435 15.784 49.6795 17.512C51.2395 19.24 52.0195 21.544 52.0195 24.424V25.18C52.0195 25.42 51.9355 25.624 51.7675 25.792C51.5995 25.96 51.3835 26.044 51.1195 26.044H39.1675V26.332C39.2155 27.652 39.5755 28.768 40.2475 29.68C40.9435 30.568 41.8915 31.012 43.0915 31.012C44.5075 31.012 45.6475 30.46 46.5115 29.356C46.7275 29.092 46.8955 28.924 47.0155 28.852C47.1595 28.78 47.3635 28.744 47.6275 28.744H50.7235C50.9395 28.744 51.1195 28.816 51.2635 28.96C51.4315 29.08 51.5155 29.236 51.5155 29.428C51.5155 30.004 51.1675 30.688 50.4715 31.48C49.7995 32.248 48.8275 32.92 47.5555 33.496C46.2835 34.072 44.8075 34.36 43.1275 34.36ZM47.1235 23.02V22.912C47.1235 21.496 46.7635 20.356 46.0435 19.492C45.3475 18.628 44.3755 18.196 43.1275 18.196C41.8795 18.196 40.9075 18.628 40.2115 19.492C39.5155 20.356 39.1675 21.496 39.1675 22.912V23.02H47.1235ZM69.5034 34.36C68.2794 34.36 67.1514 34.12 66.1194 33.64C65.1114 33.136 64.3074 32.464 63.7074 31.624C63.1314 30.784 62.8434 29.86 62.8434 28.852C62.8434 27.22 63.5034 25.9 64.8234 24.892C66.1434 23.884 67.9554 23.2 70.2594 22.84L75.1914 22.12V21.364C75.1914 20.308 74.9274 19.516 74.3994 18.988C73.8714 18.46 73.0194 18.196 71.8434 18.196C71.0514 18.196 70.4034 18.352 69.8994 18.664C69.4194 18.952 69.0354 19.24 68.7474 19.528C68.4594 19.84 68.2674 20.044 68.1714 20.14C68.0754 20.428 67.8954 20.572 67.6314 20.572H64.8594C64.6434 20.572 64.4514 20.5 64.2834 20.356C64.1394 20.212 64.0674 20.02 64.0674 19.78C64.0914 19.18 64.3794 18.496 64.9314 17.728C65.5074 16.96 66.3834 16.3 67.5594 15.748C68.7354 15.196 70.1754 14.92 71.8794 14.92C74.7114 14.92 76.7754 15.556 78.0714 16.828C79.3674 18.1 80.0154 19.768 80.0154 21.832V33.136C80.0154 33.376 79.9314 33.58 79.7634 33.748C79.6194 33.916 79.4154 34 79.1514 34H76.2354C75.9954 34 75.7914 33.916 75.6234 33.748C75.4554 33.58 75.3714 33.376 75.3714 33.136V31.732C74.8434 32.5 74.0874 33.136 73.1034 33.64C72.1434 34.12 70.9434 34.36 69.5034 34.36ZM70.7274 30.94C72.0474 30.94 73.1274 30.508 73.9674 29.644C74.8074 28.78 75.2274 27.52 75.2274 25.864V25.108L71.6274 25.684C70.2354 25.9 69.1794 26.248 68.4594 26.728C67.7634 27.208 67.4154 27.796 67.4154 28.492C67.4154 29.26 67.7394 29.86 68.3874 30.292C69.0354 30.724 69.8154 30.94 70.7274 30.94ZM85.4978 34C85.2578 34 85.0538 33.916 84.8858 33.748C84.7178 33.58 84.6338 33.376 84.6338 33.136V16.18C84.6338 15.94 84.7178 15.736 84.8858 15.568C85.0538 15.376 85.2578 15.28 85.4978 15.28H88.4138C88.6778 15.28 88.8938 15.364 89.0618 15.532C89.2298 15.7 89.3138 15.916 89.3138 16.18V17.656C89.8898 16.888 90.6098 16.3 91.4738 15.892C92.3618 15.484 93.3698 15.28 94.4978 15.28H95.9738C96.2378 15.28 96.4418 15.364 96.5858 15.532C96.7538 15.676 96.8378 15.88 96.8378 16.144V18.736C96.8378 18.976 96.7538 19.18 96.5858 19.348C96.4418 19.516 96.2378 19.6 95.9738 19.6H93.1658C92.0378 19.6 91.1498 19.924 90.5018 20.572C89.8538 21.22 89.5298 22.108 89.5298 23.236V33.136C89.5298 33.376 89.4458 33.58 89.2778 33.748C89.1098 33.916 88.8938 34 88.6298 34H85.4978ZM107.463 34.36C104.799 34.36 102.675 33.592 101.091 32.056C99.5314 30.496 98.7034 28.312 98.6074 25.504L98.5714 24.604L98.6074 23.704C98.7274 20.968 99.5674 18.82 101.127 17.26C102.711 15.7 104.823 14.92 107.463 14.92C110.295 14.92 112.479 15.784 114.015 17.512C115.575 19.24 116.355 21.544 116.355 24.424V25.18C116.355 25.42 116.271 25.624 116.103 25.792C115.935 25.96 115.719 26.044 115.455 26.044H103.503V26.332C103.551 27.652 103.911 28.768 104.583 29.68C105.279 30.568 106.227 31.012 107.427 31.012C108.843 31.012 109.983 30.46 110.847 29.356C111.063 29.092 111.231 28.924 111.351 28.852C111.495 28.78 111.699 28.744 111.963 28.744H115.059C115.275 28.744 115.455 28.816 115.599 28.96C115.767 29.08 115.851 29.236 115.851 29.428C115.851 30.004 115.503 30.688 114.807 31.48C114.135 32.248 113.163 32.92 111.891 33.496C110.619 34.072 109.143 34.36 107.463 34.36ZM111.459 23.02V22.912C111.459 21.496 111.099 20.356 110.379 19.492C109.683 18.628 108.711 18.196 107.463 18.196C106.215 18.196 105.243 18.628 104.547 19.492C103.851 20.356 103.503 21.496 103.503 22.912V23.02H111.459ZM132.707 34C132.395 34 132.143 33.928 131.951 33.784C131.783 33.616 131.639 33.388 131.519 33.1L126.371 16.396C126.347 16.324 126.335 16.216 126.335 16.072C126.335 15.856 126.407 15.676 126.551 15.532C126.719 15.364 126.899 15.28 127.091 15.28H129.755C130.019 15.28 130.235 15.352 130.403 15.496C130.571 15.64 130.679 15.796 130.727 15.964L134.255 27.88L137.999 16.072C138.071 15.856 138.191 15.676 138.359 15.532C138.551 15.364 138.791 15.28 139.079 15.28H140.879C141.167 15.28 141.395 15.364 141.563 15.532C141.755 15.676 141.887 15.856 141.959 16.072L145.703 27.88L149.231 15.964C149.255 15.796 149.351 15.64 149.519 15.496C149.711 15.352 149.927 15.28 150.167 15.28H152.831C153.047 15.28 153.227 15.364 153.371 15.532C153.539 15.676 153.623 15.856 153.623 16.072L153.551 16.396L148.403 33.1C148.307 33.388 148.163 33.616 147.971 33.784C147.803 33.928 147.563 34 147.251 34H144.911C144.287 34 143.891 33.7 143.723 33.1L139.979 21.724L136.235 33.1C136.043 33.7 135.635 34 135.011 34H132.707ZM162 34.36C160.776 34.36 159.648 34.12 158.616 33.64C157.608 33.136 156.804 32.464 156.204 31.624C155.628 30.784 155.34 29.86 155.34 28.852C155.34 27.22 156 25.9 157.32 24.892C158.64 23.884 160.452 23.2 162.756 22.84L167.688 22.12V21.364C167.688 20.308 167.424 19.516 166.896 18.988C166.368 18.46 165.516 18.196 164.34 18.196C163.548 18.196 162.9 18.352 162.396 18.664C161.916 18.952 161.532 19.24 161.244 19.528C160.956 19.84 160.764 20.044 160.668 20.14C160.572 20.428 160.392 20.572 160.128 20.572H157.356C157.14 20.572 156.948 20.5 156.78 20.356C156.636 20.212 156.563 20.02 156.563 19.78C156.588 19.18 156.876 18.496 157.428 17.728C158.004 16.96 158.88 16.3 160.056 15.748C161.232 15.196 162.672 14.92 164.376 14.92C167.208 14.92 169.272 15.556 170.568 16.828C171.864 18.1 172.512 19.768 172.512 21.832V33.136C172.512 33.376 172.428 33.58 172.26 33.748C172.116 33.916 171.912 34 171.648 34H168.732C168.492 34 168.288 33.916 168.12 33.748C167.952 33.58 167.868 33.376 167.868 33.136V31.732C167.34 32.5 166.584 33.136 165.6 33.64C164.64 34.12 163.44 34.36 162 34.36ZM163.224 30.94C164.544 30.94 165.624 30.508 166.464 29.644C167.304 28.78 167.724 27.52 167.724 25.864V25.108L164.124 25.684C162.732 25.9 161.676 26.248 160.956 26.728C160.26 27.208 159.912 27.796 159.912 28.492C159.912 29.26 160.236 29.86 160.884 30.292C161.532 30.724 162.312 30.94 163.224 30.94ZM177.85 12.184C177.61 12.184 177.406 12.1 177.238 11.932C177.07 11.764 176.986 11.56 176.986 11.32V8.728C176.986 8.488 177.07 8.284 177.238 8.116C177.406 7.948 177.61 7.864 177.85 7.864H181.126C181.366 7.864 181.57 7.948 181.738 8.116C181.93 8.284 182.026 8.488 182.026 8.728V11.32C182.026 11.56 181.942 11.764 181.774 11.932C181.606 12.1 181.39 12.184 181.126 12.184H177.85ZM177.994 34C177.754 34 177.55 33.916 177.382 33.748C177.214 33.58 177.13 33.376 177.13 33.136V16.144C177.13 15.904 177.214 15.7 177.382 15.532C177.55 15.364 177.754 15.28 177.994 15.28H180.982C181.246 15.28 181.45 15.364 181.594 15.532C181.762 15.676 181.846 15.88 181.846 16.144V33.136C181.846 33.376 181.762 33.58 181.594 33.748C181.45 33.916 181.246 34 180.982 34H177.994ZM195.082 34C192.898 34 191.254 33.436 190.15 32.308C189.07 31.156 188.53 29.476 188.53 27.268V19.096H185.686C185.446 19.096 185.242 19.012 185.074 18.844C184.906 18.652 184.822 18.436 184.822 18.196V16.144C184.822 15.904 184.906 15.7 185.074 15.532C185.242 15.364 185.446 15.28 185.686 15.28H188.53V9.304C188.53 9.04 188.614 8.836 188.782 8.692C188.95 8.524 189.154 8.44 189.394 8.44H192.31C192.574 8.44 192.778 8.524 192.922 8.692C193.09 8.836 193.174 9.04 193.174 9.304V15.28H197.674C197.938 15.28 198.142 15.364 198.286 15.532C198.454 15.676 198.538 15.88 198.538 16.144V18.196C198.538 18.46 198.454 18.676 198.286 18.844C198.118 19.012 197.914 19.096 197.674 19.096H193.174V26.908C193.174 27.94 193.354 28.72 193.714 29.248C194.074 29.776 194.674 30.04 195.514 30.04H197.998C198.238 30.04 198.442 30.124 198.61 30.292C198.778 30.46 198.862 30.664 198.862 30.904V33.136C198.862 33.376 198.778 33.58 198.61 33.748C198.466 33.916 198.262 34 197.998 34H195.082ZM202.776 12.184C202.536 12.184 202.332 12.1 202.164 11.932C201.996 11.764 201.912 11.56 201.912 11.32V8.728C201.912 8.488 201.996 8.284 202.164 8.116C202.332 7.948 202.536 7.864 202.776 7.864H206.052C206.292 7.864 206.496 7.948 206.664 8.116C206.856 8.284 206.952 8.488 206.952 8.728V11.32C206.952 11.56 206.868 11.764 206.7 11.932C206.532 12.1 206.316 12.184 206.052 12.184H202.776ZM202.92 34C202.68 34 202.476 33.916 202.308 33.748C202.14 33.58 202.056 33.376 202.056 33.136V16.144C202.056 15.904 202.14 15.7 202.308 15.532C202.476 15.364 202.68 15.28 202.92 15.28H205.908C206.172 15.28 206.376 15.364 206.52 15.532C206.688 15.676 206.772 15.88 206.772 16.144V33.136C206.772 33.376 206.688 33.58 206.52 33.748C206.376 33.916 206.172 34 205.908 34H202.92ZM212.412 34C212.172 34 211.968 33.916 211.8 33.748C211.632 33.58 211.548 33.376 211.548 33.136V16.144C211.548 15.904 211.632 15.7 211.8 15.532C211.968 15.364 212.172 15.28 212.412 15.28H215.364C215.604 15.28 215.808 15.364 215.976 15.532C216.144 15.7 216.228 15.904 216.228 16.144V17.62C217.644 15.82 219.648 14.92 222.24 14.92C224.448 14.92 226.2 15.652 227.496 17.116C228.792 18.556 229.44 20.524 229.44 23.02V33.136C229.44 33.376 229.356 33.58 229.188 33.748C229.044 33.916 228.84 34 228.576 34H225.408C225.168 34 224.964 33.916 224.796 33.748C224.628 33.58 224.544 33.376 224.544 33.136V23.236C224.544 21.82 224.196 20.728 223.5 19.96C222.828 19.168 221.844 18.772 220.548 18.772C219.276 18.772 218.268 19.168 217.524 19.96C216.804 20.752 216.444 21.844 216.444 23.236V33.136C216.444 33.376 216.36 33.58 216.192 33.748C216.048 33.916 215.844 34 215.58 34H212.412ZM242.473 41.92C240.337 41.92 238.609 41.56 237.289 40.84C235.969 40.144 235.033 39.34 234.481 38.428C233.929 37.516 233.653 36.736 233.653 36.088C233.653 35.872 233.737 35.68 233.905 35.512C234.097 35.344 234.301 35.26 234.517 35.26H237.649C237.865 35.26 238.045 35.308 238.189 35.404C238.357 35.524 238.489 35.728 238.585 36.016C238.825 36.664 239.209 37.204 239.737 37.636C240.289 38.092 241.141 38.32 242.293 38.32C243.733 38.32 244.789 37.996 245.461 37.348C246.157 36.7 246.505 35.584 246.505 34V31.552C245.185 33.112 243.337 33.892 240.961 33.892C238.465 33.892 236.581 33.124 235.309 31.588C234.061 30.052 233.389 27.988 233.293 25.396L233.257 24.424L233.293 23.452C233.389 20.908 234.073 18.856 235.345 17.296C236.617 15.712 238.489 14.92 240.961 14.92C242.233 14.92 243.349 15.16 244.309 15.64C245.269 16.12 246.073 16.78 246.721 17.62V16.18C246.721 15.916 246.805 15.7 246.973 15.532C247.141 15.364 247.345 15.28 247.585 15.28H250.501C250.741 15.28 250.945 15.376 251.113 15.568C251.281 15.736 251.365 15.94 251.365 16.18L251.401 33.532C251.401 36.196 250.657 38.26 249.169 39.724C247.681 41.188 245.449 41.92 242.473 41.92ZM242.293 30.076C243.661 30.076 244.681 29.644 245.353 28.78C246.049 27.916 246.433 26.86 246.505 25.612C246.529 25.42 246.541 25.024 246.541 24.424C246.541 23.848 246.529 23.464 246.505 23.272C246.433 22 246.049 20.932 245.353 20.068C244.681 19.204 243.661 18.772 242.293 18.772C239.701 18.772 238.333 20.368 238.189 23.56L238.153 24.424C238.153 26.128 238.453 27.496 239.053 28.528C239.677 29.56 240.757 30.076 242.293 30.076ZM9.256 77C9.016 77 8.812 76.916 8.644 76.748C8.476 76.58 8.392 76.376 8.392 76.136V62.096H5.476C5.236 62.096 5.032 62.012 4.864 61.844C4.696 61.652 4.612 61.436 4.612 61.196V59.144C4.612 58.904 4.696 58.7 4.864 58.532C5.032 58.364 5.236 58.28 5.476 58.28H8.392V56.804C8.392 52.508 10.744 50.36 15.448 50.36H17.896C18.16 50.36 18.364 50.444 18.508 50.612C18.676 50.756 18.76 50.96 18.76 51.224V53.276C18.76 53.54 18.676 53.756 18.508 53.924C18.34 54.092 18.136 54.176 17.896 54.176H15.592C14.656 54.176 13.996 54.404 13.612 54.86C13.252 55.316 13.072 56.024 13.072 56.984V58.28H17.536C17.8 58.28 18.004 58.364 18.148 58.532C18.316 58.676 18.4 58.88 18.4 59.144V61.196C18.4 61.46 18.316 61.676 18.148 61.844C17.98 62.012 17.776 62.096 17.536 62.096H13.072V76.136C13.072 76.376 12.988 76.58 12.82 76.748C12.652 76.916 12.448 77 12.208 77H9.256ZM29.281 77.36C26.473 77.36 24.301 76.64 22.765 75.2C21.229 73.736 20.401 71.744 20.281 69.224L20.245 67.64L20.281 66.056C20.401 63.56 21.241 61.58 22.801 60.116C24.361 58.652 26.521 57.92 29.281 57.92C32.041 57.92 34.201 58.652 35.761 60.116C37.321 61.58 38.161 63.56 38.281 66.056C38.305 66.344 38.317 66.872 38.317 67.64C38.317 68.408 38.305 68.936 38.281 69.224C38.161 71.744 37.333 73.736 35.797 75.2C34.261 76.64 32.089 77.36 29.281 77.36ZM29.281 73.796C30.553 73.796 31.537 73.4 32.233 72.608C32.929 71.792 33.313 70.604 33.385 69.044C33.409 68.804 33.421 68.336 33.421 67.64C33.421 66.944 33.409 66.476 33.385 66.236C33.313 64.676 32.929 63.5 32.233 62.708C31.537 61.892 30.553 61.484 29.281 61.484C28.009 61.484 27.025 61.892 26.329 62.708C25.633 63.5 25.249 64.676 25.177 66.236L25.141 67.64L25.177 69.044C25.249 70.604 25.633 71.792 26.329 72.608C27.025 73.4 28.009 73.796 29.281 73.796ZM43.1697 77C42.9297 77 42.7257 76.916 42.5577 76.748C42.3897 76.58 42.3057 76.376 42.3057 76.136V59.18C42.3057 58.94 42.3897 58.736 42.5577 58.568C42.7257 58.376 42.9297 58.28 43.1697 58.28H46.0857C46.3497 58.28 46.5657 58.364 46.7337 58.532C46.9017 58.7 46.9857 58.916 46.9857 59.18V60.656C47.5617 59.888 48.2817 59.3 49.1457 58.892C50.0337 58.484 51.0417 58.28 52.1697 58.28H53.6457C53.9097 58.28 54.1137 58.364 54.2577 58.532C54.4257 58.676 54.5097 58.88 54.5097 59.144V61.736C54.5097 61.976 54.4257 62.18 54.2577 62.348C54.1137 62.516 53.9097 62.6 53.6457 62.6H50.8377C49.7097 62.6 48.8217 62.924 48.1737 63.572C47.5257 64.22 47.2017 65.108 47.2017 66.236V76.136C47.2017 76.376 47.1177 76.58 46.9497 76.748C46.7817 76.916 46.5657 77 46.3017 77H43.1697ZM67.2053 83.84C67.0133 83.84 66.8453 83.768 66.7013 83.624C66.5573 83.48 66.4853 83.312 66.4853 83.12C66.4853 82.904 66.5333 82.712 66.6293 82.544L69.4373 75.884L62.5253 59.576C62.4293 59.36 62.3813 59.192 62.3813 59.072C62.4053 58.856 62.4893 58.676 62.6333 58.532C62.7773 58.364 62.9573 58.28 63.1733 58.28H66.0893C66.5453 58.28 66.8693 58.508 67.0613 58.964L71.8493 70.736L76.7813 58.964C76.9733 58.508 77.2973 58.28 77.7533 58.28H80.6333C80.8253 58.28 80.9933 58.352 81.1373 58.496C81.3053 58.64 81.3893 58.808 81.3893 59C81.3893 59.168 81.3413 59.36 81.2453 59.576L71.0573 83.156C70.8413 83.612 70.5053 83.84 70.0493 83.84H67.2053ZM92.1052 77.36C89.2972 77.36 87.1252 76.64 85.5892 75.2C84.0532 73.736 83.2252 71.744 83.1052 69.224L83.0692 67.64L83.1052 66.056C83.2252 63.56 84.0652 61.58 85.6252 60.116C87.1852 58.652 89.3452 57.92 92.1052 57.92C94.8652 57.92 97.0252 58.652 98.5852 60.116C100.145 61.58 100.985 63.56 101.105 66.056C101.129 66.344 101.141 66.872 101.141 67.64C101.141 68.408 101.129 68.936 101.105 69.224C100.985 71.744 100.157 73.736 98.6212 75.2C97.0852 76.64 94.9132 77.36 92.1052 77.36ZM92.1052 73.796C93.3772 73.796 94.3612 73.4 95.0572 72.608C95.7532 71.792 96.1372 70.604 96.2092 69.044C96.2332 68.804 96.2452 68.336 96.2452 67.64C96.2452 66.944 96.2332 66.476 96.2092 66.236C96.1372 64.676 95.7532 63.5 95.0572 62.708C94.3612 61.892 93.3772 61.484 92.1052 61.484C90.8332 61.484 89.8492 61.892 89.1532 62.708C88.4572 63.5 88.0732 64.676 88.0012 66.236L87.9652 67.64L88.0012 69.044C88.0732 70.604 88.4572 71.792 89.1532 72.608C89.8492 73.4 90.8332 73.796 92.1052 73.796ZM112.078 77.36C109.87 77.36 108.13 76.64 106.858 75.2C105.586 73.736 104.95 71.756 104.95 69.26V59.144C104.95 58.904 105.034 58.7 105.202 58.532C105.37 58.364 105.574 58.28 105.814 58.28H108.982C109.246 58.28 109.45 58.364 109.594 58.532C109.762 58.676 109.846 58.88 109.846 59.144V69.044C109.846 72.02 111.154 73.508 113.77 73.508C115.018 73.508 116.002 73.112 116.722 72.32C117.466 71.528 117.838 70.436 117.838 69.044V59.144C117.838 58.904 117.922 58.7 118.09 58.532C118.258 58.364 118.462 58.28 118.702 58.28H121.87C122.134 58.28 122.338 58.364 122.482 58.532C122.65 58.676 122.734 58.88 122.734 59.144V76.136C122.734 76.376 122.65 76.58 122.482 76.748C122.338 76.916 122.134 77 121.87 77H118.954C118.714 77 118.51 76.916 118.342 76.748C118.174 76.58 118.09 76.376 118.09 76.136V74.66C116.746 76.46 114.742 77.36 112.078 77.36ZM128.353 77C128.113 77 127.909 76.916 127.741 76.748C127.573 76.58 127.489 76.376 127.489 76.136V59.18C127.489 58.94 127.573 58.736 127.741 58.568C127.909 58.376 128.113 58.28 128.353 58.28H131.269C131.533 58.28 131.749 58.364 131.917 58.532C132.085 58.7 132.169 58.916 132.169 59.18V60.656C132.745 59.888 133.465 59.3 134.329 58.892C135.217 58.484 136.225 58.28 137.353 58.28H138.829C139.093 58.28 139.297 58.364 139.441 58.532C139.609 58.676 139.693 58.88 139.693 59.144V61.736C139.693 61.976 139.609 62.18 139.441 62.348C139.297 62.516 139.093 62.6 138.829 62.6H136.021C134.893 62.6 134.005 62.924 133.357 63.572C132.709 64.22 132.385 65.108 132.385 66.236V76.136C132.385 76.376 132.301 76.58 132.133 76.748C131.965 76.916 131.749 77 131.485 77H128.353ZM158.234 77.36C155.426 77.36 153.254 76.64 151.718 75.2C150.182 73.736 149.354 71.744 149.234 69.224L149.198 67.64L149.234 66.056C149.354 63.56 150.194 61.58 151.754 60.116C153.314 58.652 155.474 57.92 158.234 57.92C160.994 57.92 163.154 58.652 164.714 60.116C166.274 61.58 167.114 63.56 167.234 66.056C167.258 66.344 167.27 66.872 167.27 67.64C167.27 68.408 167.258 68.936 167.234 69.224C167.114 71.744 166.286 73.736 164.75 75.2C163.214 76.64 161.042 77.36 158.234 77.36ZM158.234 73.796C159.506 73.796 160.49 73.4 161.186 72.608C161.882 71.792 162.266 70.604 162.338 69.044C162.362 68.804 162.374 68.336 162.374 67.64C162.374 66.944 162.362 66.476 162.338 66.236C162.266 64.676 161.882 63.5 161.186 62.708C160.49 61.892 159.506 61.484 158.234 61.484C156.962 61.484 155.978 61.892 155.282 62.708C154.586 63.5 154.202 64.676 154.13 66.236L154.094 67.64L154.13 69.044C154.202 70.604 154.586 71.792 155.282 72.608C155.978 73.4 156.962 73.796 158.234 73.796ZM172.123 77C171.883 77 171.679 76.916 171.511 76.748C171.343 76.58 171.259 76.376 171.259 76.136V59.18C171.259 58.94 171.343 58.736 171.511 58.568C171.679 58.376 171.883 58.28 172.123 58.28H175.039C175.303 58.28 175.519 58.364 175.687 58.532C175.855 58.7 175.939 58.916 175.939 59.18V60.656C176.515 59.888 177.235 59.3 178.099 58.892C178.987 58.484 179.995 58.28 181.123 58.28H182.599C182.863 58.28 183.067 58.364 183.211 58.532C183.379 58.676 183.463 58.88 183.463 59.144V61.736C183.463 61.976 183.379 62.18 183.211 62.348C183.067 62.516 182.863 62.6 182.599 62.6H179.791C178.663 62.6 177.775 62.924 177.127 63.572C176.479 64.22 176.155 65.108 176.155 66.236V76.136C176.155 76.376 176.071 76.58 175.903 76.748C175.735 76.916 175.519 77 175.255 77H172.123ZM192.937 77.36C190.513 77.36 188.653 76.58 187.357 75.02C186.061 73.46 185.365 71.384 185.269 68.792L185.233 67.604L185.269 66.452C185.341 63.932 186.025 61.88 187.321 60.296C188.641 58.712 190.513 57.92 192.937 57.92C195.265 57.92 197.113 58.712 198.481 60.296V52.304C198.481 52.04 198.565 51.836 198.733 51.692C198.901 51.524 199.105 51.44 199.345 51.44H202.405C202.669 51.44 202.873 51.524 203.017 51.692C203.185 51.836 203.269 52.04 203.269 52.304V76.136C203.269 76.376 203.185 76.58 203.017 76.748C202.873 76.916 202.669 77 202.405 77H199.561C199.321 77 199.117 76.916 198.949 76.748C198.781 76.58 198.697 76.376 198.697 76.136V74.804C197.329 76.508 195.409 77.36 192.937 77.36ZM194.269 73.508C195.661 73.508 196.693 73.064 197.365 72.176C198.037 71.288 198.409 70.196 198.481 68.9C198.505 68.612 198.517 68.144 198.517 67.496C198.517 66.872 198.505 66.416 198.481 66.128C198.433 64.928 198.049 63.908 197.329 63.068C196.633 62.204 195.613 61.772 194.269 61.772C191.677 61.772 190.297 63.368 190.129 66.56L190.093 67.64L190.129 68.72C190.297 71.912 191.677 73.508 194.269 73.508ZM216.131 77.36C213.467 77.36 211.343 76.592 209.759 75.056C208.199 73.496 207.371 71.312 207.275 68.504L207.239 67.604L207.275 66.704C207.395 63.968 208.235 61.82 209.795 60.26C211.379 58.7 213.491 57.92 216.131 57.92C218.963 57.92 221.147 58.784 222.683 60.512C224.243 62.24 225.023 64.544 225.023 67.424V68.18C225.023 68.42 224.939 68.624 224.771 68.792C224.603 68.96 224.387 69.044 224.123 69.044H212.171V69.332C212.219 70.652 212.579 71.768 213.251 72.68C213.947 73.568 214.895 74.012 216.095 74.012C217.511 74.012 218.651 73.46 219.515 72.356C219.731 72.092 219.899 71.924 220.019 71.852C220.163 71.78 220.367 71.744 220.631 71.744H223.727C223.943 71.744 224.123 71.816 224.267 71.96C224.435 72.08 224.519 72.236 224.519 72.428C224.519 73.004 224.171 73.688 223.475 74.48C222.803 75.248 221.831 75.92 220.559 76.496C219.287 77.072 217.811 77.36 216.131 77.36ZM220.127 66.02V65.912C220.127 64.496 219.767 63.356 219.047 62.492C218.351 61.628 217.379 61.196 216.131 61.196C214.883 61.196 213.911 61.628 213.215 62.492C212.519 63.356 212.171 64.496 212.171 65.912V66.02H220.127ZM229.709 77C229.469 77 229.265 76.916 229.097 76.748C228.929 76.58 228.845 76.376 228.845 76.136V59.18C228.845 58.94 228.929 58.736 229.097 58.568C229.265 58.376 229.469 58.28 229.709 58.28H232.625C232.889 58.28 233.105 58.364 233.273 58.532C233.441 58.7 233.525 58.916 233.525 59.18V60.656C234.101 59.888 234.821 59.3 235.685 58.892C236.573 58.484 237.581 58.28 238.709 58.28H240.185C240.449 58.28 240.653 58.364 240.797 58.532C240.965 58.676 241.049 58.88 241.049 59.144V61.736C241.049 61.976 240.965 62.18 240.797 62.348C240.653 62.516 240.449 62.6 240.185 62.6H237.377C236.249 62.6 235.361 62.924 234.713 63.572C234.065 64.22 233.741 65.108 233.741 66.236V76.136C233.741 76.376 233.657 76.58 233.489 76.748C233.321 76.916 233.105 77 232.841 77H229.709ZM250.948 77.36C249.148 77.36 247.636 77.096 246.412 76.568C245.188 76.016 244.276 75.38 243.676 74.66C243.1 73.916 242.812 73.28 242.812 72.752C242.812 72.512 242.896 72.32 243.064 72.176C243.232 72.032 243.424 71.96 243.64 71.96H246.484C246.7 71.96 246.88 72.044 247.024 72.212C247.12 72.284 247.372 72.5 247.78 72.86C248.188 73.244 248.668 73.544 249.22 73.76C249.772 73.976 250.384 74.084 251.056 74.084C252.016 74.084 252.808 73.892 253.432 73.508C254.056 73.124 254.368 72.596 254.368 71.924C254.368 71.42 254.224 71.012 253.936 70.7C253.672 70.388 253.18 70.112 252.46 69.872C251.74 69.608 250.672 69.332 249.256 69.044C247.216 68.612 245.704 67.952 244.72 67.064C243.76 66.176 243.28 65 243.28 63.536C243.28 62.576 243.568 61.676 244.144 60.836C244.72 59.972 245.572 59.276 246.7 58.748C247.852 58.196 249.22 57.92 250.804 57.92C252.412 57.92 253.804 58.184 254.98 58.712C256.156 59.216 257.044 59.828 257.644 60.548C258.268 61.244 258.58 61.868 258.58 62.42C258.58 62.636 258.496 62.828 258.328 62.996C258.184 63.14 258.004 63.212 257.788 63.212H255.124C254.932 63.212 254.728 63.128 254.512 62.96C254.344 62.84 254.08 62.612 253.72 62.276C253.36 61.94 252.94 61.676 252.46 61.484C251.98 61.292 251.416 61.196 250.768 61.196C249.88 61.196 249.184 61.388 248.68 61.772C248.2 62.156 247.96 62.66 247.96 63.284C247.96 63.74 248.08 64.112 248.32 64.4C248.56 64.688 249.028 64.964 249.724 65.228C250.42 65.492 251.464 65.756 252.856 66.02C255.16 66.476 256.804 67.184 257.788 68.144C258.796 69.104 259.3 70.28 259.3 71.672C259.3 73.352 258.568 74.72 257.104 75.776C255.64 76.832 253.588 77.36 250.948 77.36Z" fill="#131313"/>
</svg>
