<svg width="383" height="43" viewBox="0 0 383 43" fill="none" xmlns="http://www.w3.org/2000/svg">
<circle r="11.5" transform="matrix(1 0 0 -1 12 12)" stroke="#E41222"/>
<path d="M39.892 32.776C39.94 32.848 39.964 32.98 39.964 33.172C39.964 33.388 39.88 33.58 39.712 33.748C39.568 33.916 39.376 34 39.136 34H35.464C35.008 34 34.636 33.796 34.348 33.388L28.156 23.488H24.952V33.172C24.952 33.412 24.868 33.616 24.7 33.784C24.532 33.928 24.328 34 24.088 34H20.956C20.716 34 20.512 33.916 20.344 33.748C20.176 33.58 20.092 33.376 20.092 33.136V23.488H16.852L10.696 33.388C10.456 33.796 10.096 34 9.616 34H5.908C5.692 34 5.5 33.916 5.332 33.748C5.188 33.58 5.116 33.388 5.116 33.172C5.116 32.98 5.14 32.848 5.188 32.776L12.676 20.968L5.872 9.988C5.776 9.868 5.728 9.724 5.728 9.556C5.728 9.34 5.788 9.16 5.908 9.016C6.052 8.872 6.244 8.8 6.484 8.8H10.012C10.612 8.8 11.044 9.016 11.308 9.448L17.104 19.024L20.092 18.988V9.664C20.092 9.424 20.176 9.22 20.344 9.052C20.512 8.884 20.716 8.8 20.956 8.8H24.088C24.352 8.8 24.556 8.884 24.7 9.052C24.868 9.196 24.952 9.4 24.952 9.664V18.988L27.904 19.024L33.736 9.448C34 9.016 34.432 8.8 35.032 8.8H38.596C38.836 8.8 39.016 8.872 39.136 9.016C39.28 9.16 39.352 9.34 39.352 9.556C39.352 9.652 39.304 9.796 39.208 9.988L32.404 20.968L39.892 32.776ZM42.7458 37.96C42.5058 37.96 42.3018 37.876 42.1338 37.708C41.9658 37.564 41.8818 37.36 41.8818 37.096V31.048C41.8818 30.808 41.9658 30.604 42.1338 30.436C42.3018 30.268 42.5058 30.184 42.7458 30.184H43.0338C43.9698 30.184 44.6538 29.44 45.0858 27.952C45.5178 26.464 45.7338 24.148 45.7338 21.004V16.144C45.7338 15.88 45.8178 15.676 45.9858 15.532C46.1538 15.364 46.3578 15.28 46.5978 15.28H59.4138C59.6778 15.28 59.8818 15.364 60.0258 15.532C60.1938 15.676 60.2778 15.88 60.2778 16.144V30.148H61.8978C62.1618 30.148 62.3658 30.232 62.5098 30.4C62.6778 30.544 62.7618 30.748 62.7618 31.012V37.096C62.7618 37.36 62.6778 37.564 62.5098 37.708C62.3658 37.876 62.1618 37.96 61.8978 37.96H58.9458C58.6818 37.96 58.4658 37.876 58.2978 37.708C58.1298 37.54 58.0458 37.336 58.0458 37.096V34H46.5978V37.096C46.5978 37.36 46.5138 37.564 46.3458 37.708C46.2018 37.876 45.9978 37.96 45.7338 37.96H42.7458ZM55.5978 30.148V19.096H50.2698V21.508C50.2698 25.636 49.7058 28.528 48.5778 30.184L55.5978 30.148ZM74.1353 34.36C71.4713 34.36 69.3473 33.592 67.7633 32.056C66.2033 30.496 65.3753 28.312 65.2793 25.504L65.2433 24.604L65.2793 23.704C65.3993 20.968 66.2393 18.82 67.7993 17.26C69.3833 15.7 71.4953 14.92 74.1353 14.92C76.9673 14.92 79.1513 15.784 80.6873 17.512C82.2473 19.24 83.0273 21.544 83.0273 24.424V25.18C83.0273 25.42 82.9433 25.624 82.7753 25.792C82.6073 25.96 82.3913 26.044 82.1273 26.044H70.1753V26.332C70.2233 27.652 70.5833 28.768 71.2553 29.68C71.9513 30.568 72.8993 31.012 74.0993 31.012C75.5153 31.012 76.6553 30.46 77.5193 29.356C77.7353 29.092 77.9033 28.924 78.0233 28.852C78.1673 28.78 78.3713 28.744 78.6353 28.744H81.7313C81.9473 28.744 82.1273 28.816 82.2713 28.96C82.4393 29.08 82.5233 29.236 82.5233 29.428C82.5233 30.004 82.1753 30.688 81.4793 31.48C80.8073 32.248 79.8353 32.92 78.5633 33.496C77.2913 34.072 75.8153 34.36 74.1353 34.36ZM78.1313 23.02V22.912C78.1313 21.496 77.7713 20.356 77.0513 19.492C76.3553 18.628 75.3833 18.196 74.1353 18.196C72.8873 18.196 71.9153 18.628 71.2193 19.492C70.5233 20.356 70.1753 21.496 70.1753 22.912V23.02H78.1313ZM106.541 15.28C106.733 15.28 106.901 15.352 107.045 15.496C107.213 15.64 107.297 15.796 107.297 15.964V33.244C107.297 33.46 107.225 33.64 107.081 33.784C106.937 33.928 106.745 34 106.505 34H103.409C103.169 34 102.977 33.928 102.833 33.784C102.713 33.64 102.653 33.46 102.653 33.244V23.164L98.8007 30.256C98.6327 30.544 98.4647 30.76 98.2967 30.904C98.1527 31.048 97.9367 31.12 97.6487 31.12H96.4607C96.1967 31.12 95.9807 31.048 95.8127 30.904C95.6447 30.76 95.4887 30.544 95.3447 30.256L91.4927 23.308V33.244C91.4927 33.46 91.4207 33.64 91.2767 33.784C91.1327 33.928 90.9527 34 90.7367 34H87.6407C87.4007 34 87.2087 33.928 87.0647 33.784C86.9207 33.64 86.8487 33.46 86.8487 33.244V15.964C86.8487 15.796 86.9207 15.64 87.0647 15.496C87.2087 15.352 87.3767 15.28 87.5687 15.28H90.5927C91.0007 15.28 91.3127 15.484 91.5287 15.892L97.0727 25.972L102.617 15.892C102.833 15.484 103.145 15.28 103.553 15.28H106.541ZM121.252 34C121.012 34 120.808 33.916 120.64 33.748C120.472 33.58 120.388 33.376 120.388 33.136V16.144C120.388 15.904 120.472 15.7 120.64 15.532C120.808 15.364 121.012 15.28 121.252 15.28H129.244C131.716 15.28 133.576 15.736 134.824 16.648C136.096 17.56 136.732 18.832 136.732 20.464C136.732 21.424 136.552 22.192 136.192 22.768C135.832 23.32 135.292 23.812 134.572 24.244C135.412 24.628 136.06 25.204 136.516 25.972C136.996 26.74 137.236 27.604 137.236 28.564C137.236 30.316 136.588 31.66 135.292 32.596C133.996 33.532 132.112 34 129.64 34H121.252ZM129.172 22.912C130.132 22.912 130.888 22.72 131.44 22.336C131.992 21.928 132.268 21.34 132.268 20.572C132.268 19.828 132.004 19.3 131.476 18.988C130.948 18.676 130.18 18.52 129.172 18.52H124.996V22.912H129.172ZM129.316 30.76C130.3 30.76 131.068 30.58 131.62 30.22C132.196 29.836 132.484 29.272 132.484 28.528C132.484 27.736 132.22 27.16 131.692 26.8C131.188 26.44 130.396 26.26 129.316 26.26H124.996V30.76H129.316ZM146.812 34.36C145.588 34.36 144.46 34.12 143.428 33.64C142.42 33.136 141.616 32.464 141.016 31.624C140.44 30.784 140.152 29.86 140.152 28.852C140.152 27.22 140.812 25.9 142.132 24.892C143.452 23.884 145.264 23.2 147.568 22.84L152.5 22.12V21.364C152.5 20.308 152.236 19.516 151.708 18.988C151.18 18.46 150.328 18.196 149.152 18.196C148.36 18.196 147.712 18.352 147.208 18.664C146.728 18.952 146.344 19.24 146.056 19.528C145.768 19.84 145.576 20.044 145.48 20.14C145.384 20.428 145.204 20.572 144.94 20.572H142.168C141.952 20.572 141.76 20.5 141.592 20.356C141.448 20.212 141.376 20.02 141.376 19.78C141.4 19.18 141.688 18.496 142.24 17.728C142.816 16.96 143.692 16.3 144.868 15.748C146.044 15.196 147.484 14.92 149.188 14.92C152.02 14.92 154.084 15.556 155.38 16.828C156.676 18.1 157.324 19.768 157.324 21.832V33.136C157.324 33.376 157.24 33.58 157.072 33.748C156.928 33.916 156.724 34 156.46 34H153.544C153.304 34 153.1 33.916 152.932 33.748C152.764 33.58 152.68 33.376 152.68 33.136V31.732C152.152 32.5 151.396 33.136 150.412 33.64C149.452 34.12 148.252 34.36 146.812 34.36ZM148.036 30.94C149.356 30.94 150.436 30.508 151.276 29.644C152.116 28.78 152.536 27.52 152.536 25.864V25.108L148.936 25.684C147.544 25.9 146.488 26.248 145.768 26.728C145.072 27.208 144.724 27.796 144.724 28.492C144.724 29.26 145.048 29.86 145.696 30.292C146.344 30.724 147.124 30.94 148.036 30.94ZM162.806 34C162.566 34 162.362 33.916 162.194 33.748C162.026 33.58 161.942 33.376 161.942 33.136V16.144C161.942 15.904 162.026 15.7 162.194 15.532C162.362 15.364 162.566 15.28 162.806 15.28H165.65C165.914 15.28 166.118 15.364 166.262 15.532C166.43 15.676 166.514 15.88 166.514 16.144V30.184H171.914V16.144C171.914 15.88 171.998 15.676 172.166 15.532C172.334 15.364 172.538 15.28 172.778 15.28H175.37C175.634 15.28 175.838 15.364 175.982 15.532C176.15 15.676 176.234 15.88 176.234 16.144V30.184H181.634V16.144C181.634 15.88 181.718 15.676 181.886 15.532C182.054 15.364 182.258 15.28 182.498 15.28H185.342C185.582 15.28 185.786 15.364 185.954 15.532C186.122 15.7 186.206 15.904 186.206 16.144V33.136C186.206 33.376 186.122 33.58 185.954 33.748C185.786 33.916 185.582 34 185.342 34H162.806ZM208.116 15.28C208.332 15.28 208.524 15.364 208.692 15.532C208.86 15.676 208.944 15.856 208.944 16.072V33.136C208.944 33.376 208.86 33.58 208.692 33.748C208.524 33.916 208.32 34 208.08 34H205.092C204.852 34 204.648 33.916 204.48 33.748C204.312 33.58 204.228 33.376 204.228 33.136V21.58L195.588 33.424C195.372 33.808 195.048 34 194.616 34H191.88C191.664 34 191.472 33.928 191.304 33.784C191.136 33.616 191.052 33.412 191.052 33.172V16.144C191.052 15.904 191.136 15.7 191.304 15.532C191.472 15.364 191.676 15.28 191.916 15.28H194.904C195.168 15.28 195.372 15.364 195.516 15.532C195.684 15.676 195.768 15.88 195.768 16.144V27.736L204.408 15.856C204.672 15.472 204.996 15.28 205.38 15.28H208.116ZM212.689 34C212.473 34 212.281 33.928 212.113 33.784C211.969 33.616 211.897 33.424 211.897 33.208C211.897 32.992 211.981 32.788 212.149 32.596L218.269 24.388L212.581 16.684C212.437 16.492 212.365 16.288 212.365 16.072C212.365 15.856 212.437 15.676 212.581 15.532C212.749 15.364 212.941 15.28 213.157 15.28H216.289C216.529 15.28 216.709 15.34 216.829 15.46C216.973 15.556 217.117 15.7 217.261 15.892L221.329 21.292L225.397 15.892C225.421 15.868 225.517 15.76 225.685 15.568C225.829 15.376 226.057 15.28 226.369 15.28H229.357C229.573 15.28 229.753 15.364 229.897 15.532C230.065 15.676 230.149 15.844 230.149 16.036C230.149 16.276 230.077 16.492 229.933 16.684L224.173 24.46L230.329 32.596C230.497 32.788 230.581 32.992 230.581 33.208C230.581 33.424 230.497 33.616 230.329 33.784C230.185 33.928 230.005 34 229.789 34H226.513C226.129 34 225.805 33.808 225.541 33.424L221.221 27.7L216.829 33.424C216.565 33.808 216.241 34 215.857 34H212.689ZM249.228 34.36C247.308 34.36 245.748 34.084 244.548 33.532C243.372 32.956 242.508 32.26 241.956 31.444C241.428 30.628 241.14 29.824 241.092 29.032V28.924C241.092 28.756 241.152 28.624 241.272 28.528C241.416 28.408 241.572 28.348 241.74 28.348H244.692C244.932 28.348 245.112 28.396 245.232 28.492C245.376 28.588 245.496 28.744 245.592 28.96C245.832 29.656 246.264 30.16 246.888 30.472C247.536 30.76 248.376 30.904 249.408 30.904C250.464 30.904 251.304 30.7 251.928 30.292C252.552 29.884 252.864 29.26 252.864 28.42C252.864 26.788 251.892 25.972 249.948 25.972H247.968C247.728 25.972 247.536 25.9 247.392 25.756C247.248 25.612 247.176 25.42 247.176 25.18V23.668C247.176 23.452 247.248 23.272 247.392 23.128C247.536 22.96 247.728 22.876 247.968 22.876H249.804C250.668 22.876 251.316 22.72 251.748 22.408C252.18 22.072 252.396 21.556 252.396 20.86C252.396 20.164 252.144 19.588 251.64 19.132C251.136 18.652 250.32 18.412 249.192 18.412C248.112 18.412 247.332 18.58 246.852 18.916C246.372 19.252 246 19.804 245.736 20.572C245.616 20.788 245.484 20.944 245.34 21.04C245.22 21.136 245.04 21.184 244.8 21.184H241.956C241.764 21.184 241.596 21.124 241.452 21.004C241.308 20.86 241.248 20.692 241.272 20.5C241.32 19.54 241.62 18.64 242.172 17.8C242.748 16.96 243.624 16.276 244.8 15.748C245.976 15.196 247.452 14.92 249.228 14.92C251.868 14.92 253.812 15.436 255.06 16.468C256.332 17.5 256.968 18.748 256.968 20.212C256.968 21.148 256.788 21.928 256.428 22.552C256.092 23.176 255.516 23.692 254.7 24.1C256.62 24.844 257.58 26.416 257.58 28.816C257.58 30.544 256.812 31.9 255.276 32.884C253.764 33.868 251.748 34.36 249.228 34.36ZM266.73 34.36C265.506 34.36 264.378 34.12 263.346 33.64C262.338 33.136 261.534 32.464 260.934 31.624C260.358 30.784 260.07 29.86 260.07 28.852C260.07 27.22 260.73 25.9 262.05 24.892C263.37 23.884 265.182 23.2 267.486 22.84L272.418 22.12V21.364C272.418 20.308 272.154 19.516 271.626 18.988C271.098 18.46 270.246 18.196 269.07 18.196C268.278 18.196 267.63 18.352 267.126 18.664C266.646 18.952 266.262 19.24 265.974 19.528C265.686 19.84 265.494 20.044 265.398 20.14C265.302 20.428 265.122 20.572 264.858 20.572H262.086C261.87 20.572 261.678 20.5 261.51 20.356C261.366 20.212 261.294 20.02 261.294 19.78C261.318 19.18 261.606 18.496 262.158 17.728C262.734 16.96 263.61 16.3 264.786 15.748C265.962 15.196 267.402 14.92 269.106 14.92C271.938 14.92 274.002 15.556 275.298 16.828C276.594 18.1 277.242 19.768 277.242 21.832V33.136C277.242 33.376 277.158 33.58 276.99 33.748C276.846 33.916 276.642 34 276.378 34H273.462C273.222 34 273.018 33.916 272.85 33.748C272.682 33.58 272.598 33.376 272.598 33.136V31.732C272.07 32.5 271.314 33.136 270.33 33.64C269.37 34.12 268.17 34.36 266.73 34.36ZM267.954 30.94C269.274 30.94 270.354 30.508 271.194 29.644C272.034 28.78 272.454 27.52 272.454 25.864V25.108L268.854 25.684C267.462 25.9 266.406 26.248 265.686 26.728C264.99 27.208 264.642 27.796 264.642 28.492C264.642 29.26 264.966 29.86 265.614 30.292C266.262 30.724 267.042 30.94 267.954 30.94ZM299.104 32.884C299.224 33.004 299.284 33.16 299.284 33.352C299.284 33.544 299.212 33.7 299.068 33.82C298.924 33.94 298.744 34 298.528 34H294.892C294.508 34 294.172 33.82 293.884 33.46L289.204 26.404H286.54V33.136C286.54 33.376 286.456 33.58 286.288 33.748C286.12 33.916 285.916 34 285.676 34H282.724C282.484 34 282.28 33.916 282.112 33.748C281.944 33.58 281.86 33.376 281.86 33.136V16.144C281.86 15.904 281.944 15.7 282.112 15.532C282.28 15.364 282.484 15.28 282.724 15.28H285.676C285.916 15.28 286.12 15.364 286.288 15.532C286.456 15.7 286.54 15.904 286.54 16.144V22.588H289.204L293.524 15.856C293.668 15.664 293.812 15.52 293.956 15.424C294.1 15.328 294.292 15.28 294.532 15.28H297.736C297.976 15.28 298.168 15.34 298.312 15.46C298.456 15.58 298.528 15.736 298.528 15.928C298.528 16.072 298.468 16.228 298.348 16.396L293.2 24.316L299.104 32.884ZM307.863 34.36C306.639 34.36 305.511 34.12 304.479 33.64C303.471 33.136 302.667 32.464 302.067 31.624C301.491 30.784 301.203 29.86 301.203 28.852C301.203 27.22 301.863 25.9 303.183 24.892C304.503 23.884 306.315 23.2 308.619 22.84L313.551 22.12V21.364C313.551 20.308 313.287 19.516 312.759 18.988C312.231 18.46 311.379 18.196 310.203 18.196C309.411 18.196 308.763 18.352 308.259 18.664C307.779 18.952 307.395 19.24 307.107 19.528C306.819 19.84 306.627 20.044 306.531 20.14C306.435 20.428 306.255 20.572 305.991 20.572H303.219C303.003 20.572 302.811 20.5 302.643 20.356C302.499 20.212 302.427 20.02 302.427 19.78C302.451 19.18 302.739 18.496 303.291 17.728C303.867 16.96 304.743 16.3 305.919 15.748C307.095 15.196 308.535 14.92 310.239 14.92C313.071 14.92 315.135 15.556 316.431 16.828C317.727 18.1 318.375 19.768 318.375 21.832V33.136C318.375 33.376 318.291 33.58 318.123 33.748C317.979 33.916 317.775 34 317.511 34H314.595C314.355 34 314.151 33.916 313.983 33.748C313.815 33.58 313.731 33.376 313.731 33.136V31.732C313.203 32.5 312.447 33.136 311.463 33.64C310.503 34.12 309.303 34.36 307.863 34.36ZM309.087 30.94C310.407 30.94 311.487 30.508 312.327 29.644C313.167 28.78 313.587 27.52 313.587 25.864V25.108L309.987 25.684C308.595 25.9 307.539 26.248 306.819 26.728C306.123 27.208 305.775 27.796 305.775 28.492C305.775 29.26 306.099 29.86 306.747 30.292C307.395 30.724 308.175 30.94 309.087 30.94ZM330.193 34.36C328.273 34.36 326.713 34.084 325.513 33.532C324.337 32.956 323.473 32.26 322.921 31.444C322.393 30.628 322.105 29.824 322.057 29.032V28.924C322.057 28.756 322.117 28.624 322.237 28.528C322.381 28.408 322.537 28.348 322.705 28.348H325.657C325.897 28.348 326.077 28.396 326.197 28.492C326.341 28.588 326.461 28.744 326.557 28.96C326.797 29.656 327.229 30.16 327.853 30.472C328.501 30.76 329.341 30.904 330.373 30.904C331.429 30.904 332.269 30.7 332.893 30.292C333.517 29.884 333.829 29.26 333.829 28.42C333.829 26.788 332.857 25.972 330.913 25.972H328.933C328.693 25.972 328.501 25.9 328.357 25.756C328.213 25.612 328.141 25.42 328.141 25.18V23.668C328.141 23.452 328.213 23.272 328.357 23.128C328.501 22.96 328.693 22.876 328.933 22.876H330.769C331.633 22.876 332.281 22.72 332.713 22.408C333.145 22.072 333.361 21.556 333.361 20.86C333.361 20.164 333.109 19.588 332.605 19.132C332.101 18.652 331.285 18.412 330.157 18.412C329.077 18.412 328.297 18.58 327.817 18.916C327.337 19.252 326.965 19.804 326.701 20.572C326.581 20.788 326.449 20.944 326.305 21.04C326.185 21.136 326.005 21.184 325.765 21.184H322.921C322.729 21.184 322.561 21.124 322.417 21.004C322.273 20.86 322.213 20.692 322.237 20.5C322.285 19.54 322.585 18.64 323.137 17.8C323.713 16.96 324.589 16.276 325.765 15.748C326.941 15.196 328.417 14.92 330.193 14.92C332.833 14.92 334.777 15.436 336.025 16.468C337.297 17.5 337.933 18.748 337.933 20.212C337.933 21.148 337.753 21.928 337.393 22.552C337.057 23.176 336.481 23.692 335.665 24.1C337.585 24.844 338.545 26.416 338.545 28.816C338.545 30.544 337.777 31.9 336.241 32.884C334.729 33.868 332.713 34.36 330.193 34.36ZM350.539 34.36C347.731 34.36 345.559 33.64 344.023 32.2C342.487 30.736 341.659 28.744 341.539 26.224L341.503 24.64L341.539 23.056C341.659 20.56 342.499 18.58 344.059 17.116C345.619 15.652 347.779 14.92 350.539 14.92C353.299 14.92 355.459 15.652 357.019 17.116C358.579 18.58 359.419 20.56 359.539 23.056C359.563 23.344 359.575 23.872 359.575 24.64C359.575 25.408 359.563 25.936 359.539 26.224C359.419 28.744 358.591 30.736 357.055 32.2C355.519 33.64 353.347 34.36 350.539 34.36ZM350.539 30.796C351.811 30.796 352.795 30.4 353.491 29.608C354.187 28.792 354.571 27.604 354.643 26.044C354.667 25.804 354.679 25.336 354.679 24.64C354.679 23.944 354.667 23.476 354.643 23.236C354.571 21.676 354.187 20.5 353.491 19.708C352.795 18.892 351.811 18.484 350.539 18.484C349.267 18.484 348.283 18.892 347.587 19.708C346.891 20.5 346.507 21.676 346.435 23.236L346.399 24.64L346.435 26.044C346.507 27.604 346.891 28.792 347.587 29.608C348.283 30.4 349.267 30.796 350.539 30.796ZM364.428 34C364.188 34 363.984 33.916 363.816 33.748C363.648 33.58 363.563 33.376 363.563 33.136V16.144C363.563 15.904 363.648 15.7 363.816 15.532C363.984 15.364 364.188 15.28 364.428 15.28H372.42C374.892 15.28 376.752 15.736 378 16.648C379.272 17.56 379.908 18.832 379.908 20.464C379.908 21.424 379.728 22.192 379.367 22.768C379.008 23.32 378.468 23.812 377.748 24.244C378.588 24.628 379.236 25.204 379.691 25.972C380.172 26.74 380.412 27.604 380.412 28.564C380.412 30.316 379.764 31.66 378.468 32.596C377.172 33.532 375.288 34 372.816 34H364.428ZM372.348 22.912C373.308 22.912 374.064 22.72 374.616 22.336C375.168 21.928 375.444 21.34 375.444 20.572C375.444 19.828 375.18 19.3 374.652 18.988C374.124 18.676 373.356 18.52 372.348 18.52H368.172V22.912H372.348ZM372.492 30.76C373.476 30.76 374.244 30.58 374.796 30.22C375.372 29.836 375.66 29.272 375.66 28.528C375.66 27.736 375.396 27.16 374.868 26.8C374.364 26.44 373.572 26.26 372.492 26.26H368.172V30.76H372.492Z" fill="#131313"/>
</svg>
