<svg width="407" height="43" viewBox="0 0 407 43" fill="none" xmlns="http://www.w3.org/2000/svg">
<circle r="11.5" transform="matrix(1 0 0 -1 12 12)" stroke="#E41222"/>
<path d="M14.152 34C13.456 34 13 33.664 12.784 32.992L5.08 9.88L5.008 9.556C5.008 9.34 5.08 9.16 5.224 9.016C5.368 8.872 5.548 8.8 5.764 8.8H8.932C9.244 8.8 9.484 8.884 9.652 9.052C9.844 9.196 9.976 9.376 10.048 9.592L16.132 28.132L22.216 9.592C22.264 9.4 22.384 9.22 22.576 9.052C22.768 8.884 23.02 8.8 23.332 8.8H26.5C26.692 8.8 26.86 8.872 27.004 9.016C27.172 9.16 27.256 9.34 27.256 9.556L27.184 9.88L19.48 32.992C19.264 33.664 18.808 34 18.112 34H14.152ZM33.9956 34.36C32.7716 34.36 31.6436 34.12 30.6116 33.64C29.6036 33.136 28.7996 32.464 28.1996 31.624C27.6236 30.784 27.3356 29.86 27.3356 28.852C27.3356 27.22 27.9956 25.9 29.3156 24.892C30.6356 23.884 32.4476 23.2 34.7516 22.84L39.6836 22.12V21.364C39.6836 20.308 39.4196 19.516 38.8916 18.988C38.3636 18.46 37.5116 18.196 36.3356 18.196C35.5436 18.196 34.8956 18.352 34.3916 18.664C33.9116 18.952 33.5276 19.24 33.2396 19.528C32.9516 19.84 32.7596 20.044 32.6636 20.14C32.5676 20.428 32.3876 20.572 32.1236 20.572H29.3516C29.1356 20.572 28.9436 20.5 28.7756 20.356C28.6316 20.212 28.5596 20.02 28.5596 19.78C28.5836 19.18 28.8716 18.496 29.4236 17.728C29.9996 16.96 30.8756 16.3 32.0516 15.748C33.2276 15.196 34.6676 14.92 36.3716 14.92C39.2036 14.92 41.2676 15.556 42.5636 16.828C43.8596 18.1 44.5076 19.768 44.5076 21.832V33.136C44.5076 33.376 44.4236 33.58 44.2556 33.748C44.1116 33.916 43.9076 34 43.6436 34H40.7276C40.4876 34 40.2836 33.916 40.1156 33.748C39.9476 33.58 39.8636 33.376 39.8636 33.136V31.732C39.3356 32.5 38.5796 33.136 37.5956 33.64C36.6356 34.12 35.4356 34.36 33.9956 34.36ZM35.2196 30.94C36.5396 30.94 37.6196 30.508 38.4596 29.644C39.2996 28.78 39.7196 27.52 39.7196 25.864V25.108L36.1196 25.684C34.7276 25.9 33.6716 26.248 32.9516 26.728C32.2556 27.208 31.9076 27.796 31.9076 28.492C31.9076 29.26 32.2316 29.86 32.8796 30.292C33.5276 30.724 34.3076 30.94 35.2196 30.94ZM36.2636 12.76C34.6316 12.76 33.4076 12.316 32.5916 11.428C31.7996 10.516 31.4036 9.376 31.4036 8.008C31.4036 7.816 31.4636 7.66 31.5836 7.54C31.7036 7.396 31.8716 7.324 32.0876 7.324H33.7796C33.9956 7.324 34.1636 7.396 34.2836 7.54C34.4036 7.66 34.4636 7.816 34.4636 8.008C34.4636 8.656 34.5956 9.184 34.8596 9.592C35.1476 10 35.6156 10.204 36.2636 10.204C37.4636 10.204 38.0636 9.472 38.0636 8.008C38.0636 7.816 38.1236 7.66 38.2436 7.54C38.3636 7.396 38.5316 7.324 38.7476 7.324H40.4396C40.6556 7.324 40.8236 7.396 40.9436 7.54C41.0636 7.66 41.1236 7.816 41.1236 8.008C41.1236 9.376 40.7156 10.516 39.8996 11.428C39.1076 12.316 37.8956 12.76 36.2636 12.76ZM62.7886 34.36C61.5646 34.36 60.4366 34.12 59.4046 33.64C58.3966 33.136 57.5926 32.464 56.9926 31.624C56.4166 30.784 56.1286 29.86 56.1286 28.852C56.1286 27.22 56.7886 25.9 58.1086 24.892C59.4286 23.884 61.2406 23.2 63.5446 22.84L68.4766 22.12V21.364C68.4766 20.308 68.2126 19.516 67.6846 18.988C67.1566 18.46 66.3046 18.196 65.1286 18.196C64.3366 18.196 63.6886 18.352 63.1846 18.664C62.7046 18.952 62.3206 19.24 62.0326 19.528C61.7446 19.84 61.5526 20.044 61.4566 20.14C61.3606 20.428 61.1806 20.572 60.9166 20.572H58.1446C57.9286 20.572 57.7366 20.5 57.5686 20.356C57.4246 20.212 57.3526 20.02 57.3526 19.78C57.3766 19.18 57.6646 18.496 58.2166 17.728C58.7926 16.96 59.6686 16.3 60.8446 15.748C62.0206 15.196 63.4606 14.92 65.1646 14.92C67.9966 14.92 70.0606 15.556 71.3566 16.828C72.6526 18.1 73.3006 19.768 73.3006 21.832V33.136C73.3006 33.376 73.2166 33.58 73.0486 33.748C72.9046 33.916 72.7006 34 72.4366 34H69.5206C69.2806 34 69.0766 33.916 68.9086 33.748C68.7406 33.58 68.6566 33.376 68.6566 33.136V31.732C68.1286 32.5 67.3726 33.136 66.3886 33.64C65.4286 34.12 64.2286 34.36 62.7886 34.36ZM64.0126 30.94C65.3326 30.94 66.4126 30.508 67.2526 29.644C68.0926 28.78 68.5126 27.52 68.5126 25.864V25.108L64.9126 25.684C63.5206 25.9 62.4646 26.248 61.7446 26.728C61.0486 27.208 60.7006 27.796 60.7006 28.492C60.7006 29.26 61.0246 29.86 61.6726 30.292C62.3206 30.724 63.1006 30.94 64.0126 30.94ZM85.011 34.36C83.211 34.36 81.699 34.096 80.475 33.568C79.251 33.016 78.339 32.38 77.739 31.66C77.163 30.916 76.875 30.28 76.875 29.752C76.875 29.512 76.959 29.32 77.127 29.176C77.295 29.032 77.487 28.96 77.703 28.96H80.547C80.763 28.96 80.943 29.044 81.087 29.212C81.183 29.284 81.435 29.5 81.843 29.86C82.251 30.244 82.731 30.544 83.283 30.76C83.835 30.976 84.447 31.084 85.119 31.084C86.079 31.084 86.871 30.892 87.495 30.508C88.119 30.124 88.431 29.596 88.431 28.924C88.431 28.42 88.287 28.012 87.999 27.7C87.735 27.388 87.243 27.112 86.523 26.872C85.803 26.608 84.735 26.332 83.319 26.044C81.279 25.612 79.767 24.952 78.783 24.064C77.823 23.176 77.343 22 77.343 20.536C77.343 19.576 77.631 18.676 78.207 17.836C78.783 16.972 79.635 16.276 80.763 15.748C81.915 15.196 83.283 14.92 84.867 14.92C86.475 14.92 87.867 15.184 89.043 15.712C90.219 16.216 91.107 16.828 91.707 17.548C92.331 18.244 92.643 18.868 92.643 19.42C92.643 19.636 92.559 19.828 92.391 19.996C92.247 20.14 92.067 20.212 91.851 20.212H89.187C88.995 20.212 88.791 20.128 88.575 19.96C88.407 19.84 88.143 19.612 87.783 19.276C87.423 18.94 87.003 18.676 86.523 18.484C86.043 18.292 85.479 18.196 84.831 18.196C83.943 18.196 83.247 18.388 82.743 18.772C82.263 19.156 82.023 19.66 82.023 20.284C82.023 20.74 82.143 21.112 82.383 21.4C82.623 21.688 83.091 21.964 83.787 22.228C84.483 22.492 85.527 22.756 86.919 23.02C89.223 23.476 90.867 24.184 91.851 25.144C92.859 26.104 93.363 27.28 93.363 28.672C93.363 30.352 92.631 31.72 91.167 32.776C89.703 33.832 87.651 34.36 85.011 34.36ZM82.563 42.136C82.347 42.136 82.179 42.064 82.059 41.92C81.939 41.776 81.891 41.596 81.915 41.38L82.599 36.952C82.647 36.616 82.767 36.34 82.959 36.124C83.151 35.908 83.415 35.8 83.751 35.8H86.775C86.943 35.8 87.087 35.86 87.207 35.98C87.351 36.124 87.423 36.28 87.423 36.448C87.423 36.616 87.387 36.784 87.315 36.952L85.659 41.236C85.539 41.524 85.383 41.74 85.191 41.884C85.023 42.052 84.783 42.136 84.471 42.136H82.563ZM105.469 34C103.285 34 101.641 33.436 100.537 32.308C99.4568 31.156 98.9168 29.476 98.9168 27.268V19.096H96.0728C95.8328 19.096 95.6288 19.012 95.4608 18.844C95.2928 18.652 95.2088 18.436 95.2088 18.196V16.144C95.2088 15.904 95.2928 15.7 95.4608 15.532C95.6288 15.364 95.8328 15.28 96.0728 15.28H98.9168V9.304C98.9168 9.04 99.0008 8.836 99.1688 8.692C99.3368 8.524 99.5408 8.44 99.7808 8.44H102.697C102.961 8.44 103.165 8.524 103.309 8.692C103.477 8.836 103.561 9.04 103.561 9.304V15.28H108.061C108.325 15.28 108.529 15.364 108.673 15.532C108.841 15.676 108.925 15.88 108.925 16.144V18.196C108.925 18.46 108.841 18.676 108.673 18.844C108.505 19.012 108.301 19.096 108.061 19.096H103.561V26.908C103.561 27.94 103.741 28.72 104.101 29.248C104.461 29.776 105.061 30.04 105.901 30.04H108.385C108.625 30.04 108.829 30.124 108.997 30.292C109.165 30.46 109.249 30.664 109.249 30.904V33.136C109.249 33.376 109.165 33.58 108.997 33.748C108.853 33.916 108.649 34 108.385 34H105.469ZM120.506 34.36C117.842 34.36 115.718 33.592 114.134 32.056C112.574 30.496 111.746 28.312 111.65 25.504L111.614 24.604L111.65 23.704C111.77 20.968 112.61 18.82 114.17 17.26C115.754 15.7 117.866 14.92 120.506 14.92C123.338 14.92 125.522 15.784 127.058 17.512C128.618 19.24 129.398 21.544 129.398 24.424V25.18C129.398 25.42 129.314 25.624 129.146 25.792C128.978 25.96 128.762 26.044 128.498 26.044H116.546V26.332C116.594 27.652 116.954 28.768 117.626 29.68C118.322 30.568 119.27 31.012 120.47 31.012C121.886 31.012 123.026 30.46 123.89 29.356C124.106 29.092 124.274 28.924 124.394 28.852C124.538 28.78 124.742 28.744 125.006 28.744H128.102C128.318 28.744 128.498 28.816 128.642 28.96C128.81 29.08 128.894 29.236 128.894 29.428C128.894 30.004 128.546 30.688 127.85 31.48C127.178 32.248 126.206 32.92 124.934 33.496C123.662 34.072 122.186 34.36 120.506 34.36ZM124.502 23.02V22.912C124.502 21.496 124.142 20.356 123.422 19.492C122.726 18.628 121.754 18.196 120.506 18.196C119.258 18.196 118.286 18.628 117.59 19.492C116.894 20.356 116.546 21.496 116.546 22.912V23.02H124.502ZM134.12 40.84C133.88 40.84 133.676 40.756 133.508 40.588C133.34 40.444 133.256 40.24 133.256 39.976V16.144C133.256 15.88 133.34 15.676 133.508 15.532C133.676 15.364 133.88 15.28 134.12 15.28H136.964C137.228 15.28 137.432 15.364 137.576 15.532C137.744 15.676 137.828 15.88 137.828 16.144V17.584C139.172 15.808 141.092 14.92 143.588 14.92C146.012 14.92 147.872 15.688 149.168 17.224C150.464 18.736 151.16 20.788 151.256 23.38C151.28 23.668 151.292 24.088 151.292 24.64C151.292 25.216 151.28 25.648 151.256 25.936C151.16 28.456 150.464 30.496 149.168 32.056C147.872 33.592 146.012 34.36 143.588 34.36C141.164 34.36 139.316 33.508 138.044 31.804V39.976C138.044 40.24 137.96 40.444 137.792 40.588C137.648 40.756 137.444 40.84 137.18 40.84H134.12ZM142.256 30.508C144.848 30.508 146.228 28.912 146.396 25.72C146.42 25.48 146.432 25.12 146.432 24.64C146.432 24.16 146.42 23.8 146.396 23.56C146.228 20.368 144.848 18.772 142.256 18.772C140.864 18.772 139.832 19.216 139.16 20.104C138.488 20.992 138.116 22.084 138.044 23.38L138.008 24.748L138.044 26.152C138.092 27.352 138.464 28.384 139.16 29.248C139.88 30.088 140.912 30.508 142.256 30.508ZM163.652 34C161.468 34 159.824 33.436 158.72 32.308C157.64 31.156 157.1 29.476 157.1 27.268V19.096H154.256C154.016 19.096 153.812 19.012 153.644 18.844C153.476 18.652 153.392 18.436 153.392 18.196V16.144C153.392 15.904 153.476 15.7 153.644 15.532C153.812 15.364 154.016 15.28 154.256 15.28H157.1V9.304C157.1 9.04 157.184 8.836 157.352 8.692C157.52 8.524 157.724 8.44 157.964 8.44H160.88C161.144 8.44 161.348 8.524 161.492 8.692C161.66 8.836 161.744 9.04 161.744 9.304V15.28H166.244C166.508 15.28 166.712 15.364 166.856 15.532C167.024 15.676 167.108 15.88 167.108 16.144V18.196C167.108 18.46 167.024 18.676 166.856 18.844C166.688 19.012 166.484 19.096 166.244 19.096H161.744V26.908C161.744 27.94 161.924 28.72 162.284 29.248C162.644 29.776 163.244 30.04 164.084 30.04H166.568C166.808 30.04 167.012 30.124 167.18 30.292C167.348 30.46 167.432 30.664 167.432 30.904V33.136C167.432 33.376 167.348 33.58 167.18 33.748C167.036 33.916 166.832 34 166.568 34H163.652ZM176.062 34.36C174.838 34.36 173.71 34.12 172.678 33.64C171.67 33.136 170.866 32.464 170.266 31.624C169.69 30.784 169.402 29.86 169.402 28.852C169.402 27.22 170.062 25.9 171.382 24.892C172.702 23.884 174.514 23.2 176.818 22.84L181.75 22.12V21.364C181.75 20.308 181.486 19.516 180.958 18.988C180.43 18.46 179.578 18.196 178.402 18.196C177.61 18.196 176.962 18.352 176.458 18.664C175.978 18.952 175.594 19.24 175.306 19.528C175.018 19.84 174.826 20.044 174.73 20.14C174.634 20.428 174.454 20.572 174.19 20.572H171.418C171.202 20.572 171.01 20.5 170.842 20.356C170.698 20.212 170.626 20.02 170.626 19.78C170.65 19.18 170.938 18.496 171.49 17.728C172.066 16.96 172.942 16.3 174.118 15.748C175.294 15.196 176.734 14.92 178.438 14.92C181.27 14.92 183.334 15.556 184.63 16.828C185.926 18.1 186.574 19.768 186.574 21.832V33.136C186.574 33.376 186.49 33.58 186.322 33.748C186.178 33.916 185.974 34 185.71 34H182.794C182.554 34 182.35 33.916 182.182 33.748C182.014 33.58 181.93 33.376 181.93 33.136V31.732C181.402 32.5 180.646 33.136 179.662 33.64C178.702 34.12 177.502 34.36 176.062 34.36ZM177.286 30.94C178.606 30.94 179.686 30.508 180.526 29.644C181.366 28.78 181.786 27.52 181.786 25.864V25.108L178.186 25.684C176.794 25.9 175.738 26.248 175.018 26.728C174.322 27.208 173.974 27.796 173.974 28.492C173.974 29.26 174.298 29.86 174.946 30.292C175.594 30.724 176.374 30.94 177.286 30.94ZM178.33 12.76C176.698 12.76 175.474 12.316 174.658 11.428C173.866 10.516 173.47 9.376 173.47 8.008C173.47 7.816 173.53 7.66 173.65 7.54C173.77 7.396 173.938 7.324 174.154 7.324H175.846C176.062 7.324 176.23 7.396 176.35 7.54C176.47 7.66 176.53 7.816 176.53 8.008C176.53 8.656 176.662 9.184 176.926 9.592C177.214 10 177.682 10.204 178.33 10.204C179.53 10.204 180.13 9.472 180.13 8.008C180.13 7.816 180.19 7.66 180.31 7.54C180.43 7.396 180.598 7.324 180.814 7.324H182.506C182.722 7.324 182.89 7.396 183.01 7.54C183.13 7.66 183.19 7.816 183.19 8.008C183.19 9.376 182.782 10.516 181.966 11.428C181.174 12.316 179.962 12.76 178.33 12.76ZM192.056 34C191.816 34 191.612 33.916 191.444 33.748C191.276 33.58 191.192 33.376 191.192 33.136V16.144C191.192 15.904 191.276 15.7 191.444 15.532C191.612 15.364 191.816 15.28 192.056 15.28H194.864C195.104 15.28 195.308 15.364 195.476 15.532C195.644 15.7 195.728 15.904 195.728 16.144V17.368C196.976 15.736 198.716 14.92 200.948 14.92C203.612 14.92 205.472 15.988 206.528 18.124C207.104 17.164 207.92 16.396 208.976 15.82C210.032 15.22 211.172 14.92 212.396 14.92C214.364 14.92 215.972 15.592 217.22 16.936C218.468 18.28 219.092 20.236 219.092 22.804V33.136C219.092 33.376 219.008 33.58 218.84 33.748C218.696 33.916 218.492 34 218.228 34H215.276C215.036 34 214.832 33.916 214.664 33.748C214.496 33.58 214.412 33.376 214.412 33.136V23.092C214.412 21.58 214.088 20.488 213.44 19.816C212.816 19.12 211.976 18.772 210.92 18.772C209.984 18.772 209.18 19.12 208.508 19.816C207.86 20.512 207.536 21.604 207.536 23.092V33.136C207.536 33.376 207.452 33.58 207.284 33.748C207.116 33.916 206.912 34 206.672 34H203.72C203.48 34 203.276 33.916 203.108 33.748C202.94 33.58 202.856 33.376 202.856 33.136V23.092C202.856 21.58 202.52 20.488 201.848 19.816C201.2 19.12 200.372 18.772 199.364 18.772C198.404 18.772 197.588 19.12 196.916 19.816C196.268 20.512 195.944 21.604 195.944 23.092V33.136C195.944 33.376 195.86 33.58 195.692 33.748C195.524 33.916 195.32 34 195.08 34H192.056ZM240.003 34.36C237.363 34.36 235.251 33.628 233.667 32.164C232.107 30.7 231.279 28.672 231.183 26.08L231.147 24.64L231.183 23.2C231.279 20.608 232.107 18.58 233.667 17.116C235.251 15.652 237.363 14.92 240.003 14.92C241.875 14.92 243.459 15.256 244.755 15.928C246.075 16.6 247.047 17.428 247.671 18.412C248.319 19.372 248.667 20.284 248.715 21.148C248.739 21.388 248.655 21.592 248.463 21.76C248.295 21.928 248.091 22.012 247.851 22.012H244.683C244.443 22.012 244.251 21.964 244.107 21.868C243.987 21.748 243.867 21.556 243.747 21.292C243.387 20.356 242.907 19.684 242.307 19.276C241.731 18.868 240.987 18.664 240.075 18.664C238.851 18.664 237.891 19.06 237.195 19.852C236.499 20.62 236.127 21.796 236.079 23.38L236.043 24.712L236.079 25.9C236.175 29.044 237.507 30.616 240.075 30.616C241.011 30.616 241.767 30.412 242.343 30.004C242.919 29.596 243.387 28.924 243.747 27.988C243.867 27.724 243.987 27.544 244.107 27.448C244.251 27.328 244.443 27.268 244.683 27.268H247.851C248.091 27.268 248.295 27.352 248.463 27.52C248.655 27.688 248.739 27.892 248.715 28.132C248.667 28.972 248.331 29.872 247.707 30.832C247.083 31.792 246.123 32.62 244.827 33.316C243.531 34.012 241.923 34.36 240.003 34.36ZM260.75 34.36C257.942 34.36 255.77 33.64 254.234 32.2C252.698 30.736 251.87 28.744 251.75 26.224L251.714 24.64L251.75 23.056C251.87 20.56 252.71 18.58 254.27 17.116C255.83 15.652 257.99 14.92 260.75 14.92C263.51 14.92 265.67 15.652 267.23 17.116C268.79 18.58 269.63 20.56 269.75 23.056C269.774 23.344 269.786 23.872 269.786 24.64C269.786 25.408 269.774 25.936 269.75 26.224C269.63 28.744 268.802 30.736 267.266 32.2C265.73 33.64 263.558 34.36 260.75 34.36ZM260.75 30.796C262.022 30.796 263.006 30.4 263.702 29.608C264.398 28.792 264.782 27.604 264.854 26.044C264.878 25.804 264.89 25.336 264.89 24.64C264.89 23.944 264.878 23.476 264.854 23.236C264.782 21.676 264.398 20.5 263.702 19.708C263.006 18.892 262.022 18.484 260.75 18.484C259.478 18.484 258.494 18.892 257.798 19.708C257.102 20.5 256.718 21.676 256.646 23.236L256.61 24.64L256.646 26.044C256.718 27.604 257.102 28.792 257.798 29.608C258.494 30.4 259.478 30.796 260.75 30.796ZM274.638 34C274.398 34 274.194 33.916 274.026 33.748C273.858 33.58 273.774 33.376 273.774 33.136V16.144C273.774 15.904 273.858 15.7 274.026 15.532C274.194 15.364 274.398 15.28 274.638 15.28H277.446C277.686 15.28 277.89 15.364 278.058 15.532C278.226 15.7 278.31 15.904 278.31 16.144V17.368C279.558 15.736 281.298 14.92 283.53 14.92C286.194 14.92 288.054 15.988 289.11 18.124C289.686 17.164 290.502 16.396 291.558 15.82C292.614 15.22 293.754 14.92 294.978 14.92C296.946 14.92 298.554 15.592 299.802 16.936C301.05 18.28 301.674 20.236 301.674 22.804V33.136C301.674 33.376 301.59 33.58 301.422 33.748C301.278 33.916 301.074 34 300.81 34H297.858C297.618 34 297.414 33.916 297.246 33.748C297.078 33.58 296.994 33.376 296.994 33.136V23.092C296.994 21.58 296.67 20.488 296.022 19.816C295.398 19.12 294.558 18.772 293.502 18.772C292.566 18.772 291.762 19.12 291.09 19.816C290.442 20.512 290.118 21.604 290.118 23.092V33.136C290.118 33.376 290.034 33.58 289.866 33.748C289.698 33.916 289.494 34 289.254 34H286.302C286.062 34 285.858 33.916 285.69 33.748C285.522 33.58 285.438 33.376 285.438 33.136V23.092C285.438 21.58 285.102 20.488 284.43 19.816C283.782 19.12 282.954 18.772 281.946 18.772C280.986 18.772 280.17 19.12 279.498 19.816C278.85 20.512 278.526 21.604 278.526 23.092V33.136C278.526 33.376 278.442 33.58 278.274 33.748C278.106 33.916 277.902 34 277.662 34H274.638ZM314.323 34.36C311.659 34.36 309.535 33.592 307.951 32.056C306.391 30.496 305.563 28.312 305.467 25.504L305.431 24.604L305.467 23.704C305.587 20.968 306.427 18.82 307.987 17.26C309.571 15.7 311.683 14.92 314.323 14.92C317.155 14.92 319.339 15.784 320.875 17.512C322.435 19.24 323.215 21.544 323.215 24.424V25.18C323.215 25.42 323.131 25.624 322.963 25.792C322.795 25.96 322.579 26.044 322.315 26.044H310.363V26.332C310.411 27.652 310.771 28.768 311.443 29.68C312.139 30.568 313.087 31.012 314.287 31.012C315.703 31.012 316.843 30.46 317.707 29.356C317.923 29.092 318.091 28.924 318.211 28.852C318.355 28.78 318.559 28.744 318.823 28.744H321.919C322.135 28.744 322.315 28.816 322.459 28.96C322.627 29.08 322.711 29.236 322.711 29.428C322.711 30.004 322.363 30.688 321.667 31.48C320.995 32.248 320.023 32.92 318.751 33.496C317.479 34.072 316.003 34.36 314.323 34.36ZM318.319 23.02V22.912C318.319 21.496 317.959 20.356 317.239 19.492C316.543 18.628 315.571 18.196 314.323 18.196C313.075 18.196 312.103 18.628 311.407 19.492C310.711 20.356 310.363 21.496 310.363 22.912V23.02H318.319ZM327.9 34C327.66 34 327.456 33.916 327.288 33.748C327.12 33.58 327.036 33.376 327.036 33.136V16.144C327.036 15.904 327.12 15.7 327.288 15.532C327.456 15.364 327.66 15.28 327.9 15.28H330.852C331.092 15.28 331.296 15.364 331.464 15.532C331.632 15.7 331.716 15.904 331.716 16.144V17.62C333.132 15.82 335.136 14.92 337.728 14.92C339.936 14.92 341.688 15.652 342.984 17.116C344.28 18.556 344.928 20.524 344.928 23.02V33.136C344.928 33.376 344.844 33.58 344.676 33.748C344.532 33.916 344.328 34 344.064 34H340.896C340.656 34 340.452 33.916 340.284 33.748C340.116 33.58 340.032 33.376 340.032 33.136V23.236C340.032 21.82 339.684 20.728 338.988 19.96C338.316 19.168 337.332 18.772 336.036 18.772C334.764 18.772 333.756 19.168 333.012 19.96C332.292 20.752 331.932 21.844 331.932 23.236V33.136C331.932 33.376 331.848 33.58 331.68 33.748C331.536 33.916 331.332 34 331.068 34H327.9ZM349.429 34C349.189 34 348.985 33.916 348.817 33.748C348.649 33.58 348.565 33.376 348.565 33.136V31.084C348.565 30.748 348.733 30.364 349.069 29.932L358.285 19.024H349.717C349.477 19.024 349.273 18.94 349.105 18.772C348.937 18.604 348.853 18.4 348.853 18.16V16.144C348.853 15.904 348.937 15.7 349.105 15.532C349.273 15.364 349.477 15.28 349.717 15.28H363.361C363.625 15.28 363.829 15.364 363.973 15.532C364.141 15.676 364.225 15.88 364.225 16.144V18.34C364.225 18.676 364.057 19.036 363.721 19.42L354.721 30.256H364.117C364.381 30.256 364.585 30.34 364.729 30.508C364.897 30.652 364.981 30.856 364.981 31.12V33.136C364.981 33.376 364.897 33.58 364.729 33.748C364.585 33.916 364.381 34 364.117 34H349.429ZM369.346 12.184C369.106 12.184 368.902 12.1 368.734 11.932C368.566 11.764 368.482 11.56 368.482 11.32V8.728C368.482 8.488 368.566 8.284 368.734 8.116C368.902 7.948 369.106 7.864 369.346 7.864H372.622C372.862 7.864 373.066 7.948 373.234 8.116C373.426 8.284 373.522 8.488 373.522 8.728V11.32C373.522 11.56 373.438 11.764 373.27 11.932C373.102 12.1 372.886 12.184 372.622 12.184H369.346ZM369.49 34C369.25 34 369.046 33.916 368.878 33.748C368.71 33.58 368.626 33.376 368.626 33.136V16.144C368.626 15.904 368.71 15.7 368.878 15.532C369.046 15.364 369.25 15.28 369.49 15.28H372.478C372.742 15.28 372.946 15.364 373.09 15.532C373.258 15.676 373.342 15.88 373.342 16.144V33.136C373.342 33.376 373.258 33.58 373.09 33.748C372.946 33.916 372.742 34 372.478 34H369.49ZM379.018 34C378.778 34 378.574 33.916 378.406 33.748C378.238 33.58 378.154 33.376 378.154 33.136V9.304C378.154 9.04 378.238 8.836 378.406 8.692C378.574 8.524 378.778 8.44 379.018 8.44H382.006C382.27 8.44 382.474 8.524 382.618 8.692C382.786 8.836 382.87 9.04 382.87 9.304V33.136C382.87 33.376 382.786 33.58 382.618 33.748C382.474 33.916 382.27 34 382.006 34H379.018ZM395.71 34.36C393.046 34.36 390.922 33.592 389.338 32.056C387.778 30.496 386.95 28.312 386.854 25.504L386.818 24.604L386.854 23.704C386.974 20.968 387.814 18.82 389.374 17.26C390.958 15.7 393.07 14.92 395.71 14.92C398.542 14.92 400.726 15.784 402.262 17.512C403.822 19.24 404.602 21.544 404.602 24.424V25.18C404.602 25.42 404.518 25.624 404.35 25.792C404.182 25.96 403.966 26.044 403.702 26.044H391.75V26.332C391.798 27.652 392.158 28.768 392.83 29.68C393.526 30.568 394.474 31.012 395.674 31.012C397.09 31.012 398.23 30.46 399.094 29.356C399.31 29.092 399.478 28.924 399.598 28.852C399.742 28.78 399.946 28.744 400.21 28.744H403.306C403.522 28.744 403.702 28.816 403.846 28.96C404.014 29.08 404.098 29.236 404.098 29.428C404.098 30.004 403.75 30.688 403.054 31.48C402.382 32.248 401.41 32.92 400.138 33.496C398.866 34.072 397.39 34.36 395.71 34.36ZM399.706 23.02V22.912C399.706 21.496 399.346 20.356 398.626 19.492C397.93 18.628 396.958 18.196 395.71 18.196C394.462 18.196 393.49 18.628 392.794 19.492C392.098 20.356 391.75 21.496 391.75 22.912V23.02H399.706Z" fill="#131313"/>
</svg>
