<svg width="310" height="43" viewBox="0 0 310 43" fill="none" xmlns="http://www.w3.org/2000/svg">
<circle r="11.5" transform="matrix(1 0 0 -1 12 12)" stroke="#E41222"/>
<path d="M26.932 32.776C27.004 32.872 27.04 33.004 27.04 33.172C27.04 33.388 26.956 33.58 26.788 33.748C26.644 33.916 26.452 34 26.212 34H22.504C22.216 34 22 33.952 21.856 33.856C21.712 33.736 21.568 33.58 21.424 33.388L15.232 23.488H11.812V33.136C11.812 33.376 11.728 33.58 11.56 33.748C11.416 33.916 11.212 34 10.948 34H7.672C7.432 34 7.228 33.916 7.06 33.748C6.892 33.58 6.808 33.376 6.808 33.136V9.7C6.808 9.436 6.88 9.22 7.024 9.052C7.192 8.884 7.408 8.8 7.672 8.8H10.948C11.212 8.8 11.416 8.884 11.56 9.052C11.728 9.22 11.812 9.436 11.812 9.7V18.988L14.98 19.024L20.812 9.448C21.052 9.016 21.484 8.8 22.108 8.8H25.672C25.912 8.8 26.092 8.872 26.212 9.016C26.356 9.16 26.428 9.34 26.428 9.556C26.428 9.652 26.38 9.796 26.284 9.988L19.48 20.968L26.932 32.776ZM35.9292 34.36C34.7052 34.36 33.5772 34.12 32.5452 33.64C31.5372 33.136 30.7332 32.464 30.1332 31.624C29.5572 30.784 29.2692 29.86 29.2692 28.852C29.2692 27.22 29.9292 25.9 31.2492 24.892C32.5692 23.884 34.3812 23.2 36.6852 22.84L41.6172 22.12V21.364C41.6172 20.308 41.3532 19.516 40.8252 18.988C40.2972 18.46 39.4452 18.196 38.2692 18.196C37.4772 18.196 36.8292 18.352 36.3252 18.664C35.8452 18.952 35.4612 19.24 35.1732 19.528C34.8852 19.84 34.6932 20.044 34.5972 20.14C34.5012 20.428 34.3212 20.572 34.0572 20.572H31.2852C31.0692 20.572 30.8772 20.5 30.7092 20.356C30.5652 20.212 30.4932 20.02 30.4932 19.78C30.5172 19.18 30.8052 18.496 31.3572 17.728C31.9332 16.96 32.8092 16.3 33.9852 15.748C35.1612 15.196 36.6012 14.92 38.3052 14.92C41.1372 14.92 43.2012 15.556 44.4972 16.828C45.7932 18.1 46.4412 19.768 46.4412 21.832V33.136C46.4412 33.376 46.3572 33.58 46.1892 33.748C46.0452 33.916 45.8412 34 45.5772 34H42.6612C42.4212 34 42.2172 33.916 42.0492 33.748C41.8812 33.58 41.7972 33.376 41.7972 33.136V31.732C41.2692 32.5 40.5132 33.136 39.5292 33.64C38.5692 34.12 37.3692 34.36 35.9292 34.36ZM37.1532 30.94C38.4732 30.94 39.5532 30.508 40.3932 29.644C41.2332 28.78 41.6532 27.52 41.6532 25.864V25.108L38.0532 25.684C36.6612 25.9 35.6052 26.248 34.8852 26.728C34.1892 27.208 33.8412 27.796 33.8412 28.492C33.8412 29.26 34.1652 29.86 34.8132 30.292C35.4612 30.724 36.2412 30.94 37.1532 30.94ZM68.3036 32.884C68.4236 33.004 68.4836 33.16 68.4836 33.352C68.4836 33.544 68.4116 33.7 68.2676 33.82C68.1236 33.94 67.9436 34 67.7276 34H64.0916C63.7076 34 63.3716 33.82 63.0836 33.46L58.4036 26.404H55.7396V33.136C55.7396 33.376 55.6556 33.58 55.4876 33.748C55.3196 33.916 55.1156 34 54.8756 34H51.9236C51.6836 34 51.4796 33.916 51.3116 33.748C51.1436 33.58 51.0596 33.376 51.0596 33.136V16.144C51.0596 15.904 51.1436 15.7 51.3116 15.532C51.4796 15.364 51.6836 15.28 51.9236 15.28H54.8756C55.1156 15.28 55.3196 15.364 55.4876 15.532C55.6556 15.7 55.7396 15.904 55.7396 16.144V22.588H58.4036L62.7236 15.856C62.8676 15.664 63.0116 15.52 63.1556 15.424C63.2996 15.328 63.4916 15.28 63.7316 15.28H66.9356C67.1756 15.28 67.3676 15.34 67.5116 15.46C67.6556 15.58 67.7276 15.736 67.7276 15.928C67.7276 16.072 67.6676 16.228 67.5476 16.396L62.3996 24.316L68.3036 32.884ZM99.5446 15.28C99.7366 15.28 99.9046 15.352 100.049 15.496C100.217 15.64 100.301 15.796 100.301 15.964V33.244C100.301 33.46 100.229 33.64 100.085 33.784C99.9406 33.928 99.7486 34 99.5086 34H96.4126C96.1726 34 95.9806 33.928 95.8366 33.784C95.7166 33.64 95.6566 33.46 95.6566 33.244V23.164L91.8046 30.256C91.6366 30.544 91.4686 30.76 91.3006 30.904C91.1566 31.048 90.9406 31.12 90.6526 31.12H89.4646C89.2006 31.12 88.9846 31.048 88.8166 30.904C88.6486 30.76 88.4926 30.544 88.3486 30.256L84.4966 23.308V33.244C84.4966 33.46 84.4246 33.64 84.2806 33.784C84.1366 33.928 83.9566 34 83.7406 34H80.6446C80.4046 34 80.2126 33.928 80.0686 33.784C79.9246 33.64 79.8526 33.46 79.8526 33.244V15.964C79.8526 15.796 79.9246 15.64 80.0686 15.496C80.2126 15.352 80.3806 15.28 80.5726 15.28H83.5966C84.0046 15.28 84.3166 15.484 84.5326 15.892L90.0766 25.972L95.6206 15.892C95.8366 15.484 96.1486 15.28 96.5566 15.28H99.5446ZM106.029 34C105.789 34 105.585 33.916 105.417 33.748C105.249 33.58 105.165 33.376 105.165 33.136V16.144C105.165 15.904 105.249 15.7 105.417 15.532C105.585 15.364 105.789 15.28 106.029 15.28H109.053C109.293 15.28 109.497 15.364 109.665 15.532C109.833 15.7 109.917 15.904 109.917 16.144V21.22H113.409C115.809 21.22 117.633 21.796 118.881 22.948C120.129 24.076 120.753 25.66 120.753 27.7C120.753 29.788 120.105 31.36 118.809 32.416C117.513 33.472 115.617 34 113.121 34H106.029ZM123.993 34C123.753 34 123.549 33.916 123.381 33.748C123.213 33.58 123.129 33.376 123.129 33.136V16.144C123.129 15.904 123.213 15.7 123.381 15.532C123.549 15.364 123.753 15.28 123.993 15.28H126.981C127.245 15.28 127.449 15.364 127.593 15.532C127.761 15.676 127.845 15.88 127.845 16.144V33.136C127.845 33.376 127.761 33.58 127.593 33.748C127.449 33.916 127.245 34 126.981 34H123.993ZM113.013 30.58C114.213 30.58 115.089 30.364 115.641 29.932C116.193 29.476 116.469 28.732 116.469 27.7C116.469 26.668 116.193 25.9 115.641 25.396C115.089 24.892 114.213 24.64 113.013 24.64H109.845V30.58H113.013ZM141.819 40.84C141.579 40.84 141.375 40.756 141.207 40.588C141.039 40.444 140.955 40.24 140.955 39.976V16.144C140.955 15.88 141.039 15.676 141.207 15.532C141.375 15.364 141.579 15.28 141.819 15.28H144.663C144.927 15.28 145.131 15.364 145.275 15.532C145.443 15.676 145.527 15.88 145.527 16.144V17.584C146.871 15.808 148.791 14.92 151.287 14.92C153.711 14.92 155.571 15.688 156.867 17.224C158.163 18.736 158.859 20.788 158.955 23.38C158.979 23.668 158.991 24.088 158.991 24.64C158.991 25.216 158.979 25.648 158.955 25.936C158.859 28.456 158.163 30.496 156.867 32.056C155.571 33.592 153.711 34.36 151.287 34.36C148.863 34.36 147.015 33.508 145.743 31.804V39.976C145.743 40.24 145.659 40.444 145.491 40.588C145.347 40.756 145.143 40.84 144.879 40.84H141.819ZM149.955 30.508C152.547 30.508 153.927 28.912 154.095 25.72C154.119 25.48 154.131 25.12 154.131 24.64C154.131 24.16 154.119 23.8 154.095 23.56C153.927 20.368 152.547 18.772 149.955 18.772C148.563 18.772 147.531 19.216 146.859 20.104C146.187 20.992 145.815 22.084 145.743 23.38L145.707 24.748L145.743 26.152C145.791 27.352 146.163 28.384 146.859 29.248C147.579 30.088 148.611 30.508 149.955 30.508ZM168.468 34.36C167.244 34.36 166.116 34.12 165.084 33.64C164.076 33.136 163.272 32.464 162.672 31.624C162.096 30.784 161.808 29.86 161.808 28.852C161.808 27.22 162.468 25.9 163.788 24.892C165.108 23.884 166.92 23.2 169.224 22.84L174.156 22.12V21.364C174.156 20.308 173.892 19.516 173.364 18.988C172.836 18.46 171.984 18.196 170.808 18.196C170.016 18.196 169.368 18.352 168.864 18.664C168.384 18.952 168 19.24 167.712 19.528C167.424 19.84 167.232 20.044 167.136 20.14C167.04 20.428 166.86 20.572 166.596 20.572H163.824C163.608 20.572 163.416 20.5 163.248 20.356C163.104 20.212 163.032 20.02 163.032 19.78C163.056 19.18 163.344 18.496 163.896 17.728C164.472 16.96 165.348 16.3 166.524 15.748C167.7 15.196 169.14 14.92 170.844 14.92C173.676 14.92 175.74 15.556 177.036 16.828C178.332 18.1 178.98 19.768 178.98 21.832V33.136C178.98 33.376 178.896 33.58 178.728 33.748C178.584 33.916 178.38 34 178.116 34H175.2C174.96 34 174.756 33.916 174.588 33.748C174.42 33.58 174.336 33.376 174.336 33.136V31.732C173.808 32.5 173.052 33.136 172.068 33.64C171.108 34.12 169.908 34.36 168.468 34.36ZM169.692 30.94C171.012 30.94 172.092 30.508 172.932 29.644C173.772 28.78 174.192 27.52 174.192 25.864V25.108L170.592 25.684C169.2 25.9 168.144 26.248 167.424 26.728C166.728 27.208 166.38 27.796 166.38 28.492C166.38 29.26 166.704 29.86 167.352 30.292C168 30.724 168.78 30.94 169.692 30.94ZM201.059 24.208C201.083 24.472 201.095 24.88 201.095 25.432C201.095 25.96 201.083 26.344 201.059 26.584C200.939 28.984 200.111 30.88 198.575 32.272C197.063 33.664 194.891 34.36 192.059 34.36C189.083 34.36 186.863 33.592 185.399 32.056C183.959 30.496 183.179 28.204 183.059 25.18L183.023 23.02L183.059 20.86C183.131 17.452 183.659 14.896 184.643 13.192C185.627 11.464 187.055 10.216 188.927 9.448C190.799 8.656 193.823 7.756 197.999 6.748L198.179 6.712C198.371 6.712 198.551 6.784 198.719 6.928C198.887 7.048 198.983 7.216 199.007 7.432L199.475 9.808L199.511 10.024C199.511 10.216 199.451 10.384 199.331 10.528C199.211 10.648 199.055 10.732 198.863 10.78L197.711 11.032C194.855 11.68 192.803 12.232 191.555 12.688C190.331 13.12 189.395 13.792 188.747 14.704C188.099 15.616 187.727 16.984 187.631 18.808C188.207 18.088 188.963 17.512 189.899 17.08C190.859 16.648 191.867 16.432 192.923 16.432C195.443 16.432 197.399 17.128 198.791 18.52C200.183 19.912 200.939 21.808 201.059 24.208ZM196.163 26.404C196.187 26.236 196.199 25.924 196.199 25.468C196.199 24.964 196.187 24.604 196.163 24.388C196.115 22.9 195.755 21.76 195.083 20.968C194.411 20.152 193.499 19.744 192.347 19.744C191.027 19.744 189.983 20.152 189.215 20.968C188.447 21.76 188.039 22.9 187.991 24.388L187.955 25.468L187.991 26.404C188.039 27.916 188.411 29.068 189.107 29.86C189.803 30.652 190.787 31.048 192.059 31.048C193.331 31.048 194.315 30.664 195.011 29.896C195.731 29.104 196.115 27.94 196.163 26.404ZM213.359 34.36C210.551 34.36 208.379 33.64 206.843 32.2C205.307 30.736 204.479 28.744 204.359 26.224L204.323 24.64L204.359 23.056C204.479 20.56 205.319 18.58 206.879 17.116C208.439 15.652 210.599 14.92 213.359 14.92C216.119 14.92 218.279 15.652 219.839 17.116C221.399 18.58 222.239 20.56 222.359 23.056C222.383 23.344 222.395 23.872 222.395 24.64C222.395 25.408 222.383 25.936 222.359 26.224C222.239 28.744 221.411 30.736 219.875 32.2C218.339 33.64 216.167 34.36 213.359 34.36ZM213.359 30.796C214.631 30.796 215.615 30.4 216.311 29.608C217.007 28.792 217.391 27.604 217.463 26.044C217.487 25.804 217.499 25.336 217.499 24.64C217.499 23.944 217.487 23.476 217.463 23.236C217.391 21.676 217.007 20.5 216.311 19.708C215.615 18.892 214.631 18.484 213.359 18.484C212.087 18.484 211.103 18.892 210.407 19.708C209.711 20.5 209.327 21.676 209.255 23.236L209.219 24.64L209.255 26.044C209.327 27.604 209.711 28.792 210.407 29.608C211.103 30.4 212.087 30.796 213.359 30.796ZM232.108 34C231.868 34 231.664 33.916 231.496 33.748C231.328 33.58 231.244 33.376 231.244 33.136V19.096H225.376C225.136 19.096 224.932 19.012 224.764 18.844C224.596 18.676 224.512 18.46 224.512 18.196V16.144C224.512 15.88 224.596 15.676 224.764 15.532C224.932 15.364 225.136 15.28 225.376 15.28H241.72C241.984 15.28 242.2 15.364 242.368 15.532C242.536 15.7 242.62 15.904 242.62 16.144V18.196C242.62 18.436 242.536 18.652 242.368 18.844C242.2 19.012 241.984 19.096 241.72 19.096H235.888V33.136C235.888 33.376 235.804 33.58 235.636 33.748C235.492 33.916 235.288 34 235.024 34H232.108ZM250.91 34.36C249.686 34.36 248.558 34.12 247.526 33.64C246.518 33.136 245.714 32.464 245.114 31.624C244.538 30.784 244.25 29.86 244.25 28.852C244.25 27.22 244.91 25.9 246.23 24.892C247.55 23.884 249.362 23.2 251.666 22.84L256.598 22.12V21.364C256.598 20.308 256.334 19.516 255.806 18.988C255.278 18.46 254.426 18.196 253.25 18.196C252.458 18.196 251.81 18.352 251.306 18.664C250.826 18.952 250.442 19.24 250.154 19.528C249.866 19.84 249.674 20.044 249.578 20.14C249.482 20.428 249.302 20.572 249.038 20.572H246.266C246.05 20.572 245.858 20.5 245.69 20.356C245.546 20.212 245.474 20.02 245.474 19.78C245.498 19.18 245.786 18.496 246.338 17.728C246.914 16.96 247.79 16.3 248.966 15.748C250.142 15.196 251.582 14.92 253.286 14.92C256.118 14.92 258.182 15.556 259.478 16.828C260.774 18.1 261.422 19.768 261.422 21.832V33.136C261.422 33.376 261.338 33.58 261.17 33.748C261.026 33.916 260.822 34 260.558 34H257.642C257.402 34 257.198 33.916 257.03 33.748C256.862 33.58 256.778 33.376 256.778 33.136V31.732C256.25 32.5 255.494 33.136 254.51 33.64C253.55 34.12 252.35 34.36 250.91 34.36ZM252.134 30.94C253.454 30.94 254.534 30.508 255.374 29.644C256.214 28.78 256.634 27.52 256.634 25.864V25.108L253.034 25.684C251.642 25.9 250.586 26.248 249.866 26.728C249.17 27.208 248.822 27.796 248.822 28.492C248.822 29.26 249.146 29.86 249.794 30.292C250.442 30.724 251.222 30.94 252.134 30.94ZM274.104 34.36C271.44 34.36 269.316 33.592 267.732 32.056C266.172 30.496 265.344 28.312 265.248 25.504L265.212 24.604L265.248 23.704C265.368 20.968 266.208 18.82 267.768 17.26C269.352 15.7 271.464 14.92 274.104 14.92C276.936 14.92 279.12 15.784 280.656 17.512C282.216 19.24 282.996 21.544 282.996 24.424V25.18C282.996 25.42 282.912 25.624 282.744 25.792C282.576 25.96 282.36 26.044 282.096 26.044H270.144V26.332C270.192 27.652 270.552 28.768 271.224 29.68C271.92 30.568 272.868 31.012 274.068 31.012C275.484 31.012 276.624 30.46 277.488 29.356C277.704 29.092 277.872 28.924 277.992 28.852C278.136 28.78 278.34 28.744 278.604 28.744H281.7C281.916 28.744 282.096 28.816 282.24 28.96C282.408 29.08 282.492 29.236 282.492 29.428C282.492 30.004 282.144 30.688 281.448 31.48C280.776 32.248 279.804 32.92 278.532 33.496C277.26 34.072 275.784 34.36 274.104 34.36ZM278.1 23.02V22.912C278.1 21.496 277.74 20.356 277.02 19.492C276.324 18.628 275.352 18.196 274.104 18.196C272.856 18.196 271.884 18.628 271.188 19.492C270.492 20.356 270.144 21.496 270.144 22.912V23.02H278.1ZM306.509 15.28C306.701 15.28 306.869 15.352 307.013 15.496C307.181 15.64 307.265 15.796 307.265 15.964V33.244C307.265 33.46 307.193 33.64 307.049 33.784C306.905 33.928 306.713 34 306.473 34H303.377C303.137 34 302.945 33.928 302.801 33.784C302.681 33.64 302.621 33.46 302.621 33.244V23.164L298.769 30.256C298.601 30.544 298.433 30.76 298.265 30.904C298.121 31.048 297.905 31.12 297.617 31.12H296.429C296.165 31.12 295.949 31.048 295.781 30.904C295.613 30.76 295.457 30.544 295.313 30.256L291.461 23.308V33.244C291.461 33.46 291.389 33.64 291.245 33.784C291.101 33.928 290.921 34 290.705 34H287.609C287.369 34 287.177 33.928 287.033 33.784C286.889 33.64 286.817 33.46 286.817 33.244V15.964C286.817 15.796 286.889 15.64 287.033 15.496C287.177 15.352 287.345 15.28 287.537 15.28H290.561C290.969 15.28 291.281 15.484 291.497 15.892L297.041 25.972L302.585 15.892C302.801 15.484 303.113 15.28 303.521 15.28H306.509Z" fill="#131313"/>
</svg>
