<svg width="274" height="43" viewBox="0 0 274 43" fill="none" xmlns="http://www.w3.org/2000/svg">
<circle r="11.5" transform="matrix(1 0 0 -1 12 12)" stroke="#E41222"/>
<path d="M16.528 34.36C13.216 34.36 10.648 33.508 8.824 31.804C7.024 30.1 6.064 27.7 5.944 24.604C5.92 23.956 5.908 22.9 5.908 21.436C5.908 19.948 5.92 18.868 5.944 18.196C6.064 15.124 7.036 12.736 8.86 11.032C10.708 9.304 13.264 8.44 16.528 8.44C18.664 8.44 20.524 8.812 22.108 9.556C23.692 10.276 24.916 11.272 25.78 12.544C26.644 13.792 27.1 15.208 27.148 16.792V16.864C27.148 17.056 27.064 17.224 26.896 17.368C26.752 17.488 26.584 17.548 26.392 17.548H22.972C22.684 17.548 22.468 17.488 22.324 17.368C22.18 17.248 22.06 17.02 21.964 16.684C21.58 15.172 20.944 14.116 20.056 13.516C19.168 12.892 17.98 12.58 16.492 12.58C13.036 12.58 11.236 14.512 11.092 18.376C11.068 19.024 11.056 20.02 11.056 21.364C11.056 22.708 11.068 23.728 11.092 24.424C11.236 28.288 13.036 30.22 16.492 30.22C17.98 30.22 19.168 29.908 20.056 29.284C20.968 28.66 21.604 27.604 21.964 26.116C22.036 25.78 22.144 25.552 22.288 25.432C22.456 25.312 22.684 25.252 22.972 25.252H26.392C26.608 25.252 26.788 25.324 26.932 25.468C27.1 25.612 27.172 25.792 27.148 26.008C27.1 27.592 26.644 29.02 25.78 30.292C24.916 31.54 23.692 32.536 22.108 33.28C20.524 34 18.664 34.36 16.528 34.36ZM37.9334 34.36C35.7254 34.36 33.9854 33.64 32.7134 32.2C31.4414 30.736 30.8054 28.756 30.8054 26.26V16.144C30.8054 15.904 30.8894 15.7 31.0574 15.532C31.2254 15.364 31.4294 15.28 31.6694 15.28H34.8374C35.1014 15.28 35.3054 15.364 35.4494 15.532C35.6174 15.676 35.7014 15.88 35.7014 16.144V26.044C35.7014 29.02 37.0094 30.508 39.6254 30.508C40.8734 30.508 41.8574 30.112 42.5774 29.32C43.3214 28.528 43.6934 27.436 43.6934 26.044V16.144C43.6934 15.904 43.7774 15.7 43.9454 15.532C44.1134 15.364 44.3174 15.28 44.5574 15.28H47.7254C47.9894 15.28 48.1934 15.364 48.3374 15.532C48.5054 15.676 48.5894 15.88 48.5894 16.144V33.136C48.5894 33.376 48.5054 33.58 48.3374 33.748C48.1934 33.916 47.9894 34 47.7254 34H44.8094C44.5694 34 44.3654 33.916 44.1974 33.748C44.0294 33.58 43.9454 33.376 43.9454 33.136V31.66C42.6014 33.46 40.5974 34.36 37.9334 34.36ZM54.2088 34C53.9688 34 53.7648 33.916 53.5968 33.748C53.4288 33.58 53.3447 33.376 53.3447 33.136V16.144C53.3447 15.904 53.4288 15.7 53.5968 15.532C53.7648 15.364 53.9688 15.28 54.2088 15.28H57.0168C57.2568 15.28 57.4608 15.364 57.6288 15.532C57.7968 15.7 57.8808 15.904 57.8808 16.144V17.368C59.1288 15.736 60.8688 14.92 63.1008 14.92C65.7648 14.92 67.6248 15.988 68.6808 18.124C69.2568 17.164 70.0728 16.396 71.1288 15.82C72.1848 15.22 73.3248 14.92 74.5488 14.92C76.5168 14.92 78.1248 15.592 79.3728 16.936C80.6208 18.28 81.2448 20.236 81.2448 22.804V33.136C81.2448 33.376 81.1608 33.58 80.9928 33.748C80.8488 33.916 80.6448 34 80.3808 34H77.4288C77.1888 34 76.9848 33.916 76.8168 33.748C76.6488 33.58 76.5648 33.376 76.5648 33.136V23.092C76.5648 21.58 76.2408 20.488 75.5928 19.816C74.9688 19.12 74.1288 18.772 73.0728 18.772C72.1368 18.772 71.3328 19.12 70.6608 19.816C70.0128 20.512 69.6888 21.604 69.6888 23.092V33.136C69.6888 33.376 69.6048 33.58 69.4368 33.748C69.2688 33.916 69.0648 34 68.8248 34H65.8728C65.6328 34 65.4288 33.916 65.2608 33.748C65.0928 33.58 65.0088 33.376 65.0088 33.136V23.092C65.0088 21.58 64.6728 20.488 64.0008 19.816C63.3528 19.12 62.5248 18.772 61.5168 18.772C60.5568 18.772 59.7408 19.12 59.0688 19.816C58.4208 20.512 58.0968 21.604 58.0968 23.092V33.136C58.0968 33.376 58.0128 33.58 57.8448 33.748C57.6768 33.916 57.4728 34 57.2328 34H54.2088ZM94.9197 34C94.6797 34 94.4757 33.916 94.3077 33.748C94.1397 33.58 94.0557 33.376 94.0557 33.136V16.144C94.0557 15.904 94.1397 15.7 94.3077 15.532C94.4757 15.364 94.6797 15.28 94.9197 15.28H97.8717C98.1117 15.28 98.3157 15.364 98.4837 15.532C98.6517 15.7 98.7357 15.904 98.7357 16.144V17.62C100.152 15.82 102.156 14.92 104.748 14.92C106.956 14.92 108.708 15.652 110.004 17.116C111.3 18.556 111.948 20.524 111.948 23.02V33.136C111.948 33.376 111.864 33.58 111.696 33.748C111.552 33.916 111.348 34 111.084 34H107.916C107.676 34 107.472 33.916 107.304 33.748C107.136 33.58 107.052 33.376 107.052 33.136V23.236C107.052 21.82 106.704 20.728 106.008 19.96C105.336 19.168 104.352 18.772 103.056 18.772C101.784 18.772 100.776 19.168 100.032 19.96C99.3117 20.752 98.9517 21.844 98.9517 23.236V33.136C98.9517 33.376 98.8677 33.58 98.6997 33.748C98.5557 33.916 98.3517 34 98.0877 34H94.9197ZM124.801 34.36C121.993 34.36 119.821 33.64 118.285 32.2C116.749 30.736 115.921 28.744 115.801 26.224L115.765 24.64L115.801 23.056C115.921 20.56 116.761 18.58 118.321 17.116C119.881 15.652 122.041 14.92 124.801 14.92C127.561 14.92 129.721 15.652 131.281 17.116C132.841 18.58 133.681 20.56 133.801 23.056C133.825 23.344 133.837 23.872 133.837 24.64C133.837 25.408 133.825 25.936 133.801 26.224C133.681 28.744 132.853 30.736 131.317 32.2C129.781 33.64 127.609 34.36 124.801 34.36ZM124.801 30.796C126.073 30.796 127.057 30.4 127.753 29.608C128.449 28.792 128.833 27.604 128.905 26.044C128.929 25.804 128.941 25.336 128.941 24.64C128.941 23.944 128.929 23.476 128.905 23.236C128.833 21.676 128.449 20.5 127.753 19.708C127.057 18.892 126.073 18.484 124.801 18.484C123.529 18.484 122.545 18.892 121.849 19.708C121.153 20.5 120.769 21.676 120.697 23.236L120.661 24.64L120.697 26.044C120.769 27.604 121.153 28.792 121.849 29.608C122.545 30.4 123.529 30.796 124.801 30.796ZM138.545 12.184C138.305 12.184 138.101 12.1 137.933 11.932C137.765 11.764 137.681 11.56 137.681 11.32V8.728C137.681 8.488 137.765 8.284 137.933 8.116C138.101 7.948 138.305 7.864 138.545 7.864H141.821C142.061 7.864 142.265 7.948 142.433 8.116C142.625 8.284 142.721 8.488 142.721 8.728V11.32C142.721 11.56 142.637 11.764 142.469 11.932C142.301 12.1 142.085 12.184 141.821 12.184H138.545ZM138.689 34C138.449 34 138.245 33.916 138.077 33.748C137.909 33.58 137.825 33.376 137.825 33.136V16.144C137.825 15.904 137.909 15.7 138.077 15.532C138.245 15.364 138.449 15.28 138.689 15.28H141.677C141.941 15.28 142.145 15.364 142.289 15.532C142.457 15.676 142.541 15.88 142.541 16.144V33.136C142.541 33.376 142.457 33.58 142.289 33.748C142.145 33.916 141.941 34 141.677 34H138.689ZM156.444 34C156.204 34 156 33.916 155.832 33.748C155.664 33.58 155.58 33.376 155.58 33.136V9.304C155.58 9.04 155.664 8.836 155.832 8.692C156 8.524 156.204 8.44 156.444 8.44H159.432C159.696 8.44 159.9 8.524 160.044 8.692C160.212 8.836 160.296 9.04 160.296 9.304V33.136C160.296 33.376 160.212 33.58 160.044 33.748C159.9 33.916 159.696 34 159.432 34H156.444ZM172.019 34.36C169.811 34.36 168.071 33.64 166.799 32.2C165.527 30.736 164.891 28.756 164.891 26.26V16.144C164.891 15.904 164.975 15.7 165.143 15.532C165.311 15.364 165.515 15.28 165.755 15.28H168.923C169.187 15.28 169.391 15.364 169.535 15.532C169.703 15.676 169.787 15.88 169.787 16.144V26.044C169.787 29.02 171.095 30.508 173.711 30.508C174.959 30.508 175.943 30.112 176.663 29.32C177.407 28.528 177.779 27.436 177.779 26.044V16.144C177.779 15.904 177.863 15.7 178.031 15.532C178.199 15.364 178.403 15.28 178.643 15.28H181.811C182.075 15.28 182.279 15.364 182.423 15.532C182.591 15.676 182.675 15.88 182.675 16.144V33.136C182.675 33.376 182.591 33.58 182.423 33.748C182.279 33.916 182.075 34 181.811 34H178.895C178.655 34 178.451 33.916 178.283 33.748C178.115 33.58 178.031 33.376 178.031 33.136V31.66C176.687 33.46 174.683 34.36 172.019 34.36ZM195.531 34.36C192.891 34.36 190.779 33.628 189.195 32.164C187.635 30.7 186.807 28.672 186.711 26.08L186.675 24.64L186.711 23.2C186.807 20.608 187.635 18.58 189.195 17.116C190.779 15.652 192.891 14.92 195.531 14.92C197.403 14.92 198.987 15.256 200.283 15.928C201.603 16.6 202.575 17.428 203.199 18.412C203.847 19.372 204.195 20.284 204.243 21.148C204.267 21.388 204.183 21.592 203.991 21.76C203.823 21.928 203.619 22.012 203.379 22.012H200.211C199.971 22.012 199.779 21.964 199.635 21.868C199.515 21.748 199.395 21.556 199.275 21.292C198.915 20.356 198.435 19.684 197.835 19.276C197.259 18.868 196.515 18.664 195.603 18.664C194.379 18.664 193.419 19.06 192.723 19.852C192.027 20.62 191.655 21.796 191.607 23.38L191.571 24.712L191.607 25.9C191.703 29.044 193.035 30.616 195.603 30.616C196.539 30.616 197.295 30.412 197.871 30.004C198.447 29.596 198.915 28.924 199.275 27.988C199.395 27.724 199.515 27.544 199.635 27.448C199.779 27.328 199.971 27.268 200.211 27.268H203.379C203.619 27.268 203.823 27.352 203.991 27.52C204.183 27.688 204.267 27.892 204.243 28.132C204.195 28.972 203.859 29.872 203.235 30.832C202.611 31.792 201.651 32.62 200.355 33.316C199.059 34.012 197.451 34.36 195.531 34.36ZM208.861 34C208.621 34 208.417 33.916 208.249 33.748C208.081 33.58 207.997 33.376 207.997 33.136V16.18C207.997 15.94 208.081 15.736 208.249 15.568C208.417 15.376 208.621 15.28 208.861 15.28H211.777C212.041 15.28 212.257 15.364 212.425 15.532C212.593 15.7 212.677 15.916 212.677 16.18V17.656C213.253 16.888 213.973 16.3 214.837 15.892C215.725 15.484 216.733 15.28 217.861 15.28H219.337C219.601 15.28 219.805 15.364 219.949 15.532C220.117 15.676 220.201 15.88 220.201 16.144V18.736C220.201 18.976 220.117 19.18 219.949 19.348C219.805 19.516 219.601 19.6 219.337 19.6H216.529C215.401 19.6 214.513 19.924 213.865 20.572C213.217 21.22 212.893 22.108 212.893 23.236V33.136C212.893 33.376 212.809 33.58 212.641 33.748C212.473 33.916 212.257 34 211.993 34H208.861ZM228.164 34.36C226.94 34.36 225.812 34.12 224.78 33.64C223.772 33.136 222.968 32.464 222.368 31.624C221.792 30.784 221.504 29.86 221.504 28.852C221.504 27.22 222.164 25.9 223.484 24.892C224.804 23.884 226.616 23.2 228.92 22.84L233.852 22.12V21.364C233.852 20.308 233.588 19.516 233.06 18.988C232.532 18.46 231.68 18.196 230.504 18.196C229.712 18.196 229.064 18.352 228.56 18.664C228.08 18.952 227.696 19.24 227.408 19.528C227.12 19.84 226.928 20.044 226.832 20.14C226.736 20.428 226.556 20.572 226.292 20.572H223.52C223.304 20.572 223.112 20.5 222.944 20.356C222.8 20.212 222.728 20.02 222.728 19.78C222.752 19.18 223.04 18.496 223.592 17.728C224.168 16.96 225.044 16.3 226.22 15.748C227.396 15.196 228.836 14.92 230.54 14.92C233.372 14.92 235.436 15.556 236.732 16.828C238.028 18.1 238.676 19.768 238.676 21.832V33.136C238.676 33.376 238.592 33.58 238.424 33.748C238.28 33.916 238.076 34 237.812 34H234.896C234.656 34 234.452 33.916 234.284 33.748C234.116 33.58 234.032 33.376 234.032 33.136V31.732C233.504 32.5 232.748 33.136 231.764 33.64C230.804 34.12 229.604 34.36 228.164 34.36ZM229.388 30.94C230.708 30.94 231.788 30.508 232.628 29.644C233.468 28.78 233.888 27.52 233.888 25.864V25.108L230.288 25.684C228.896 25.9 227.84 26.248 227.12 26.728C226.424 27.208 226.076 27.796 226.076 28.492C226.076 29.26 226.4 29.86 227.048 30.292C227.696 30.724 228.476 30.94 229.388 30.94ZM244.158 34C243.918 34 243.714 33.916 243.546 33.748C243.378 33.58 243.294 33.376 243.294 33.136V16.144C243.294 15.904 243.378 15.7 243.546 15.532C243.714 15.364 243.918 15.28 244.158 15.28H246.966C247.206 15.28 247.41 15.364 247.578 15.532C247.746 15.7 247.83 15.904 247.83 16.144V17.368C249.078 15.736 250.818 14.92 253.05 14.92C255.714 14.92 257.574 15.988 258.63 18.124C259.206 17.164 260.022 16.396 261.078 15.82C262.134 15.22 263.274 14.92 264.498 14.92C266.466 14.92 268.074 15.592 269.322 16.936C270.57 18.28 271.194 20.236 271.194 22.804V33.136C271.194 33.376 271.11 33.58 270.942 33.748C270.798 33.916 270.594 34 270.33 34H267.378C267.138 34 266.934 33.916 266.766 33.748C266.598 33.58 266.514 33.376 266.514 33.136V23.092C266.514 21.58 266.19 20.488 265.542 19.816C264.918 19.12 264.078 18.772 263.022 18.772C262.086 18.772 261.282 19.12 260.61 19.816C259.962 20.512 259.638 21.604 259.638 23.092V33.136C259.638 33.376 259.554 33.58 259.386 33.748C259.218 33.916 259.014 34 258.774 34H255.822C255.582 34 255.378 33.916 255.21 33.748C255.042 33.58 254.958 33.376 254.958 33.136V23.092C254.958 21.58 254.622 20.488 253.95 19.816C253.302 19.12 252.474 18.772 251.466 18.772C250.506 18.772 249.69 19.12 249.018 19.816C248.37 20.512 248.046 21.604 248.046 23.092V33.136C248.046 33.376 247.962 33.58 247.794 33.748C247.626 33.916 247.422 34 247.182 34H244.158Z" fill="#131313"/>
</svg>
