<svg width="203" height="43" viewBox="0 0 203 43" fill="none" xmlns="http://www.w3.org/2000/svg">
<circle r="11.5" transform="matrix(1 0 0 -1 12 12)" stroke="#E41222"/>
<path d="M5.26 34C5.068 34 4.888 33.928 4.72 33.784C4.576 33.64 4.504 33.46 4.504 33.244L4.576 32.92L13.252 9.7C13.42 9.1 13.84 8.8 14.512 8.8H18.436C19.06 8.8 19.48 9.1 19.696 9.7L28.372 32.92C28.396 32.992 28.408 33.1 28.408 33.244C28.408 33.46 28.336 33.64 28.192 33.784C28.048 33.928 27.88 34 27.688 34H24.556C24.244 34 24.004 33.928 23.836 33.784C23.668 33.64 23.56 33.484 23.512 33.316L21.82 28.924H11.128L9.436 33.316C9.244 33.772 8.896 34 8.392 34H5.26ZM20.56 24.784L16.456 13.66L12.388 24.784H20.56ZM41.7049 34.36C39.2329 34.36 37.3129 33.508 35.9449 31.804V33.136C35.9449 33.376 35.8609 33.58 35.6929 33.748C35.5489 33.916 35.3449 34 35.0809 34H32.2369C31.9969 34 31.7929 33.916 31.6249 33.748C31.4569 33.58 31.3729 33.376 31.3729 33.136V9.304C31.3729 9.04 31.4569 8.836 31.6249 8.692C31.7929 8.524 31.9969 8.44 32.2369 8.44H35.2969C35.5609 8.44 35.7649 8.524 35.9089 8.692C36.0769 8.836 36.1609 9.04 36.1609 9.304V17.296C37.5289 15.712 39.3769 14.92 41.7049 14.92C44.1289 14.92 45.9889 15.712 47.2849 17.296C48.5809 18.88 49.2769 20.932 49.3729 23.452C49.3969 23.74 49.4089 24.124 49.4089 24.604C49.4089 25.108 49.3969 25.504 49.3729 25.792C49.2769 28.384 48.5809 30.46 47.2849 32.02C45.9889 33.58 44.1289 34.36 41.7049 34.36ZM40.3729 30.508C42.9649 30.508 44.3449 28.912 44.5129 25.72C44.5369 25.48 44.5489 25.12 44.5489 24.64C44.5489 24.16 44.5369 23.8 44.5129 23.56C44.3449 20.368 42.9649 18.772 40.3729 18.772C39.0289 18.772 37.9969 19.204 37.2769 20.068C36.5809 20.908 36.2089 21.928 36.1609 23.128L36.1249 24.496L36.1609 25.9C36.2329 27.196 36.6049 28.288 37.2769 29.176C37.9489 30.064 38.9809 30.508 40.3729 30.508ZM61.6951 34.36C58.8871 34.36 56.7151 33.64 55.1791 32.2C53.6431 30.736 52.8151 28.744 52.6951 26.224L52.6591 24.64L52.6951 23.056C52.8151 20.56 53.6551 18.58 55.2151 17.116C56.7751 15.652 58.9351 14.92 61.6951 14.92C64.4551 14.92 66.6151 15.652 68.1751 17.116C69.7351 18.58 70.5751 20.56 70.6951 23.056C70.7191 23.344 70.7311 23.872 70.7311 24.64C70.7311 25.408 70.7191 25.936 70.6951 26.224C70.5751 28.744 69.7471 30.736 68.2111 32.2C66.6751 33.64 64.5031 34.36 61.6951 34.36ZM61.6951 30.796C62.9671 30.796 63.9511 30.4 64.6471 29.608C65.3431 28.792 65.7271 27.604 65.7991 26.044C65.8231 25.804 65.8351 25.336 65.8351 24.64C65.8351 23.944 65.8231 23.476 65.7991 23.236C65.7271 21.676 65.3431 20.5 64.6471 19.708C63.9511 18.892 62.9671 18.484 61.6951 18.484C60.4231 18.484 59.4391 18.892 58.7431 19.708C58.0471 20.5 57.6631 21.676 57.5911 23.236L57.5551 24.64L57.5911 26.044C57.6631 27.604 58.0471 28.792 58.7431 29.608C59.4391 30.4 60.4231 30.796 61.6951 30.796ZM81.6678 34.36C79.4598 34.36 77.7198 33.64 76.4478 32.2C75.1758 30.736 74.5398 28.756 74.5398 26.26V16.144C74.5398 15.904 74.6238 15.7 74.7918 15.532C74.9598 15.364 75.1638 15.28 75.4038 15.28H78.5718C78.8358 15.28 79.0398 15.364 79.1838 15.532C79.3518 15.676 79.4358 15.88 79.4358 16.144V26.044C79.4358 29.02 80.7438 30.508 83.3598 30.508C84.6078 30.508 85.5918 30.112 86.3118 29.32C87.0558 28.528 87.4278 27.436 87.4278 26.044V16.144C87.4278 15.904 87.5118 15.7 87.6798 15.532C87.8478 15.364 88.0518 15.28 88.2918 15.28H91.4598C91.7238 15.28 91.9278 15.364 92.0718 15.532C92.2398 15.676 92.3238 15.88 92.3238 16.144V33.136C92.3238 33.376 92.2398 33.58 92.0718 33.748C91.9278 33.916 91.7238 34 91.4598 34H88.5438C88.3038 34 88.0998 33.916 87.9318 33.748C87.7638 33.58 87.6798 33.376 87.6798 33.136V31.66C86.3358 33.46 84.3318 34.36 81.6678 34.36ZM105.539 34C103.355 34 101.711 33.436 100.607 32.308C99.5271 31.156 98.9871 29.476 98.9871 27.268V19.096H96.1431C95.9031 19.096 95.6991 19.012 95.5311 18.844C95.3631 18.652 95.2791 18.436 95.2791 18.196V16.144C95.2791 15.904 95.3631 15.7 95.5311 15.532C95.6991 15.364 95.9031 15.28 96.1431 15.28H98.9871V9.304C98.9871 9.04 99.0711 8.836 99.2391 8.692C99.4071 8.524 99.6111 8.44 99.8511 8.44H102.767C103.031 8.44 103.235 8.524 103.379 8.692C103.547 8.836 103.631 9.04 103.631 9.304V15.28H108.131C108.395 15.28 108.599 15.364 108.743 15.532C108.911 15.676 108.995 15.88 108.995 16.144V18.196C108.995 18.46 108.911 18.676 108.743 18.844C108.575 19.012 108.371 19.096 108.131 19.096H103.631V26.908C103.631 27.94 103.811 28.72 104.171 29.248C104.531 29.776 105.131 30.04 105.971 30.04H108.455C108.695 30.04 108.899 30.124 109.067 30.292C109.235 30.46 109.319 30.664 109.319 30.904V33.136C109.319 33.376 109.235 33.58 109.067 33.748C108.923 33.916 108.719 34 108.455 34H105.539ZM125.043 34C124.731 34 124.479 33.928 124.287 33.784C124.119 33.616 123.975 33.388 123.855 33.1L118.707 16.396C118.683 16.324 118.671 16.216 118.671 16.072C118.671 15.856 118.743 15.676 118.887 15.532C119.055 15.364 119.235 15.28 119.427 15.28H122.091C122.355 15.28 122.571 15.352 122.739 15.496C122.907 15.64 123.015 15.796 123.063 15.964L126.591 27.88L130.335 16.072C130.407 15.856 130.527 15.676 130.695 15.532C130.887 15.364 131.127 15.28 131.415 15.28H133.215C133.503 15.28 133.731 15.364 133.899 15.532C134.091 15.676 134.223 15.856 134.295 16.072L138.039 27.88L141.567 15.964C141.591 15.796 141.687 15.64 141.855 15.496C142.047 15.352 142.263 15.28 142.503 15.28H145.167C145.383 15.28 145.563 15.364 145.707 15.532C145.875 15.676 145.959 15.856 145.959 16.072L145.887 16.396L140.739 33.1C140.643 33.388 140.499 33.616 140.307 33.784C140.139 33.928 139.899 34 139.587 34H137.247C136.623 34 136.227 33.7 136.059 33.1L132.315 21.724L128.571 33.1C128.379 33.7 127.971 34 127.347 34H125.043ZM157.215 34.36C154.407 34.36 152.235 33.64 150.699 32.2C149.163 30.736 148.335 28.744 148.215 26.224L148.179 24.64L148.215 23.056C148.335 20.56 149.175 18.58 150.735 17.116C152.295 15.652 154.455 14.92 157.215 14.92C159.975 14.92 162.135 15.652 163.695 17.116C165.255 18.58 166.095 20.56 166.215 23.056C166.239 23.344 166.251 23.872 166.251 24.64C166.251 25.408 166.239 25.936 166.215 26.224C166.095 28.744 165.267 30.736 163.731 32.2C162.195 33.64 160.023 34.36 157.215 34.36ZM157.215 30.796C158.487 30.796 159.471 30.4 160.167 29.608C160.863 28.792 161.247 27.604 161.319 26.044C161.343 25.804 161.355 25.336 161.355 24.64C161.355 23.944 161.343 23.476 161.319 23.236C161.247 21.676 160.863 20.5 160.167 19.708C159.471 18.892 158.487 18.484 157.215 18.484C155.943 18.484 154.959 18.892 154.263 19.708C153.567 20.5 153.183 21.676 153.111 23.236L153.075 24.64L153.111 26.044C153.183 27.604 153.567 28.792 154.263 29.608C154.959 30.4 155.943 30.796 157.215 30.796ZM171.103 34C170.863 34 170.659 33.916 170.491 33.748C170.323 33.58 170.239 33.376 170.239 33.136V16.18C170.239 15.94 170.323 15.736 170.491 15.568C170.659 15.376 170.863 15.28 171.103 15.28H174.019C174.283 15.28 174.499 15.364 174.667 15.532C174.835 15.7 174.919 15.916 174.919 16.18V17.656C175.495 16.888 176.215 16.3 177.079 15.892C177.967 15.484 178.975 15.28 180.103 15.28H181.579C181.843 15.28 182.047 15.364 182.191 15.532C182.359 15.676 182.443 15.88 182.443 16.144V18.736C182.443 18.976 182.359 19.18 182.191 19.348C182.047 19.516 181.843 19.6 181.579 19.6H178.771C177.643 19.6 176.755 19.924 176.107 20.572C175.459 21.22 175.135 22.108 175.135 23.236V33.136C175.135 33.376 175.051 33.58 174.883 33.748C174.715 33.916 174.499 34 174.235 34H171.103ZM186.151 34C185.911 34 185.707 33.916 185.539 33.748C185.371 33.58 185.287 33.376 185.287 33.136V9.304C185.287 9.04 185.371 8.836 185.539 8.692C185.707 8.524 185.911 8.44 186.151 8.44H189.067C189.331 8.44 189.535 8.524 189.679 8.692C189.847 8.836 189.931 9.04 189.931 9.304V21.616L195.979 15.892C196.051 15.844 196.171 15.748 196.339 15.604C196.483 15.484 196.627 15.4 196.771 15.352C196.915 15.304 197.095 15.28 197.311 15.28H200.659C200.899 15.28 201.091 15.352 201.235 15.496C201.379 15.64 201.451 15.832 201.451 16.072C201.451 16.288 201.331 16.504 201.091 16.72L193.675 23.668L201.991 32.596C202.231 32.836 202.351 33.04 202.351 33.208C202.351 33.448 202.267 33.64 202.099 33.784C201.955 33.928 201.775 34 201.559 34H198.139C197.803 34 197.551 33.964 197.383 33.892C197.239 33.796 197.047 33.628 196.807 33.388L189.931 26.152V33.136C189.931 33.376 189.847 33.58 189.679 33.748C189.535 33.916 189.331 34 189.067 34H186.151Z" fill="#131313"/>
</svg>
